NotoSansCham-Regular.ufo
<glyph name="uni25CC" format="2">
  <advance width="594"/>
  <unicode hex="25CC"/>
  <outline>
    <contour>
      <point x="213" y="519" type="curve" smooth="yes"/>
      <point x="199" y="519"/>
      <point x="187" y="507"/>
      <point x="187" y="493" type="curve" smooth="yes"/>
      <point x="187" y="479"/>
      <point x="199" y="467"/>
      <point x="213" y="467" type="curve" smooth="yes"/>
      <point x="227" y="467"/>
      <point x="239" y="479"/>
      <point x="239" y="493" type="curve" smooth="yes"/>
      <point x="239" y="507"/>
      <point x="227" y="519"/>
    </contour>
    <contour>
      <point x="381" y="519" type="curve" smooth="yes"/>
      <point x="367" y="519"/>
      <point x="355" y="507"/>
      <point x="355" y="493" type="curve" smooth="yes"/>
      <point x="355" y="479"/>
      <point x="367" y="467"/>
      <point x="381" y="467" type="curve" smooth="yes"/>
      <point x="395" y="467"/>
      <point x="407" y="479"/>
      <point x="407" y="493" type="curve" smooth="yes"/>
      <point x="407" y="507"/>
      <point x="395" y="519"/>
    </contour>
    <contour>
      <point x="213" y="109" type="curve" smooth="yes"/>
      <point x="199" y="109"/>
      <point x="187" y="97"/>
      <point x="187" y="83" type="curve" smooth="yes"/>
      <point x="187" y="69"/>
      <point x="199" y="57"/>
      <point x="213" y="57" type="curve" smooth="yes"/>
      <point x="227" y="57"/>
      <point x="239" y="69"/>
      <point x="239" y="83" type="curve" smooth="yes"/>
      <point x="239" y="97"/>
      <point x="227" y="109"/>
    </contour>
    <contour>
      <point x="381" y="109" type="curve" smooth="yes"/>
      <point x="367" y="109"/>
      <point x="355" y="97"/>
      <point x="355" y="83" type="curve" smooth="yes"/>
      <point x="355" y="69"/>
      <point x="367" y="57"/>
      <point x="381" y="57" type="curve" smooth="yes"/>
      <point x="395" y="57"/>
      <point x="407" y="69"/>
      <point x="407" y="83" type="curve" smooth="yes"/>
      <point x="407" y="97"/>
      <point x="395" y="109"/>
    </contour>
    <contour>
      <point x="297" y="537" type="curve" smooth="yes"/>
      <point x="283" y="537"/>
      <point x="271" y="525"/>
      <point x="271" y="511" type="curve" smooth="yes"/>
      <point x="271" y="497"/>
      <point x="283" y="485"/>
      <point x="297" y="485" type="curve" smooth="yes"/>
      <point x="311" y="485"/>
      <point x="323" y="497"/>
      <point x="323" y="511" type="curve" smooth="yes"/>
      <point x="323" y="525"/>
      <point x="311" y="537"/>
    </contour>
    <contour>
      <point x="297" y="91" type="curve" smooth="yes"/>
      <point x="283" y="91"/>
      <point x="271" y="79"/>
      <point x="271" y="65" type="curve" smooth="yes"/>
      <point x="271" y="51"/>
      <point x="283" y="39"/>
      <point x="297" y="39" type="curve" smooth="yes"/>
      <point x="311" y="39"/>
      <point x="323" y="51"/>
      <point x="323" y="65" type="curve" smooth="yes"/>
      <point x="323" y="79"/>
      <point x="311" y="91"/>
    </contour>
    <contour>
      <point x="48" y="288" type="curve" smooth="yes"/>
      <point x="48" y="274"/>
      <point x="60" y="262"/>
      <point x="74" y="262" type="curve" smooth="yes"/>
      <point x="88" y="262"/>
      <point x="100" y="274"/>
      <point x="100" y="288" type="curve" smooth="yes"/>
      <point x="100" y="302"/>
      <point x="88" y="314"/>
      <point x="74" y="314" type="curve" smooth="yes"/>
      <point x="60" y="314"/>
      <point x="48" y="302"/>
    </contour>
    <contour>
      <point x="494" y="288" type="curve" smooth="yes"/>
      <point x="494" y="274"/>
      <point x="506" y="262"/>
      <point x="520" y="262" type="curve" smooth="yes"/>
      <point x="534" y="262"/>
      <point x="546" y="274"/>
      <point x="546" y="288" type="curve" smooth="yes"/>
      <point x="546" y="302"/>
      <point x="534" y="314"/>
      <point x="520" y="314" type="curve" smooth="yes"/>
      <point x="506" y="314"/>
      <point x="494" y="302"/>
    </contour>
    <contour>
      <point x="113" y="130" type="curve" smooth="yes"/>
      <point x="113" y="116"/>
      <point x="125" y="104"/>
      <point x="139" y="104" type="curve" smooth="yes"/>
      <point x="153" y="104"/>
      <point x="165" y="116"/>
      <point x="165" y="130" type="curve" smooth="yes"/>
      <point x="165" y="144"/>
      <point x="153" y="156"/>
      <point x="139" y="156" type="curve" smooth="yes"/>
      <point x="125" y="156"/>
      <point x="113" y="144"/>
    </contour>
    <contour>
      <point x="113" y="446" type="curve" smooth="yes"/>
      <point x="113" y="432"/>
      <point x="125" y="420"/>
      <point x="139" y="420" type="curve" smooth="yes"/>
      <point x="153" y="420"/>
      <point x="165" y="432"/>
      <point x="165" y="446" type="curve" smooth="yes"/>
      <point x="165" y="460"/>
      <point x="153" y="472"/>
      <point x="139" y="472" type="curve" smooth="yes"/>
      <point x="125" y="472"/>
      <point x="113" y="460"/>
    </contour>
    <contour>
      <point x="429" y="130" type="curve" smooth="yes"/>
      <point x="429" y="116"/>
      <point x="441" y="104"/>
      <point x="455" y="104" type="curve" smooth="yes"/>
      <point x="469" y="104"/>
      <point x="481" y="116"/>
      <point x="481" y="130" type="curve" smooth="yes"/>
      <point x="481" y="144"/>
      <point x="469" y="156"/>
      <point x="455" y="156" type="curve" smooth="yes"/>
      <point x="441" y="156"/>
      <point x="429" y="144"/>
    </contour>
    <contour>
      <point x="429" y="446" type="curve" smooth="yes"/>
      <point x="429" y="432"/>
      <point x="441" y="420"/>
      <point x="455" y="420" type="curve" smooth="yes"/>
      <point x="469" y="420"/>
      <point x="481" y="432"/>
      <point x="481" y="446" type="curve" smooth="yes"/>
      <point x="481" y="460"/>
      <point x="469" y="472"/>
      <point x="455" y="472" type="curve" smooth="yes"/>
      <point x="441" y="472"/>
      <point x="429" y="460"/>
    </contour>
    <contour>
      <point x="66" y="204" type="curve" smooth="yes"/>
      <point x="66" y="190"/>
      <point x="78" y="178"/>
      <point x="92" y="178" type="curve" smooth="yes"/>
      <point x="106" y="178"/>
      <point x="118" y="190"/>
      <point x="118" y="204" type="curve" smooth="yes"/>
      <point x="118" y="218"/>
      <point x="106" y="230"/>
      <point x="92" y="230" type="curve" smooth="yes"/>
      <point x="78" y="230"/>
      <point x="66" y="218"/>
    </contour>
    <contour>
      <point x="66" y="372" type="curve" smooth="yes"/>
      <point x="66" y="358"/>
      <point x="78" y="346"/>
      <point x="92" y="346" type="curve" smooth="yes"/>
      <point x="106" y="346"/>
      <point x="118" y="358"/>
      <point x="118" y="372" type="curve" smooth="yes"/>
      <point x="118" y="386"/>
      <point x="106" y="398"/>
      <point x="92" y="398" type="curve" smooth="yes"/>
      <point x="78" y="398"/>
      <point x="66" y="386"/>
    </contour>
    <contour>
      <point x="476" y="204" type="curve" smooth="yes"/>
      <point x="476" y="190"/>
      <point x="488" y="178"/>
      <point x="502" y="178" type="curve" smooth="yes"/>
      <point x="516" y="178"/>
      <point x="528" y="190"/>
      <point x="528" y="204" type="curve" smooth="yes"/>
      <point x="528" y="218"/>
      <point x="516" y="230"/>
      <point x="502" y="230" type="curve" smooth="yes"/>
      <point x="488" y="230"/>
      <point x="476" y="218"/>
    </contour>
    <contour>
      <point x="476" y="372" type="curve" smooth="yes"/>
      <point x="476" y="358"/>
      <point x="488" y="346"/>
      <point x="502" y="346" type="curve" smooth="yes"/>
      <point x="516" y="346"/>
      <point x="528" y="358"/>
      <point x="528" y="372" type="curve" smooth="yes"/>
      <point x="528" y="386"/>
      <point x="516" y="398"/>
      <point x="502" y="398" type="curve" smooth="yes"/>
      <point x="488" y="398"/>
      <point x="476" y="386"/>
    </contour>
  </outline>
</glyph>
<glyph name="i_cham" format="2">
  <advance width="938"/>
  <unicode hex="AA01"/>
  <note>
uniAA01
</note>
  <outline>
    <contour>
      <point x="858" y="345" type="curve" smooth="yes"/>
      <point x="858" y="496"/>
      <point x="779" y="594"/>
      <point x="669" y="594" type="curve" smooth="yes"/>
      <point x="553" y="594"/>
      <point x="530" y="513"/>
      <point x="470" y="513" type="curve" smooth="yes"/>
      <point x="410" y="513"/>
      <point x="385" y="594"/>
      <point x="271" y="594" type="curve" smooth="yes"/>
      <point x="157" y="594"/>
      <point x="80" y="485"/>
      <point x="80" y="308" type="curve" smooth="yes"/>
      <point x="80" y="105"/>
      <point x="177" y="-19"/>
      <point x="309" y="-19" type="curve" smooth="yes"/>
      <point x="382" y="-19"/>
      <point x="427" y="23"/>
      <point x="427" y="82" type="curve" smooth="yes"/>
      <point x="427" y="143"/>
      <point x="381" y="182"/>
      <point x="317" y="182" type="curve" smooth="yes"/>
      <point x="245" y="182"/>
      <point x="196" y="129"/>
      <point x="183" y="48" type="curve"/>
      <point x="235" y="48" type="line"/>
      <point x="243" y="93"/>
      <point x="270" y="131"/>
      <point x="316" y="131" type="curve" smooth="yes"/>
      <point x="346" y="131"/>
      <point x="370" y="116"/>
      <point x="370" y="83" type="curve" smooth="yes"/>
      <point x="370" y="54"/>
      <point x="349" y="35"/>
      <point x="314" y="35" type="curve" smooth="yes"/>
      <point x="232" y="35"/>
      <point x="166" y="130"/>
      <point x="166" y="308" type="curve" smooth="yes"/>
      <point x="166" y="441"/>
      <point x="218" y="518"/>
      <point x="287" y="518" type="curve" smooth="yes"/>
      <point x="369" y="518"/>
      <point x="381" y="437"/>
      <point x="470" y="437" type="curve" smooth="yes"/>
      <point x="559" y="437"/>
      <point x="571" y="518"/>
      <point x="653" y="518" type="curve" smooth="yes"/>
      <point x="717" y="518"/>
      <point x="772" y="452"/>
      <point x="772" y="345" type="curve" smooth="yes"/>
      <point x="772" y="213"/>
      <point x="729" y="111"/>
      <point x="590" y="31" type="curve" smooth="yes"/>
      <point x="419" y="-67"/>
      <point x="387" y="-124"/>
      <point x="387" y="-186" type="curve" smooth="yes"/>
      <point x="387" y="-251"/>
      <point x="441" y="-299"/>
      <point x="506" y="-299" type="curve" smooth="yes"/>
      <point x="628" y="-299"/>
      <point x="646" y="-149"/>
      <point x="710" y="-149" type="curve" smooth="yes"/>
      <point x="732" y="-149"/>
      <point x="745" y="-162"/>
      <point x="745" y="-183" type="curve" smooth="yes"/>
      <point x="745" y="-195"/>
      <point x="740" y="-209"/>
      <point x="731" y="-222" type="curve"/>
      <point x="799" y="-253" type="line"/>
      <point x="817" y="-228"/>
      <point x="826" y="-195"/>
      <point x="826" y="-172" type="curve" smooth="yes"/>
      <point x="826" y="-119"/>
      <point x="783" y="-76"/>
      <point x="725" y="-76" type="curve" smooth="yes"/>
      <point x="603" y="-76"/>
      <point x="585" y="-224"/>
      <point x="517" y="-224" type="curve" smooth="yes"/>
      <point x="488" y="-224"/>
      <point x="471" y="-203"/>
      <point x="471" y="-178" type="curve" smooth="yes"/>
      <point x="471" y="-135"/>
      <point x="519" y="-96"/>
      <point x="647" y="-22" type="curve" smooth="yes"/>
      <point x="802" y="67"/>
      <point x="858" y="190"/>
    </contour>
  </outline>
</glyph>
<glyph name="u_cham" format="2">
  <advance width="592"/>
  <unicode hex="AA02"/>
  <note>
uniAA02
</note>
  <outline>
    <contour>
      <point x="539" y="395" type="curve" smooth="yes"/>
      <point x="539" y="514"/>
      <point x="444" y="594"/>
      <point x="295" y="594" type="curve" smooth="yes"/>
      <point x="144" y="594"/>
      <point x="46" y="514"/>
      <point x="46" y="389" type="curve" smooth="yes"/>
      <point x="46" y="354"/>
      <point x="61" y="305"/>
      <point x="88" y="262" type="curve"/>
      <point x="157" y="295" type="line"/>
      <point x="139" y="328"/>
      <point x="128" y="365"/>
      <point x="128" y="391" type="curve" smooth="yes"/>
      <point x="128" y="475"/>
      <point x="186" y="525"/>
      <point x="294" y="525" type="curve" smooth="yes"/>
      <point x="395" y="525"/>
      <point x="454" y="475"/>
      <point x="454" y="393" type="curve" smooth="yes"/>
      <point x="454" y="308"/>
      <point x="385" y="272"/>
      <point x="293" y="228" type="curve" smooth="yes"/>
      <point x="203" y="185"/>
      <point x="144" y="156"/>
      <point x="144" y="88" type="curve" smooth="yes"/>
      <point x="144" y="18"/>
      <point x="207" y="-17"/>
      <point x="301" y="-17" type="curve" smooth="yes"/>
      <point x="400" y="-17"/>
      <point x="459" y="38"/>
      <point x="459" y="122" type="curve"/>
      <point x="379" y="122" type="line"/>
      <point x="379" y="75"/>
      <point x="357" y="46"/>
      <point x="303" y="46" type="curve" smooth="yes"/>
      <point x="255" y="46"/>
      <point x="228" y="62"/>
      <point x="228" y="91" type="curve" smooth="yes"/>
      <point x="228" y="125"/>
      <point x="266" y="145"/>
      <point x="350" y="183" type="curve" smooth="yes"/>
      <point x="451" y="229"/>
      <point x="539" y="275"/>
    </contour>
  </outline>
</glyph>
<glyph name="e_cham" format="2">
  <advance width="943"/>
  <unicode hex="AA03"/>
  <note>
uniAA03
</note>
  <outline>
    <contour>
      <point x="890" y="692" type="curve" smooth="yes"/>
      <point x="890" y="785"/>
      <point x="814" y="853"/>
      <point x="698" y="853" type="curve" smooth="yes"/>
      <point x="585" y="853"/>
      <point x="509" y="789"/>
      <point x="509" y="693" type="curve" smooth="yes"/>
      <point x="509" y="539"/>
      <point x="705" y="475"/>
      <point x="705" y="337" type="curve" smooth="yes"/>
      <point x="705" y="281"/>
      <point x="672" y="239"/>
      <point x="600" y="239" type="curve" smooth="yes"/>
      <point x="548" y="239"/>
      <point x="522" y="257"/>
      <point x="522" y="284" type="curve" smooth="yes"/>
      <point x="522" y="304"/>
      <point x="536" y="320"/>
      <point x="565" y="320" type="curve" smooth="yes"/>
      <point x="602" y="320"/>
      <point x="621" y="295"/>
      <point x="621" y="265" type="curve" smooth="yes"/>
      <point x="621" y="212"/>
      <point x="588" y="194"/>
      <point x="533" y="171" type="curve" smooth="yes"/>
      <point x="468" y="144"/>
      <point x="441" y="122"/>
      <point x="441" y="74" type="curve" smooth="yes"/>
      <point x="441" y="33"/>
      <point x="471" y="9"/>
      <point x="508" y="-4" type="curve"/>
      <point x="483" y="47" type="line"/>
      <point x="479" y="47"/>
      <point x="475" y="47"/>
      <point x="471" y="47" type="curve"/>
      <point x="393" y="47"/>
      <point x="347" y="98"/>
      <point x="347" y="166" type="curve" smooth="yes"/>
      <point x="347" y="260"/>
      <point x="438" y="314"/>
      <point x="438" y="424" type="curve" smooth="yes"/>
      <point x="438" y="526"/>
      <point x="361" y="594"/>
      <point x="249" y="594" type="curve" smooth="yes"/>
      <point x="132" y="594"/>
      <point x="53" y="524"/>
      <point x="53" y="417" type="curve" smooth="yes"/>
      <point x="53" y="368"/>
      <point x="73" y="312"/>
      <point x="114" y="276" type="curve"/>
      <point x="176" y="325" type="line"/>
      <point x="154" y="347"/>
      <point x="137" y="383"/>
      <point x="137" y="420" type="curve" smooth="yes"/>
      <point x="137" y="485"/>
      <point x="181" y="525"/>
      <point x="247" y="525" type="curve" smooth="yes"/>
      <point x="313" y="525"/>
      <point x="353" y="482"/>
      <point x="353" y="418" type="curve" smooth="yes"/>
      <point x="353" y="328"/>
      <point x="262" y="271"/>
      <point x="262" y="169" type="curve" smooth="yes"/>
      <point x="262" y="59"/>
      <point x="347" y="-17"/>
      <point x="474" y="-17" type="curve" smooth="yes"/>
      <point x="492" y="-17"/>
      <point x="511" y="-17"/>
      <point x="526" y="-16" type="curve"/>
      <point x="544" y="28" type="line"/>
      <point x="519" y="46"/>
      <point x="507" y="60"/>
      <point x="507" y="77" type="curve" smooth="yes"/>
      <point x="507" y="101"/>
      <point x="522" y="112"/>
      <point x="577" y="135" type="curve" smooth="yes"/>
      <point x="638" y="160"/>
      <point x="677" y="189"/>
      <point x="677" y="262" type="curve" smooth="yes"/>
      <point x="677" y="320"/>
      <point x="631" y="363"/>
      <point x="567" y="363" type="curve" smooth="yes"/>
      <point x="508" y="363"/>
      <point x="472" y="327"/>
      <point x="472" y="284" type="curve" smooth="yes"/>
      <point x="472" y="234"/>
      <point x="526" y="194"/>
      <point x="610" y="194" type="curve" smooth="yes"/>
      <point x="704" y="194"/>
      <point x="776" y="254"/>
      <point x="776" y="349" type="curve" smooth="yes"/>
      <point x="776" y="506"/>
      <point x="593" y="569"/>
      <point x="593" y="691" type="curve" smooth="yes"/>
      <point x="593" y="748"/>
      <point x="636" y="785"/>
      <point x="700" y="785" type="curve" smooth="yes"/>
      <point x="765" y="785"/>
      <point x="808" y="750"/>
      <point x="808" y="691" type="curve" smooth="yes"/>
      <point x="808" y="664"/>
      <point x="797" y="642"/>
      <point x="781" y="624" type="curve"/>
      <point x="837" y="576" type="line"/>
      <point x="871" y="606"/>
      <point x="890" y="649"/>
    </contour>
  </outline>
</glyph>
<glyph name="ai_cham" format="2">
  <advance width="938"/>
  <unicode hex="AA04"/>
  <outline>
    <contour>
      <point x="858" y="345" type="curve" smooth="yes"/>
      <point x="858" y="496"/>
      <point x="779" y="594"/>
      <point x="669" y="594" type="curve" smooth="yes"/>
      <point x="553" y="594"/>
      <point x="530" y="513"/>
      <point x="470" y="513" type="curve" smooth="yes"/>
      <point x="410" y="513"/>
      <point x="385" y="594"/>
      <point x="271" y="594" type="curve" smooth="yes"/>
      <point x="157" y="594"/>
      <point x="80" y="487"/>
      <point x="80" y="314" type="curve" smooth="yes"/>
      <point x="80" y="118"/>
      <point x="177" y="-1"/>
      <point x="309" y="-1" type="curve" smooth="yes"/>
      <point x="382" y="-1"/>
      <point x="427" y="41"/>
      <point x="427" y="100" type="curve" smooth="yes"/>
      <point x="427" y="161"/>
      <point x="381" y="200"/>
      <point x="317" y="200" type="curve" smooth="yes"/>
      <point x="245" y="200"/>
      <point x="196" y="147"/>
      <point x="183" y="66" type="curve"/>
      <point x="235" y="66" type="line"/>
      <point x="243" y="111"/>
      <point x="270" y="149"/>
      <point x="316" y="149" type="curve" smooth="yes"/>
      <point x="346" y="149"/>
      <point x="370" y="134"/>
      <point x="370" y="101" type="curve" smooth="yes"/>
      <point x="370" y="72"/>
      <point x="349" y="53"/>
      <point x="314" y="53" type="curve" smooth="yes"/>
      <point x="232" y="53"/>
      <point x="166" y="144"/>
      <point x="166" y="314" type="curve" smooth="yes"/>
      <point x="166" y="443"/>
      <point x="218" y="518"/>
      <point x="287" y="518" type="curve" smooth="yes"/>
      <point x="369" y="518"/>
      <point x="381" y="437"/>
      <point x="470" y="437" type="curve" smooth="yes"/>
      <point x="559" y="437"/>
      <point x="571" y="518"/>
      <point x="653" y="518" type="curve" smooth="yes"/>
      <point x="717" y="518"/>
      <point x="772" y="452"/>
      <point x="772" y="345" type="curve" smooth="yes"/>
      <point x="772" y="169"/>
      <point x="693" y="74"/>
      <point x="495" y="-23" type="curve" smooth="yes"/>
      <point x="403" y="-68"/>
      <point x="347" y="-116"/>
      <point x="347" y="-186" type="curve" smooth="yes"/>
      <point x="347" y="-257"/>
      <point x="410" y="-299"/>
      <point x="504" y="-299" type="curve" smooth="yes"/>
      <point x="603" y="-299"/>
      <point x="662" y="-243"/>
      <point x="662" y="-159" type="curve"/>
      <point x="582" y="-159" type="line"/>
      <point x="582" y="-207"/>
      <point x="561" y="-236"/>
      <point x="507" y="-236" type="curve" smooth="yes"/>
      <point x="458" y="-236"/>
      <point x="431" y="-215"/>
      <point x="431" y="-184" type="curve" smooth="yes"/>
      <point x="431" y="-152"/>
      <point x="459" y="-124"/>
      <point x="552" y="-80" type="curve" smooth="yes"/>
      <point x="766" y="21"/>
      <point x="858" y="146"/>
    </contour>
  </outline>
</glyph>
<glyph name="o_cham" format="2">
  <advance width="588"/>
  <unicode hex="AA05"/>
  <outline>
    <contour>
      <point x="519" y="397" type="curve" smooth="yes"/>
      <point x="519" y="520"/>
      <point x="424" y="594"/>
      <point x="283" y="594" type="curve" smooth="yes"/>
      <point x="145" y="594"/>
      <point x="54" y="514"/>
      <point x="54" y="394" type="curve" smooth="yes"/>
      <point x="54" y="292"/>
      <point x="121" y="222"/>
      <point x="206" y="222" type="curve" smooth="yes"/>
      <point x="260" y="222"/>
      <point x="296" y="254"/>
      <point x="296" y="301" type="curve" smooth="yes"/>
      <point x="296" y="346"/>
      <point x="263" y="376"/>
      <point x="217" y="376" type="curve" smooth="yes"/>
      <point x="168" y="376"/>
      <point x="133" y="342"/>
      <point x="119" y="292" type="curve"/>
      <point x="153" y="261" type="line"/>
      <point x="159" y="306"/>
      <point x="180" y="336"/>
      <point x="214" y="336" type="curve" smooth="yes"/>
      <point x="235" y="336"/>
      <point x="253" y="325"/>
      <point x="253" y="301" type="curve" smooth="yes"/>
      <point x="253" y="279"/>
      <point x="238" y="263"/>
      <point x="212" y="263" type="curve" smooth="yes"/>
      <point x="162" y="263"/>
      <point x="128" y="311"/>
      <point x="128" y="385" type="curve" smooth="yes"/>
      <point x="128" y="468"/>
      <point x="186" y="525"/>
      <point x="280" y="525" type="curve" smooth="yes"/>
      <point x="371" y="525"/>
      <point x="433" y="476"/>
      <point x="433" y="387" type="curve" smooth="yes"/>
      <point x="433" y="336"/>
      <point x="410" y="280"/>
      <point x="351" y="256" type="curve"/>
      <point x="351" y="220" type="line"/>
      <point x="408" y="196"/>
      <point x="438" y="158"/>
      <point x="438" y="113" type="curve" smooth="yes"/>
      <point x="438" y="61"/>
      <point x="403" y="28"/>
      <point x="344" y="28" type="curve" smooth="yes"/>
      <point x="288" y="28"/>
      <point x="264" y="41"/>
      <point x="264" y="64" type="curve" smooth="yes"/>
      <point x="264" y="81"/>
      <point x="277" y="93"/>
      <point x="302" y="93" type="curve" smooth="yes"/>
      <point x="335" y="93"/>
      <point x="351" y="74"/>
      <point x="351" y="41" type="curve" smooth="yes"/>
      <point x="351" y="30"/>
      <point x="349" y="16"/>
      <point x="345" y="3" type="curve"/>
      <point x="393" y="11" type="line"/>
      <point x="395" y="21"/>
      <point x="396" y="32"/>
      <point x="396" y="40" type="curve" smooth="yes"/>
      <point x="396" y="92"/>
      <point x="363" y="136"/>
      <point x="299" y="136" type="curve" smooth="yes"/>
      <point x="248" y="136"/>
      <point x="213" y="106"/>
      <point x="213" y="64" type="curve" smooth="yes"/>
      <point x="213" y="15"/>
      <point x="264" y="-18"/>
      <point x="350" y="-18" type="curve" smooth="yes"/>
      <point x="458" y="-18"/>
      <point x="509" y="44"/>
      <point x="509" y="114" type="curve" smooth="yes"/>
      <point x="509" y="167"/>
      <point x="480" y="219"/>
      <point x="399" y="251" type="curve"/>
      <point x="399" y="218" type="line"/>
      <point x="485" y="252"/>
      <point x="519" y="331"/>
    </contour>
  </outline>
</glyph>
<glyph name="ka_cham" format="2">
  <advance width="855"/>
  <unicode hex="AA06"/>
  <note>
uniAA06
</note>
  <outline>
    <contour>
      <point x="802" y="417" type="curve" smooth="yes"/>
      <point x="802" y="523"/>
      <point x="729" y="594"/>
      <point x="620" y="594" type="curve" smooth="yes"/>
      <point x="507" y="594"/>
      <point x="427" y="518"/>
      <point x="427" y="390" type="curve"/>
      <point x="481" y="390" type="line"/>
      <point x="481" y="518"/>
      <point x="400" y="594"/>
      <point x="289" y="594" type="curve" smooth="yes"/>
      <point x="182" y="594"/>
      <point x="108" y="524"/>
      <point x="108" y="424" type="curve" smooth="yes"/>
      <point x="108" y="330"/>
      <point x="170" y="255"/>
      <point x="170" y="173" type="curve" smooth="yes"/>
      <point x="170" y="93"/>
      <point x="123" y="42"/>
      <point x="48" y="27" type="curve"/>
      <point x="64" y="-45" type="line"/>
      <point x="183" y="-25"/>
      <point x="255" y="56"/>
      <point x="255" y="168" type="curve" smooth="yes"/>
      <point x="255" y="267"/>
      <point x="193" y="344"/>
      <point x="193" y="420" type="curve" smooth="yes"/>
      <point x="193" y="483"/>
      <point x="235" y="525"/>
      <point x="302" y="525" type="curve" smooth="yes"/>
      <point x="371" y="525"/>
      <point x="420" y="477"/>
      <point x="417" y="379" type="curve"/>
      <point x="491" y="379" type="line"/>
      <point x="489" y="478"/>
      <point x="541" y="525"/>
      <point x="609" y="525" type="curve" smooth="yes"/>
      <point x="677" y="525"/>
      <point x="718" y="484"/>
      <point x="718" y="418" type="curve" smooth="yes"/>
      <point x="718" y="380"/>
      <point x="705" y="347"/>
      <point x="680" y="320" type="curve"/>
      <point x="743" y="274" type="line"/>
      <point x="785" y="318"/>
      <point x="802" y="363"/>
    </contour>
  </outline>
</glyph>
<glyph name="kha_cham" format="2">
  <advance width="1309"/>
  <unicode hex="AA07"/>
  <note>
uniAA07
</note>
  <outline>
    <contour>
      <point x="1256" y="417" type="curve" smooth="yes"/>
      <point x="1256" y="523"/>
      <point x="1184" y="594"/>
      <point x="1072" y="594" type="curve" smooth="yes"/>
      <point x="979" y="594"/>
      <point x="909" y="550"/>
      <point x="891" y="449" type="curve" smooth="yes"/>
      <point x="872" y="344"/>
      <point x="835" y="330"/>
      <point x="725" y="312" type="curve" smooth="yes"/>
      <point x="579" y="288"/>
      <point x="485" y="218"/>
      <point x="485" y="112" type="curve" smooth="yes"/>
      <point x="485" y="31"/>
      <point x="537" y="-17"/>
      <point x="618" y="-17" type="curve" smooth="yes"/>
      <point x="737" y="-17"/>
      <point x="816" y="111"/>
      <point x="816" y="306" type="curve" smooth="yes"/>
      <point x="816" y="491"/>
      <point x="741" y="594"/>
      <point x="618" y="594" type="curve" smooth="yes"/>
      <point x="508" y="594"/>
      <point x="430" y="518"/>
      <point x="430" y="389" type="curve"/>
      <point x="481" y="389" type="line"/>
      <point x="481" y="517"/>
      <point x="402" y="594"/>
      <point x="289" y="594" type="curve" smooth="yes"/>
      <point x="181" y="594"/>
      <point x="108" y="524"/>
      <point x="108" y="424" type="curve" smooth="yes"/>
      <point x="108" y="330"/>
      <point x="170" y="255"/>
      <point x="170" y="173" type="curve" smooth="yes"/>
      <point x="170" y="93"/>
      <point x="123" y="42"/>
      <point x="48" y="27" type="curve"/>
      <point x="64" y="-45" type="line"/>
      <point x="183" y="-25"/>
      <point x="256" y="56"/>
      <point x="256" y="168" type="curve" smooth="yes"/>
      <point x="256" y="267"/>
      <point x="194" y="344"/>
      <point x="194" y="420" type="curve" smooth="yes"/>
      <point x="194" y="483"/>
      <point x="235" y="525"/>
      <point x="302" y="525" type="curve" smooth="yes"/>
      <point x="372" y="525"/>
      <point x="421" y="477"/>
      <point x="418" y="379" type="curve"/>
      <point x="493" y="379" type="line"/>
      <point x="490" y="480"/>
      <point x="542" y="525"/>
      <point x="607" y="525" type="curve" smooth="yes"/>
      <point x="688" y="525"/>
      <point x="732" y="451"/>
      <point x="732" y="307" type="curve" smooth="yes"/>
      <point x="732" y="148"/>
      <point x="686" y="51"/>
      <point x="618" y="51" type="curve" smooth="yes"/>
      <point x="585" y="51"/>
      <point x="568" y="78"/>
      <point x="568" y="115" type="curve" smooth="yes"/>
      <point x="568" y="175"/>
      <point x="615" y="228"/>
      <point x="763" y="255" type="curve" smooth="yes"/>
      <point x="898" y="280"/>
      <point x="944" y="307"/>
      <point x="963" y="418" type="curve" smooth="yes"/>
      <point x="975" y="487"/>
      <point x="1009" y="525"/>
      <point x="1065" y="525" type="curve" smooth="yes"/>
      <point x="1132" y="525"/>
      <point x="1172" y="484"/>
      <point x="1172" y="418" type="curve" smooth="yes"/>
      <point x="1172" y="380"/>
      <point x="1160" y="347"/>
      <point x="1134" y="320" type="curve"/>
      <point x="1198" y="274" type="line"/>
      <point x="1239" y="318"/>
      <point x="1256" y="363"/>
    </contour>
  </outline>
</glyph>
<glyph name="ga_cham" format="2">
  <advance width="879"/>
  <unicode hex="AA08"/>
  <note>
uniAA08
</note>
  <outline>
    <contour>
      <point x="826" y="418" type="curve" smooth="yes"/>
      <point x="826" y="523"/>
      <point x="753" y="594"/>
      <point x="640" y="594" type="curve" smooth="yes"/>
      <point x="523" y="594"/>
      <point x="443" y="514"/>
      <point x="444" y="386" type="curve"/>
      <point x="498" y="386" type="line"/>
      <point x="498" y="513"/>
      <point x="422" y="594"/>
      <point x="305" y="594" type="curve" smooth="yes"/>
      <point x="166" y="594"/>
      <point x="80" y="485"/>
      <point x="80" y="308" type="curve" smooth="yes"/>
      <point x="80" y="105"/>
      <point x="190" y="-19"/>
      <point x="339" y="-19" type="curve" smooth="yes"/>
      <point x="412" y="-19"/>
      <point x="457" y="23"/>
      <point x="457" y="82" type="curve" smooth="yes"/>
      <point x="457" y="143"/>
      <point x="411" y="182"/>
      <point x="347" y="182" type="curve" smooth="yes"/>
      <point x="275" y="182"/>
      <point x="226" y="129"/>
      <point x="213" y="48" type="curve"/>
      <point x="265" y="48" type="line"/>
      <point x="273" y="93"/>
      <point x="300" y="131"/>
      <point x="346" y="131" type="curve" smooth="yes"/>
      <point x="376" y="131"/>
      <point x="400" y="116"/>
      <point x="400" y="83" type="curve" smooth="yes"/>
      <point x="400" y="54"/>
      <point x="379" y="35"/>
      <point x="344" y="35" type="curve" smooth="yes"/>
      <point x="245" y="35"/>
      <point x="166" y="130"/>
      <point x="166" y="309" type="curve" smooth="yes"/>
      <point x="166" y="445"/>
      <point x="222" y="525"/>
      <point x="312" y="525" type="curve" smooth="yes"/>
      <point x="386" y="525"/>
      <point x="437" y="473"/>
      <point x="434" y="377" type="curve"/>
      <point x="508" y="377" type="line"/>
      <point x="506" y="474"/>
      <point x="556" y="525"/>
      <point x="630" y="525" type="curve" smooth="yes"/>
      <point x="699" y="525"/>
      <point x="743" y="483"/>
      <point x="743" y="418" type="curve" smooth="yes"/>
      <point x="743" y="379"/>
      <point x="729" y="347"/>
      <point x="704" y="318" type="curve"/>
      <point x="768" y="273" type="line"/>
      <point x="808" y="320"/>
      <point x="826" y="364"/>
    </contour>
  </outline>
</glyph>
<glyph name="gha_cham" format="2">
  <advance width="1356"/>
  <unicode hex="AA09"/>
  <note>
uniAA09
</note>
  <outline>
    <contour>
      <point x="1303" y="418" type="curve" smooth="yes"/>
      <point x="1303" y="523"/>
      <point x="1230" y="594"/>
      <point x="1119" y="594" type="curve" smooth="yes"/>
      <point x="1008" y="594"/>
      <point x="930" y="517"/>
      <point x="930" y="389" type="curve"/>
      <point x="981" y="389" type="line"/>
      <point x="982" y="517"/>
      <point x="903" y="594"/>
      <point x="790" y="594" type="curve" smooth="yes"/>
      <point x="680" y="594"/>
      <point x="611" y="531"/>
      <point x="611" y="439" type="curve" smooth="yes"/>
      <point x="611" y="403"/>
      <point x="624" y="368"/>
      <point x="624" y="346" type="curve" smooth="yes"/>
      <point x="624" y="236"/>
      <point x="468" y="241"/>
      <point x="468" y="122" type="curve" smooth="yes"/>
      <point x="468" y="89"/>
      <point x="475" y="67"/>
      <point x="503" y="39" type="curve"/>
      <point x="503" y="52" type="line"/>
      <point x="497" y="52"/>
      <point x="490" y="52"/>
      <point x="484" y="52" type="curve" smooth="yes"/>
      <point x="416" y="52"/>
      <point x="373" y="101"/>
      <point x="373" y="170" type="curve" smooth="yes"/>
      <point x="373" y="251"/>
      <point x="439" y="319"/>
      <point x="439" y="417" type="curve" smooth="yes"/>
      <point x="439" y="526"/>
      <point x="361" y="594"/>
      <point x="249" y="594" type="curve" smooth="yes"/>
      <point x="132" y="594"/>
      <point x="53" y="525"/>
      <point x="53" y="419" type="curve" smooth="yes"/>
      <point x="53" y="368"/>
      <point x="74" y="316"/>
      <point x="116" y="276" type="curve"/>
      <point x="178" y="324" type="line"/>
      <point x="154" y="349"/>
      <point x="137" y="384"/>
      <point x="137" y="421" type="curve" smooth="yes"/>
      <point x="137" y="486"/>
      <point x="181" y="525"/>
      <point x="248" y="525" type="curve" smooth="yes"/>
      <point x="314" y="525"/>
      <point x="353" y="481"/>
      <point x="353" y="414" type="curve" smooth="yes"/>
      <point x="353" y="329"/>
      <point x="287" y="262"/>
      <point x="287" y="170" type="curve" smooth="yes"/>
      <point x="287" y="61"/>
      <point x="370" y="-17"/>
      <point x="499" y="-17" type="curve" smooth="yes"/>
      <point x="523" y="-17"/>
      <point x="547" y="-17"/>
      <point x="564" y="-16" type="curve"/>
      <point x="586" y="37" type="line"/>
      <point x="562" y="65"/>
      <point x="551" y="82"/>
      <point x="551" y="111" type="curve" smooth="yes"/>
      <point x="551" y="204"/>
      <point x="710" y="199"/>
      <point x="710" y="335" type="curve" smooth="yes"/>
      <point x="710" y="367"/>
      <point x="697" y="396"/>
      <point x="697" y="428" type="curve" smooth="yes"/>
      <point x="697" y="487"/>
      <point x="736" y="525"/>
      <point x="803" y="525" type="curve" smooth="yes"/>
      <point x="873" y="525"/>
      <point x="921" y="477"/>
      <point x="919" y="379" type="curve"/>
      <point x="993" y="379" type="line"/>
      <point x="990" y="479"/>
      <point x="1042" y="525"/>
      <point x="1109" y="525" type="curve" smooth="yes"/>
      <point x="1177" y="525"/>
      <point x="1218" y="483"/>
      <point x="1218" y="418" type="curve" smooth="yes"/>
      <point x="1218" y="379"/>
      <point x="1206" y="347"/>
      <point x="1180" y="320" type="curve"/>
      <point x="1244" y="273" type="line"/>
      <point x="1286" y="318"/>
      <point x="1303" y="363"/>
    </contour>
  </outline>
</glyph>
<glyph name="ngue_cham" format="2">
  <advance width="1076"/>
  <unicode hex="AA0A"/>
  <note>
uniAA0A
</note>
  <outline>
    <contour>
      <point x="1023" y="400" type="curve" smooth="yes"/>
      <point x="1023" y="516"/>
      <point x="935" y="594"/>
      <point x="808" y="594" type="curve" smooth="yes"/>
      <point x="679" y="594"/>
      <point x="592" y="516"/>
      <point x="592" y="401" type="curve" smooth="yes"/>
      <point x="592" y="301"/>
      <point x="660" y="229"/>
      <point x="749" y="229" type="curve" smooth="yes"/>
      <point x="808" y="229"/>
      <point x="844" y="263"/>
      <point x="844" y="314" type="curve" smooth="yes"/>
      <point x="844" y="362"/>
      <point x="810" y="393"/>
      <point x="756" y="393" type="curve" smooth="yes"/>
      <point x="682" y="393"/>
      <point x="637" y="353"/>
      <point x="634" y="284" type="curve" smooth="yes"/>
      <point x="632" y="251"/>
      <point x="633" y="217"/>
      <point x="631" y="195" type="curve" smooth="yes"/>
      <point x="621" y="100"/>
      <point x="556" y="64"/>
      <point x="420" y="43" type="curve"/>
      <point x="404" y="-18" type="line"/>
      <point x="475" y="41"/>
      <point x="507" y="107"/>
      <point x="507" y="175" type="curve" smooth="yes"/>
      <point x="507" y="262"/>
      <point x="442" y="316"/>
      <point x="357" y="316" type="curve" smooth="yes"/>
      <point x="340" y="316"/>
      <point x="322" y="313"/>
      <point x="304" y="309" type="curve"/>
      <point x="325" y="264" type="line"/>
      <point x="399" y="291"/>
      <point x="441" y="357"/>
      <point x="441" y="426" type="curve" smooth="yes"/>
      <point x="441" y="527"/>
      <point x="360" y="594"/>
      <point x="248" y="594" type="curve" smooth="yes"/>
      <point x="132" y="594"/>
      <point x="53" y="524"/>
      <point x="53" y="420" type="curve" smooth="yes"/>
      <point x="53" y="368"/>
      <point x="74" y="315"/>
      <point x="117" y="275" type="curve"/>
      <point x="180" y="323" type="line"/>
      <point x="154" y="347"/>
      <point x="137" y="383"/>
      <point x="137" y="421" type="curve" smooth="yes"/>
      <point x="137" y="485"/>
      <point x="181" y="525"/>
      <point x="247" y="525" type="curve" smooth="yes"/>
      <point x="313" y="525"/>
      <point x="355" y="482"/>
      <point x="355" y="422" type="curve" smooth="yes"/>
      <point x="355" y="371"/>
      <point x="325" y="325"/>
      <point x="271" y="302" type="curve"/>
      <point x="286" y="252" type="line"/>
      <point x="301" y="256"/>
      <point x="317" y="259"/>
      <point x="331" y="259" type="curve" smooth="yes"/>
      <point x="383" y="259"/>
      <point x="421" y="224"/>
      <point x="421" y="162" type="curve" smooth="yes"/>
      <point x="421" y="109"/>
      <point x="399" y="65"/>
      <point x="350" y="5" type="curve"/>
      <point x="370" y="-46" type="line"/>
      <point x="614" y="-5"/>
      <point x="702" y="49"/>
      <point x="709" y="199" type="curve" smooth="yes"/>
      <point x="710" y="228"/>
      <point x="703" y="265"/>
      <point x="705" y="291" type="curve" smooth="yes"/>
      <point x="707" y="326"/>
      <point x="728" y="347"/>
      <point x="756" y="347" type="curve" smooth="yes"/>
      <point x="779" y="347"/>
      <point x="795" y="335"/>
      <point x="795" y="313" type="curve" smooth="yes"/>
      <point x="795" y="290"/>
      <point x="779" y="275"/>
      <point x="755" y="275" type="curve" smooth="yes"/>
      <point x="708" y="275"/>
      <point x="672" y="321"/>
      <point x="672" y="397" type="curve" smooth="yes"/>
      <point x="672" y="478"/>
      <point x="722" y="525"/>
      <point x="803" y="525" type="curve" smooth="yes"/>
      <point x="884" y="525"/>
      <point x="939" y="478"/>
      <point x="939" y="402" type="curve" smooth="yes"/>
      <point x="939" y="358"/>
      <point x="919" y="317"/>
      <point x="889" y="289" type="curve"/>
      <point x="951" y="241" type="line"/>
      <point x="999" y="286"/>
      <point x="1023" y="344"/>
    </contour>
  </outline>
</glyph>
<glyph name="nga_cham" format="2">
  <advance width="1078"/>
  <unicode hex="AA0B"/>
  <note>
uniAA0B
</note>
  <outline>
    <contour>
      <point x="1025" y="400" type="curve" smooth="yes"/>
      <point x="1025" y="516"/>
      <point x="937" y="594"/>
      <point x="810" y="594" type="curve" smooth="yes"/>
      <point x="681" y="594"/>
      <point x="594" y="516"/>
      <point x="594" y="401" type="curve" smooth="yes"/>
      <point x="594" y="301"/>
      <point x="663" y="228"/>
      <point x="755" y="228" type="curve" smooth="yes"/>
      <point x="815" y="228"/>
      <point x="852" y="262"/>
      <point x="852" y="314" type="curve" smooth="yes"/>
      <point x="852" y="363"/>
      <point x="817" y="395"/>
      <point x="762" y="395" type="curve" smooth="yes"/>
      <point x="686" y="395"/>
      <point x="641" y="354"/>
      <point x="637" y="284" type="curve" smooth="yes"/>
      <point x="636" y="267"/>
      <point x="633" y="246"/>
      <point x="633" y="231" type="curve" smooth="yes"/>
      <point x="633" y="141"/>
      <point x="624" y="103"/>
      <point x="580" y="79" type="curve" smooth="yes"/>
      <point x="544" y="60"/>
      <point x="478" y="44"/>
      <point x="425" y="24" type="curve"/>
      <point x="420" y="-4" type="line"/>
      <point x="481" y="42"/>
      <point x="507" y="116"/>
      <point x="507" y="176" type="curve" smooth="yes"/>
      <point x="507" y="262"/>
      <point x="443" y="315"/>
      <point x="357" y="315" type="curve" smooth="yes"/>
      <point x="340" y="315"/>
      <point x="322" y="313"/>
      <point x="304" y="309" type="curve"/>
      <point x="325" y="264" type="line"/>
      <point x="399" y="291"/>
      <point x="441" y="357"/>
      <point x="441" y="426" type="curve" smooth="yes"/>
      <point x="441" y="527"/>
      <point x="360" y="594"/>
      <point x="248" y="594" type="curve" smooth="yes"/>
      <point x="132" y="594"/>
      <point x="53" y="524"/>
      <point x="53" y="420" type="curve" smooth="yes"/>
      <point x="53" y="368"/>
      <point x="74" y="315"/>
      <point x="117" y="275" type="curve"/>
      <point x="180" y="323" type="line"/>
      <point x="154" y="347"/>
      <point x="137" y="383"/>
      <point x="137" y="421" type="curve" smooth="yes"/>
      <point x="137" y="485"/>
      <point x="181" y="525"/>
      <point x="247" y="525" type="curve" smooth="yes"/>
      <point x="313" y="525"/>
      <point x="355" y="482"/>
      <point x="355" y="422" type="curve" smooth="yes"/>
      <point x="355" y="370"/>
      <point x="325" y="325"/>
      <point x="271" y="302" type="curve"/>
      <point x="286" y="252" type="line"/>
      <point x="301" y="256"/>
      <point x="317" y="259"/>
      <point x="331" y="259" type="curve" smooth="yes"/>
      <point x="383" y="259"/>
      <point x="421" y="224"/>
      <point x="421" y="162" type="curve" smooth="yes"/>
      <point x="421" y="101"/>
      <point x="399" y="35"/>
      <point x="327" y="-23" type="curve" smooth="yes"/>
      <point x="259" y="-78"/>
      <point x="226" y="-124"/>
      <point x="226" y="-183" type="curve" smooth="yes"/>
      <point x="226" y="-251"/>
      <point x="280" y="-299"/>
      <point x="345" y="-299" type="curve" smooth="yes"/>
      <point x="467" y="-299"/>
      <point x="485" y="-149"/>
      <point x="549" y="-149" type="curve" smooth="yes"/>
      <point x="571" y="-149"/>
      <point x="584" y="-162"/>
      <point x="584" y="-183" type="curve" smooth="yes"/>
      <point x="584" y="-195"/>
      <point x="579" y="-209"/>
      <point x="570" y="-222" type="curve"/>
      <point x="638" y="-253" type="line"/>
      <point x="656" y="-228"/>
      <point x="665" y="-195"/>
      <point x="665" y="-172" type="curve" smooth="yes"/>
      <point x="665" y="-119"/>
      <point x="622" y="-76"/>
      <point x="564" y="-76" type="curve" smooth="yes"/>
      <point x="442" y="-76"/>
      <point x="424" y="-224"/>
      <point x="356" y="-224" type="curve" smooth="yes"/>
      <point x="327" y="-224"/>
      <point x="310" y="-197"/>
      <point x="310" y="-172" type="curve" smooth="yes"/>
      <point x="310" y="-143"/>
      <point x="328" y="-101"/>
      <point x="395" y="-64" type="curve" smooth="yes"/>
      <point x="468" y="-24"/>
      <point x="542" y="-19"/>
      <point x="606" y="8" type="curve" smooth="yes"/>
      <point x="681" y="39"/>
      <point x="706" y="87"/>
      <point x="710" y="210" type="curve" smooth="yes"/>
      <point x="711" y="241"/>
      <point x="710" y="267"/>
      <point x="711" y="291" type="curve" smooth="yes"/>
      <point x="713" y="326"/>
      <point x="733" y="347"/>
      <point x="762" y="347" type="curve" smooth="yes"/>
      <point x="785" y="347"/>
      <point x="801" y="335"/>
      <point x="801" y="313" type="curve" smooth="yes"/>
      <point x="801" y="291"/>
      <point x="785" y="276"/>
      <point x="761" y="276" type="curve" smooth="yes"/>
      <point x="713" y="276"/>
      <point x="676" y="321"/>
      <point x="676" y="397" type="curve" smooth="yes"/>
      <point x="676" y="478"/>
      <point x="728" y="525"/>
      <point x="805" y="525" type="curve" smooth="yes"/>
      <point x="886" y="525"/>
      <point x="941" y="478"/>
      <point x="941" y="402" type="curve" smooth="yes"/>
      <point x="941" y="358"/>
      <point x="921" y="317"/>
      <point x="891" y="289" type="curve"/>
      <point x="953" y="241" type="line"/>
      <point x="1001" y="286"/>
      <point x="1025" y="344"/>
    </contour>
  </outline>
</glyph>
<glyph name="cha_cham" format="2">
  <advance width="981"/>
  <unicode hex="AA0C"/>
  <note>
uniAA0C
</note>
  <outline>
    <contour>
      <point x="928" y="417" type="curve" smooth="yes"/>
      <point x="928" y="523"/>
      <point x="855" y="594"/>
      <point x="744" y="594" type="curve" smooth="yes"/>
      <point x="650" y="594"/>
      <point x="580" y="550"/>
      <point x="562" y="449" type="curve" smooth="yes"/>
      <point x="543" y="344"/>
      <point x="506" y="330"/>
      <point x="396" y="312" type="curve" smooth="yes"/>
      <point x="250" y="288"/>
      <point x="156" y="218"/>
      <point x="156" y="112" type="curve" smooth="yes"/>
      <point x="156" y="31"/>
      <point x="208" y="-17"/>
      <point x="289" y="-17" type="curve" smooth="yes"/>
      <point x="408" y="-17"/>
      <point x="487" y="103"/>
      <point x="487" y="286" type="curve" smooth="yes"/>
      <point x="487" y="481"/>
      <point x="393" y="594"/>
      <point x="249" y="594" type="curve" smooth="yes"/>
      <point x="132" y="594"/>
      <point x="61" y="527"/>
      <point x="61" y="435" type="curve" smooth="yes"/>
      <point x="61" y="379"/>
      <point x="84" y="332"/>
      <point x="118" y="302" type="curve"/>
      <point x="174" y="347" type="line"/>
      <point x="156" y="367"/>
      <point x="142" y="395"/>
      <point x="142" y="429" type="curve" smooth="yes"/>
      <point x="142" y="487"/>
      <point x="183" y="525"/>
      <point x="251" y="525" type="curve" smooth="yes"/>
      <point x="344" y="525"/>
      <point x="403" y="442"/>
      <point x="403" y="290" type="curve" smooth="yes"/>
      <point x="403" y="142"/>
      <point x="357" y="51"/>
      <point x="289" y="51" type="curve" smooth="yes"/>
      <point x="256" y="51"/>
      <point x="239" y="78"/>
      <point x="239" y="115" type="curve" smooth="yes"/>
      <point x="239" y="175"/>
      <point x="286" y="228"/>
      <point x="434" y="255" type="curve" smooth="yes"/>
      <point x="569" y="280"/>
      <point x="616" y="307"/>
      <point x="634" y="418" type="curve" smooth="yes"/>
      <point x="645" y="487"/>
      <point x="680" y="525"/>
      <point x="739" y="525" type="curve" smooth="yes"/>
      <point x="805" y="525"/>
      <point x="844" y="484"/>
      <point x="844" y="418" type="curve" smooth="yes"/>
      <point x="844" y="380"/>
      <point x="831" y="347"/>
      <point x="806" y="320" type="curve"/>
      <point x="869" y="274" type="line"/>
      <point x="911" y="318"/>
      <point x="928" y="363"/>
    </contour>
  </outline>
</glyph>
<glyph name="chha_cham" format="2">
  <advance width="1575"/>
  <unicode hex="AA0D"/>
  <note>
uniAA0D
</note>
  <outline>
    <contour>
      <point x="1522" y="421" type="curve" smooth="yes"/>
      <point x="1522" y="525"/>
      <point x="1447" y="594"/>
      <point x="1333" y="594" type="curve" smooth="yes"/>
      <point x="1219" y="594"/>
      <point x="1146" y="533"/>
      <point x="1146" y="442" type="curve" smooth="yes"/>
      <point x="1146" y="377"/>
      <point x="1184" y="321"/>
      <point x="1184" y="274" type="curve" smooth="yes"/>
      <point x="1184" y="224"/>
      <point x="1144" y="189"/>
      <point x="1095" y="189" type="curve" smooth="yes"/>
      <point x="1050" y="189"/>
      <point x="1020" y="208"/>
      <point x="1020" y="237" type="curve" smooth="yes"/>
      <point x="1020" y="259"/>
      <point x="1036" y="270"/>
      <point x="1057" y="270" type="curve" smooth="yes"/>
      <point x="1095" y="270"/>
      <point x="1116" y="238"/>
      <point x="1116" y="181" type="curve" smooth="yes"/>
      <point x="1116" y="95"/>
      <point x="1066" y="50"/>
      <point x="986" y="50" type="curve" smooth="yes"/>
      <point x="902" y="50"/>
      <point x="852" y="102"/>
      <point x="852" y="175" type="curve" smooth="yes"/>
      <point x="852" y="252"/>
      <point x="930" y="320"/>
      <point x="930" y="422" type="curve" smooth="yes"/>
      <point x="930" y="526"/>
      <point x="854" y="594"/>
      <point x="744" y="594" type="curve"/>
      <point x="650" y="594"/>
      <point x="580" y="550"/>
      <point x="562" y="449" type="curve" smooth="yes"/>
      <point x="543" y="344"/>
      <point x="506" y="330"/>
      <point x="396" y="312" type="curve" smooth="yes"/>
      <point x="250" y="288"/>
      <point x="156" y="218"/>
      <point x="156" y="112" type="curve" smooth="yes"/>
      <point x="156" y="31"/>
      <point x="208" y="-17"/>
      <point x="289" y="-17" type="curve" smooth="yes"/>
      <point x="408" y="-17"/>
      <point x="487" y="103"/>
      <point x="487" y="286" type="curve" smooth="yes"/>
      <point x="487" y="481"/>
      <point x="394" y="594"/>
      <point x="250" y="594" type="curve" smooth="yes"/>
      <point x="132" y="594"/>
      <point x="61" y="527"/>
      <point x="61" y="435" type="curve" smooth="yes"/>
      <point x="61" y="378"/>
      <point x="85" y="332"/>
      <point x="119" y="302" type="curve"/>
      <point x="174" y="347" type="line"/>
      <point x="157" y="366"/>
      <point x="143" y="395"/>
      <point x="143" y="428" type="curve" smooth="yes"/>
      <point x="143" y="487"/>
      <point x="184" y="525"/>
      <point x="252" y="525" type="curve" smooth="yes"/>
      <point x="344" y="525"/>
      <point x="403" y="442"/>
      <point x="403" y="290" type="curve" smooth="yes"/>
      <point x="403" y="142"/>
      <point x="357" y="51"/>
      <point x="289" y="51" type="curve" smooth="yes"/>
      <point x="256" y="51"/>
      <point x="239" y="78"/>
      <point x="239" y="115" type="curve" smooth="yes"/>
      <point x="239" y="175"/>
      <point x="286" y="228"/>
      <point x="434" y="255" type="curve" smooth="yes"/>
      <point x="569" y="280"/>
      <point x="615" y="307"/>
      <point x="634" y="418" type="curve" smooth="yes"/>
      <point x="646" y="487"/>
      <point x="680" y="525"/>
      <point x="739" y="525" type="curve"/>
      <point x="807" y="525"/>
      <point x="844" y="483"/>
      <point x="844" y="415" type="curve" smooth="yes"/>
      <point x="844" y="332"/>
      <point x="766" y="263"/>
      <point x="766" y="170" type="curve" smooth="yes"/>
      <point x="766" y="59"/>
      <point x="846" y="-17"/>
      <point x="976" y="-17" type="curve" smooth="yes"/>
      <point x="1101" y="-17"/>
      <point x="1178" y="55"/>
      <point x="1178" y="177" type="curve" smooth="yes"/>
      <point x="1178" y="260"/>
      <point x="1125" y="313"/>
      <point x="1058" y="313" type="curve" smooth="yes"/>
      <point x="1007" y="313"/>
      <point x="970" y="285"/>
      <point x="970" y="236" type="curve" smooth="yes"/>
      <point x="970" y="180"/>
      <point x="1024" y="144"/>
      <point x="1101" y="144" type="curve" smooth="yes"/>
      <point x="1185" y="144"/>
      <point x="1256" y="196"/>
      <point x="1256" y="277" type="curve" smooth="yes"/>
      <point x="1256" y="327"/>
      <point x="1226" y="379"/>
      <point x="1226" y="427" type="curve" smooth="yes"/>
      <point x="1226" y="488"/>
      <point x="1267" y="525"/>
      <point x="1333" y="525" type="curve" smooth="yes"/>
      <point x="1397" y="525"/>
      <point x="1438" y="487"/>
      <point x="1438" y="421" type="curve" smooth="yes"/>
      <point x="1438" y="383"/>
      <point x="1421" y="348"/>
      <point x="1394" y="321" type="curve"/>
      <point x="1458" y="274" type="line"/>
      <point x="1501" y="319"/>
      <point x="1522" y="366"/>
    </contour>
  </outline>
</glyph>
<glyph name="ja_cham" format="2">
  <advance width="1330"/>
  <unicode hex="AA0E"/>
  <note>
uniAA0E
</note>
  <outline>
    <contour>
      <point x="1277" y="418" type="curve" smooth="yes"/>
      <point x="1277" y="523"/>
      <point x="1205" y="594"/>
      <point x="1093" y="594" type="curve" smooth="yes"/>
      <point x="982" y="594"/>
      <point x="904" y="518"/>
      <point x="904" y="390" type="curve"/>
      <point x="957" y="390" type="line"/>
      <point x="957" y="518"/>
      <point x="876" y="594"/>
      <point x="764" y="594" type="curve" smooth="yes"/>
      <point x="657" y="594"/>
      <point x="584" y="525"/>
      <point x="584" y="423" type="curve" smooth="yes"/>
      <point x="584" y="334"/>
      <point x="625" y="272"/>
      <point x="625" y="207" type="curve" smooth="yes"/>
      <point x="625" y="116"/>
      <point x="546" y="56"/>
      <point x="408" y="33" type="curve"/>
      <point x="408" y="-16" type="line"/>
      <point x="475" y="42"/>
      <point x="506" y="108"/>
      <point x="506" y="174" type="curve" smooth="yes"/>
      <point x="506" y="262"/>
      <point x="442" y="316"/>
      <point x="357" y="316" type="curve" smooth="yes"/>
      <point x="340" y="316"/>
      <point x="322" y="313"/>
      <point x="304" y="309" type="curve"/>
      <point x="326" y="264" type="line"/>
      <point x="399" y="291"/>
      <point x="441" y="357"/>
      <point x="441" y="426" type="curve" smooth="yes"/>
      <point x="441" y="527"/>
      <point x="361" y="594"/>
      <point x="248" y="594" type="curve" smooth="yes"/>
      <point x="132" y="594"/>
      <point x="53" y="524"/>
      <point x="53" y="420" type="curve" smooth="yes"/>
      <point x="53" y="368"/>
      <point x="74" y="315"/>
      <point x="118" y="275" type="curve"/>
      <point x="180" y="323" type="line"/>
      <point x="154" y="347"/>
      <point x="137" y="383"/>
      <point x="137" y="421" type="curve" smooth="yes"/>
      <point x="137" y="485"/>
      <point x="181" y="525"/>
      <point x="247" y="525" type="curve" smooth="yes"/>
      <point x="313" y="525"/>
      <point x="355" y="482"/>
      <point x="355" y="422" type="curve" smooth="yes"/>
      <point x="355" y="371"/>
      <point x="326" y="325"/>
      <point x="271" y="302" type="curve"/>
      <point x="286" y="252" type="line"/>
      <point x="302" y="256"/>
      <point x="317" y="259"/>
      <point x="331" y="259" type="curve" smooth="yes"/>
      <point x="384" y="259"/>
      <point x="422" y="224"/>
      <point x="422" y="162" type="curve" smooth="yes"/>
      <point x="422" y="107"/>
      <point x="399" y="60"/>
      <point x="351" y="1" type="curve"/>
      <point x="368" y="-44" type="line"/>
      <point x="573" y="-8"/>
      <point x="711" y="83"/>
      <point x="711" y="208" type="curve" smooth="yes"/>
      <point x="711" y="285"/>
      <point x="669" y="345"/>
      <point x="669" y="420" type="curve" smooth="yes"/>
      <point x="669" y="482"/>
      <point x="711" y="525"/>
      <point x="778" y="525" type="curve" smooth="yes"/>
      <point x="846" y="525"/>
      <point x="896" y="477"/>
      <point x="894" y="380" type="curve"/>
      <point x="967" y="380" type="line"/>
      <point x="965" y="480"/>
      <point x="1016" y="525"/>
      <point x="1084" y="525" type="curve" smooth="yes"/>
      <point x="1151" y="525"/>
      <point x="1193" y="483"/>
      <point x="1193" y="418" type="curve" smooth="yes"/>
      <point x="1193" y="379"/>
      <point x="1180" y="347"/>
      <point x="1155" y="320" type="curve"/>
      <point x="1218" y="274" type="line"/>
      <point x="1260" y="318"/>
      <point x="1277" y="363"/>
    </contour>
  </outline>
</glyph>
<glyph name="jha_cham" format="2">
  <advance width="1485"/>
  <unicode hex="AA0F"/>
  <note>
uniAA0F
</note>
  <outline>
    <contour>
      <point x="820" y="421" type="curve" smooth="yes"/>
      <point x="820" y="526"/>
      <point x="737" y="594"/>
      <point x="615" y="594" type="curve" smooth="yes"/>
      <point x="493" y="594"/>
      <point x="412" y="524"/>
      <point x="412" y="424" type="curve" smooth="yes"/>
      <point x="412" y="337"/>
      <point x="455" y="278"/>
      <point x="455" y="196" type="curve" smooth="yes"/>
      <point x="455" y="100"/>
      <point x="395" y="48"/>
      <point x="292" y="48" type="curve" smooth="yes"/>
      <point x="195" y="48"/>
      <point x="132" y="96"/>
      <point x="132" y="166" type="curve" smooth="yes"/>
      <point x="132" y="216"/>
      <point x="164" y="251"/>
      <point x="217" y="251" type="curve" smooth="yes"/>
      <point x="270" y="251"/>
      <point x="303" y="215"/>
      <point x="303" y="152" type="curve" smooth="yes"/>
      <point x="303" y="116"/>
      <point x="290" y="71"/>
      <point x="276" y="43" type="curve"/>
      <point x="343" y="43" type="line"/>
      <point x="356" y="68"/>
      <point x="374" y="114"/>
      <point x="374" y="163" type="curve" smooth="yes"/>
      <point x="374" y="258"/>
      <point x="308" y="317"/>
      <point x="214" y="317" type="curve" smooth="yes"/>
      <point x="114" y="317"/>
      <point x="53" y="251"/>
      <point x="53" y="165" type="curve" smooth="yes"/>
      <point x="53" y="57"/>
      <point x="151" y="-17"/>
      <point x="304" y="-17" type="curve" smooth="yes"/>
      <point x="453" y="-17"/>
      <point x="540" y="65"/>
      <point x="540" y="191" type="curve" smooth="yes"/>
      <point x="540" y="285"/>
      <point x="497" y="346"/>
      <point x="497" y="417" type="curve" smooth="yes"/>
      <point x="497" y="482"/>
      <point x="544" y="525"/>
      <point x="619" y="525" type="curve" smooth="yes"/>
      <point x="692" y="525"/>
      <point x="734" y="479"/>
      <point x="734" y="412" type="curve" smooth="yes"/>
      <point x="734" y="332"/>
      <point x="674" y="261"/>
      <point x="674" y="161" type="curve"/>
      <point x="737" y="171" type="line"/>
      <point x="737" y="249"/>
      <point x="820" y="321"/>
    </contour>
    <component base="ra_cham" xOffset="621"/>
  </outline>
</glyph>
<glyph name="nhue_cham" format="2">
  <advance width="1352"/>
  <unicode hex="AA10"/>
  <note>
uniAA10
</note>
  <outline>
    <contour>
      <point x="1299" y="417" type="curve" smooth="yes"/>
      <point x="1299" y="523"/>
      <point x="1227" y="594"/>
      <point x="1115" y="594" type="curve" smooth="yes"/>
      <point x="1021" y="594"/>
      <point x="951" y="550"/>
      <point x="933" y="449" type="curve" smooth="yes"/>
      <point x="914" y="344"/>
      <point x="877" y="330"/>
      <point x="767" y="312" type="curve" smooth="yes"/>
      <point x="621" y="288"/>
      <point x="527" y="218"/>
      <point x="527" y="112" type="curve" smooth="yes"/>
      <point x="527" y="31"/>
      <point x="579" y="-17"/>
      <point x="660" y="-17" type="curve" smooth="yes"/>
      <point x="779" y="-17"/>
      <point x="858" y="103"/>
      <point x="858" y="286" type="curve" smooth="yes"/>
      <point x="858" y="481"/>
      <point x="779" y="594"/>
      <point x="669" y="594" type="curve" smooth="yes"/>
      <point x="553" y="594"/>
      <point x="530" y="513"/>
      <point x="470" y="513" type="curve" smooth="yes"/>
      <point x="410" y="513"/>
      <point x="385" y="594"/>
      <point x="271" y="594" type="curve" smooth="yes"/>
      <point x="157" y="594"/>
      <point x="80" y="485"/>
      <point x="80" y="308" type="curve" smooth="yes"/>
      <point x="80" y="105"/>
      <point x="177" y="-19"/>
      <point x="309" y="-19" type="curve" smooth="yes"/>
      <point x="382" y="-19"/>
      <point x="427" y="23"/>
      <point x="427" y="82" type="curve" smooth="yes"/>
      <point x="427" y="143"/>
      <point x="381" y="182"/>
      <point x="317" y="182" type="curve" smooth="yes"/>
      <point x="245" y="182"/>
      <point x="196" y="129"/>
      <point x="183" y="48" type="curve"/>
      <point x="235" y="48" type="line"/>
      <point x="243" y="93"/>
      <point x="270" y="131"/>
      <point x="316" y="131" type="curve" smooth="yes"/>
      <point x="346" y="131"/>
      <point x="370" y="116"/>
      <point x="370" y="83" type="curve" smooth="yes"/>
      <point x="370" y="54"/>
      <point x="349" y="35"/>
      <point x="314" y="35" type="curve" smooth="yes"/>
      <point x="232" y="35"/>
      <point x="166" y="130"/>
      <point x="166" y="308" type="curve" smooth="yes"/>
      <point x="166" y="441"/>
      <point x="218" y="518"/>
      <point x="287" y="518" type="curve" smooth="yes"/>
      <point x="369" y="518"/>
      <point x="381" y="437"/>
      <point x="470" y="437" type="curve" smooth="yes"/>
      <point x="559" y="437"/>
      <point x="571" y="518"/>
      <point x="653" y="518" type="curve" smooth="yes"/>
      <point x="718" y="518"/>
      <point x="774" y="437"/>
      <point x="774" y="290" type="curve" smooth="yes"/>
      <point x="774" y="142"/>
      <point x="728" y="51"/>
      <point x="660" y="51" type="curve" smooth="yes"/>
      <point x="627" y="51"/>
      <point x="610" y="78"/>
      <point x="610" y="115" type="curve" smooth="yes"/>
      <point x="610" y="175"/>
      <point x="657" y="228"/>
      <point x="805" y="255" type="curve" smooth="yes"/>
      <point x="940" y="280"/>
      <point x="986" y="307"/>
      <point x="1005" y="418" type="curve" smooth="yes"/>
      <point x="1017" y="487"/>
      <point x="1051" y="525"/>
      <point x="1110" y="525" type="curve" smooth="yes"/>
      <point x="1175" y="525"/>
      <point x="1215" y="484"/>
      <point x="1215" y="418" type="curve" smooth="yes"/>
      <point x="1215" y="380"/>
      <point x="1202" y="347"/>
      <point x="1177" y="320" type="curve"/>
      <point x="1240" y="274" type="line"/>
      <point x="1282" y="318"/>
      <point x="1299" y="363"/>
    </contour>
  </outline>
</glyph>
<glyph name="nhja_cham" format="2">
  <advance width="1351"/>
  <unicode hex="AA12"/>
  <note>
uniAA12
</note>
  <outline>
    <contour>
      <point x="1298" y="417" type="curve" smooth="yes"/>
      <point x="1298" y="523"/>
      <point x="1226" y="594"/>
      <point x="1115" y="594" type="curve" smooth="yes"/>
      <point x="1021" y="594"/>
      <point x="951" y="550"/>
      <point x="933" y="449" type="curve" smooth="yes"/>
      <point x="914" y="344"/>
      <point x="877" y="330"/>
      <point x="767" y="311" type="curve" smooth="yes"/>
      <point x="625" y="287"/>
      <point x="538" y="212"/>
      <point x="538" y="109" type="curve" smooth="yes"/>
      <point x="538" y="37"/>
      <point x="586" y="-7"/>
      <point x="660" y="-7" type="curve" smooth="yes"/>
      <point x="674" y="-7"/>
      <point x="688" y="-6"/>
      <point x="701" y="-3" type="curve"/>
      <point x="662" y="31" type="line"/>
      <point x="528" y="-65"/>
      <point x="481" y="-126"/>
      <point x="481" y="-184" type="curve" smooth="yes"/>
      <point x="481" y="-251"/>
      <point x="535" y="-299"/>
      <point x="600" y="-299" type="curve" smooth="yes"/>
      <point x="722" y="-299"/>
      <point x="740" y="-149"/>
      <point x="804" y="-149" type="curve" smooth="yes"/>
      <point x="826" y="-149"/>
      <point x="839" y="-162"/>
      <point x="839" y="-183" type="curve" smooth="yes"/>
      <point x="839" y="-195"/>
      <point x="834" y="-209"/>
      <point x="825" y="-222" type="curve"/>
      <point x="893" y="-253" type="line"/>
      <point x="911" y="-228"/>
      <point x="920" y="-195"/>
      <point x="920" y="-172" type="curve" smooth="yes"/>
      <point x="920" y="-119"/>
      <point x="877" y="-76"/>
      <point x="819" y="-76" type="curve" smooth="yes"/>
      <point x="697" y="-76"/>
      <point x="679" y="-224"/>
      <point x="611" y="-224" type="curve" smooth="yes"/>
      <point x="582" y="-224"/>
      <point x="565" y="-203"/>
      <point x="565" y="-177" type="curve" smooth="yes"/>
      <point x="565" y="-139"/>
      <point x="594" y="-100"/>
      <point x="731" y="-5" type="curve" smooth="yes"/>
      <point x="829" y="63"/>
      <point x="858" y="164"/>
      <point x="858" y="286" type="curve" smooth="yes"/>
      <point x="858" y="481"/>
      <point x="779" y="594"/>
      <point x="669" y="594" type="curve" smooth="yes"/>
      <point x="553" y="594"/>
      <point x="530" y="513"/>
      <point x="470" y="513" type="curve" smooth="yes"/>
      <point x="410" y="513"/>
      <point x="385" y="594"/>
      <point x="271" y="594" type="curve" smooth="yes"/>
      <point x="157" y="594"/>
      <point x="80" y="485"/>
      <point x="80" y="308" type="curve" smooth="yes"/>
      <point x="80" y="105"/>
      <point x="177" y="-19"/>
      <point x="309" y="-19" type="curve" smooth="yes"/>
      <point x="382" y="-19"/>
      <point x="427" y="23"/>
      <point x="427" y="82" type="curve" smooth="yes"/>
      <point x="427" y="143"/>
      <point x="381" y="182"/>
      <point x="317" y="182" type="curve" smooth="yes"/>
      <point x="245" y="182"/>
      <point x="196" y="129"/>
      <point x="183" y="48" type="curve"/>
      <point x="235" y="48" type="line"/>
      <point x="243" y="93"/>
      <point x="270" y="131"/>
      <point x="316" y="131" type="curve" smooth="yes"/>
      <point x="346" y="131"/>
      <point x="370" y="116"/>
      <point x="370" y="83" type="curve" smooth="yes"/>
      <point x="370" y="54"/>
      <point x="349" y="35"/>
      <point x="314" y="35" type="curve" smooth="yes"/>
      <point x="232" y="35"/>
      <point x="166" y="130"/>
      <point x="166" y="308" type="curve" smooth="yes"/>
      <point x="166" y="441"/>
      <point x="218" y="518"/>
      <point x="287" y="518" type="curve" smooth="yes"/>
      <point x="369" y="518"/>
      <point x="381" y="437"/>
      <point x="470" y="437" type="curve" smooth="yes"/>
      <point x="559" y="437"/>
      <point x="571" y="518"/>
      <point x="653" y="518" type="curve" smooth="yes"/>
      <point x="718" y="518"/>
      <point x="774" y="437"/>
      <point x="774" y="290" type="curve" smooth="yes"/>
      <point x="774" y="142"/>
      <point x="728" y="51"/>
      <point x="660" y="51" type="curve" smooth="yes"/>
      <point x="627" y="51"/>
      <point x="610" y="78"/>
      <point x="610" y="115" type="curve" smooth="yes"/>
      <point x="610" y="175"/>
      <point x="657" y="228"/>
      <point x="805" y="255" type="curve" smooth="yes"/>
      <point x="940" y="280"/>
      <point x="986" y="307"/>
      <point x="1005" y="418" type="curve" smooth="yes"/>
      <point x="1017" y="487"/>
      <point x="1051" y="525"/>
      <point x="1110" y="525" type="curve" smooth="yes"/>
      <point x="1174" y="525"/>
      <point x="1214" y="484"/>
      <point x="1214" y="418" type="curve" smooth="yes"/>
      <point x="1214" y="380"/>
      <point x="1201" y="347"/>
      <point x="1176" y="320" type="curve"/>
      <point x="1240" y="274" type="line"/>
      <point x="1281" y="318"/>
      <point x="1298" y="363"/>
    </contour>
    <contour>
      <point x="639" y="-39" type="line"/>
      <point x="639" y="14" type="line"/>
      <point x="516" y="14" type="line" smooth="yes"/>
      <point x="404" y="14"/>
      <point x="375" y="-8"/>
      <point x="349" y="-131" type="curve" smooth="yes"/>
      <point x="329" y="-227"/>
      <point x="317" y="-246"/>
      <point x="233" y="-246" type="curve" smooth="yes"/>
      <point x="212" y="-246" type="line"/>
      <point x="212" y="-299" type="line"/>
      <point x="254" y="-299" type="line" smooth="yes"/>
      <point x="366" y="-299"/>
      <point x="396" y="-277"/>
      <point x="422" y="-154" type="curve" smooth="yes"/>
      <point x="442" y="-59"/>
      <point x="454" y="-39"/>
      <point x="536" y="-39" type="curve" smooth="yes"/>
    </contour>
  </outline>
</glyph>
<glyph name="ta_cham" format="2">
  <advance width="865"/>
  <unicode hex="AA13"/>
  <note>
uniAA13
</note>
  <outline>
    <contour>
      <point x="812" y="417" type="curve" smooth="yes"/>
      <point x="812" y="523"/>
      <point x="739" y="594"/>
      <point x="630" y="594" type="curve" smooth="yes"/>
      <point x="517" y="594"/>
      <point x="438" y="518"/>
      <point x="438" y="390" type="curve"/>
      <point x="490" y="390" type="line"/>
      <point x="491" y="518"/>
      <point x="415" y="594"/>
      <point x="304" y="594" type="curve" smooth="yes"/>
      <point x="166" y="594"/>
      <point x="80" y="485"/>
      <point x="80" y="308" type="curve" smooth="yes"/>
      <point x="80" y="107"/>
      <point x="175" y="-17"/>
      <point x="318" y="-17" type="curve" smooth="yes"/>
      <point x="423" y="-17"/>
      <point x="488" y="47"/>
      <point x="488" y="141" type="curve" smooth="yes"/>
      <point x="488" y="239"/>
      <point x="414" y="301"/>
      <point x="314" y="301" type="curve" smooth="yes"/>
      <point x="237" y="301"/>
      <point x="174" y="265"/>
      <point x="130" y="203" type="curve"/>
      <point x="170" y="151" type="line"/>
      <point x="200" y="209"/>
      <point x="249" y="239"/>
      <point x="309" y="239" type="curve" smooth="yes"/>
      <point x="369" y="239"/>
      <point x="412" y="206"/>
      <point x="412" y="140" type="curve" smooth="yes"/>
      <point x="412" y="80"/>
      <point x="378" y="45"/>
      <point x="321" y="45" type="curve" smooth="yes"/>
      <point x="222" y="45"/>
      <point x="166" y="139"/>
      <point x="166" y="310" type="curve" smooth="yes"/>
      <point x="166" y="445"/>
      <point x="220" y="525"/>
      <point x="312" y="525" type="curve" smooth="yes"/>
      <point x="380" y="525"/>
      <point x="429" y="476"/>
      <point x="427" y="379" type="curve"/>
      <point x="501" y="379" type="line"/>
      <point x="499" y="478"/>
      <point x="550" y="525"/>
      <point x="619" y="525" type="curve" smooth="yes"/>
      <point x="687" y="525"/>
      <point x="728" y="484"/>
      <point x="728" y="418" type="curve" smooth="yes"/>
      <point x="728" y="380"/>
      <point x="715" y="347"/>
      <point x="690" y="320" type="curve"/>
      <point x="753" y="274" type="line"/>
      <point x="795" y="318"/>
      <point x="812" y="363"/>
    </contour>
  </outline>
</glyph>
<glyph name="tha_cham" format="2">
  <advance width="1097"/>
  <unicode hex="AA14"/>
  <note>
uniAA14
</note>
  <outline>
    <contour>
      <point x="1044" y="421" type="curve" smooth="yes"/>
      <point x="1044" y="525"/>
      <point x="969" y="594"/>
      <point x="855" y="594" type="curve" smooth="yes"/>
      <point x="741" y="594"/>
      <point x="668" y="533"/>
      <point x="668" y="442" type="curve" smooth="yes"/>
      <point x="668" y="377"/>
      <point x="707" y="321"/>
      <point x="707" y="274" type="curve" smooth="yes"/>
      <point x="707" y="223"/>
      <point x="666" y="189"/>
      <point x="617" y="189" type="curve" smooth="yes"/>
      <point x="572" y="189"/>
      <point x="543" y="208"/>
      <point x="542" y="236" type="curve" smooth="yes"/>
      <point x="541" y="258"/>
      <point x="558" y="270"/>
      <point x="579" y="270" type="curve" smooth="yes"/>
      <point x="617" y="270"/>
      <point x="639" y="238"/>
      <point x="639" y="181" type="curve" smooth="yes"/>
      <point x="639" y="95"/>
      <point x="588" y="50"/>
      <point x="508" y="50" type="curve" smooth="yes"/>
      <point x="424" y="50"/>
      <point x="374" y="102"/>
      <point x="374" y="175" type="curve" smooth="yes"/>
      <point x="374" y="252"/>
      <point x="439" y="320"/>
      <point x="439" y="422" type="curve" smooth="yes"/>
      <point x="439" y="526"/>
      <point x="362" y="594"/>
      <point x="249" y="594" type="curve" smooth="yes"/>
      <point x="132" y="594"/>
      <point x="53" y="525"/>
      <point x="53" y="418" type="curve" smooth="yes"/>
      <point x="53" y="368"/>
      <point x="73" y="312"/>
      <point x="114" y="276" type="curve"/>
      <point x="176" y="325" type="line"/>
      <point x="154" y="348"/>
      <point x="137" y="384"/>
      <point x="137" y="420" type="curve" smooth="yes"/>
      <point x="137" y="485"/>
      <point x="179" y="525"/>
      <point x="247" y="525" type="curve" smooth="yes"/>
      <point x="314" y="525"/>
      <point x="353" y="483"/>
      <point x="353" y="415" type="curve" smooth="yes"/>
      <point x="353" y="332"/>
      <point x="288" y="263"/>
      <point x="288" y="170" type="curve" smooth="yes"/>
      <point x="288" y="59"/>
      <point x="369" y="-17"/>
      <point x="498" y="-17" type="curve" smooth="yes"/>
      <point x="623" y="-17"/>
      <point x="700" y="55"/>
      <point x="700" y="177" type="curve" smooth="yes"/>
      <point x="700" y="260"/>
      <point x="648" y="313"/>
      <point x="580" y="313" type="curve" smooth="yes"/>
      <point x="530" y="313"/>
      <point x="491" y="284"/>
      <point x="492" y="236" type="curve" smooth="yes"/>
      <point x="492" y="180"/>
      <point x="546" y="144"/>
      <point x="623" y="144" type="curve" smooth="yes"/>
      <point x="708" y="144"/>
      <point x="778" y="196"/>
      <point x="778" y="277" type="curve" smooth="yes"/>
      <point x="778" y="327"/>
      <point x="748" y="379"/>
      <point x="748" y="427" type="curve" smooth="yes"/>
      <point x="748" y="488"/>
      <point x="789" y="525"/>
      <point x="855" y="525" type="curve" smooth="yes"/>
      <point x="919" y="525"/>
      <point x="960" y="487"/>
      <point x="960" y="421" type="curve" smooth="yes"/>
      <point x="960" y="383"/>
      <point x="943" y="348"/>
      <point x="916" y="321" type="curve"/>
      <point x="980" y="274" type="line"/>
      <point x="1023" y="319"/>
      <point x="1044" y="366"/>
    </contour>
  </outline>
</glyph>
<glyph name="da_cham" format="2">
  <advance width="1021"/>
  <unicode hex="AA15"/>
  <note>
uniAA15
</note>
  <outline>
    <contour>
      <point x="968" y="421" type="curve" smooth="yes"/>
      <point x="968" y="525"/>
      <point x="892" y="594"/>
      <point x="776" y="594" type="curve" smooth="yes"/>
      <point x="659" y="594"/>
      <point x="583" y="530"/>
      <point x="583" y="426" type="curve" smooth="yes"/>
      <point x="583" y="343"/>
      <point x="625" y="270"/>
      <point x="625" y="198" type="curve" smooth="yes"/>
      <point x="625" y="116"/>
      <point x="545" y="56"/>
      <point x="408" y="33" type="curve"/>
      <point x="408" y="-16" type="line"/>
      <point x="475" y="42"/>
      <point x="506" y="108"/>
      <point x="506" y="175" type="curve" smooth="yes"/>
      <point x="506" y="262"/>
      <point x="442" y="315"/>
      <point x="357" y="316" type="curve" smooth="yes"/>
      <point x="340" y="316"/>
      <point x="322" y="313"/>
      <point x="304" y="309" type="curve"/>
      <point x="325" y="264" type="line"/>
      <point x="399" y="291"/>
      <point x="441" y="357"/>
      <point x="441" y="426" type="curve" smooth="yes"/>
      <point x="441" y="527"/>
      <point x="361" y="594"/>
      <point x="248" y="594" type="curve" smooth="yes"/>
      <point x="132" y="594"/>
      <point x="53" y="524"/>
      <point x="53" y="420" type="curve" smooth="yes"/>
      <point x="53" y="368"/>
      <point x="74" y="315"/>
      <point x="117" y="275" type="curve"/>
      <point x="180" y="323" type="line"/>
      <point x="154" y="347"/>
      <point x="137" y="383"/>
      <point x="137" y="421" type="curve" smooth="yes"/>
      <point x="137" y="485"/>
      <point x="181" y="525"/>
      <point x="247" y="525" type="curve" smooth="yes"/>
      <point x="313" y="525"/>
      <point x="355" y="482"/>
      <point x="355" y="422" type="curve" smooth="yes"/>
      <point x="355" y="371"/>
      <point x="325" y="325"/>
      <point x="271" y="302" type="curve"/>
      <point x="286" y="252" type="line"/>
      <point x="302" y="256"/>
      <point x="316" y="259"/>
      <point x="331" y="259" type="curve" smooth="yes"/>
      <point x="383" y="259"/>
      <point x="422" y="224"/>
      <point x="422" y="162" type="curve" smooth="yes"/>
      <point x="422" y="107"/>
      <point x="399" y="60"/>
      <point x="351" y="1" type="curve"/>
      <point x="368" y="-44" type="line"/>
      <point x="573" y="-8"/>
      <point x="711" y="84"/>
      <point x="711" y="202" type="curve" smooth="yes"/>
      <point x="711" y="284"/>
      <point x="669" y="351"/>
      <point x="669" y="424" type="curve" smooth="yes"/>
      <point x="669" y="486"/>
      <point x="708" y="525"/>
      <point x="775" y="525" type="curve" smooth="yes"/>
      <point x="842" y="525"/>
      <point x="884" y="486"/>
      <point x="884" y="421" type="curve" smooth="yes"/>
      <point x="884" y="383"/>
      <point x="867" y="349"/>
      <point x="842" y="324" type="curve"/>
      <point x="904" y="275" type="line"/>
      <point x="947" y="316"/>
      <point x="968" y="368"/>
    </contour>
  </outline>
</glyph>
<glyph name="dha_cham" format="2">
  <advance width="1047"/>
  <unicode hex="AA16"/>
  <note>
uniAA16
</note>
  <outline>
    <contour>
      <point x="994" y="421" type="curve" smooth="yes"/>
      <point x="994" y="525"/>
      <point x="918" y="594"/>
      <point x="803" y="594" type="curve" smooth="yes"/>
      <point x="685" y="594"/>
      <point x="611" y="531"/>
      <point x="611" y="439" type="curve" smooth="yes"/>
      <point x="611" y="403"/>
      <point x="624" y="368"/>
      <point x="624" y="346" type="curve" smooth="yes"/>
      <point x="624" y="236"/>
      <point x="468" y="241"/>
      <point x="468" y="122" type="curve" smooth="yes"/>
      <point x="468" y="89"/>
      <point x="475" y="67"/>
      <point x="503" y="39" type="curve"/>
      <point x="503" y="52" type="line"/>
      <point x="497" y="52"/>
      <point x="490" y="52"/>
      <point x="484" y="52" type="curve" smooth="yes"/>
      <point x="416" y="52"/>
      <point x="373" y="101"/>
      <point x="373" y="170" type="curve" smooth="yes"/>
      <point x="373" y="251"/>
      <point x="439" y="319"/>
      <point x="439" y="417" type="curve" smooth="yes"/>
      <point x="439" y="526"/>
      <point x="361" y="594"/>
      <point x="249" y="594" type="curve" smooth="yes"/>
      <point x="132" y="594"/>
      <point x="53" y="525"/>
      <point x="53" y="419" type="curve" smooth="yes"/>
      <point x="53" y="368"/>
      <point x="74" y="316"/>
      <point x="116" y="275" type="curve"/>
      <point x="178" y="323" type="line"/>
      <point x="154" y="349"/>
      <point x="137" y="383"/>
      <point x="137" y="421" type="curve" smooth="yes"/>
      <point x="137" y="486"/>
      <point x="181" y="525"/>
      <point x="248" y="525" type="curve" smooth="yes"/>
      <point x="314" y="525"/>
      <point x="353" y="481"/>
      <point x="353" y="414" type="curve" smooth="yes"/>
      <point x="353" y="329"/>
      <point x="287" y="262"/>
      <point x="287" y="170" type="curve" smooth="yes"/>
      <point x="287" y="61"/>
      <point x="370" y="-17"/>
      <point x="499" y="-17" type="curve" smooth="yes"/>
      <point x="523" y="-17"/>
      <point x="547" y="-17"/>
      <point x="564" y="-16" type="curve"/>
      <point x="586" y="37" type="line"/>
      <point x="562" y="65"/>
      <point x="551" y="82"/>
      <point x="551" y="111" type="curve" smooth="yes"/>
      <point x="551" y="204"/>
      <point x="710" y="199"/>
      <point x="710" y="335" type="curve" smooth="yes"/>
      <point x="710" y="367"/>
      <point x="697" y="396"/>
      <point x="697" y="428" type="curve" smooth="yes"/>
      <point x="697" y="487"/>
      <point x="735" y="525"/>
      <point x="802" y="525" type="curve" smooth="yes"/>
      <point x="868" y="525"/>
      <point x="910" y="486"/>
      <point x="910" y="421" type="curve" smooth="yes"/>
      <point x="910" y="384"/>
      <point x="893" y="350"/>
      <point x="868" y="324" type="curve"/>
      <point x="931" y="276" type="line"/>
      <point x="974" y="316"/>
      <point x="994" y="368"/>
    </contour>
  </outline>
</glyph>
<glyph name="na_cham" format="2">
  <advance width="1064"/>
  <unicode hex="AA18"/>
  <note>
uniAA18
</note>
  <outline>
    <contour>
      <point x="488" y="280" type="curve" smooth="yes"/>
      <point x="488" y="482"/>
      <point x="393" y="594"/>
      <point x="249" y="594" type="curve" smooth="yes"/>
      <point x="132" y="594"/>
      <point x="61" y="527"/>
      <point x="61" y="435" type="curve" smooth="yes"/>
      <point x="61" y="379"/>
      <point x="85" y="332"/>
      <point x="118" y="302" type="curve"/>
      <point x="174" y="347" type="line"/>
      <point x="156" y="367"/>
      <point x="143" y="395"/>
      <point x="143" y="429" type="curve" smooth="yes"/>
      <point x="143" y="487"/>
      <point x="184" y="525"/>
      <point x="251" y="525" type="curve" smooth="yes"/>
      <point x="345" y="525"/>
      <point x="404" y="443"/>
      <point x="404" y="284" type="curve" smooth="yes"/>
      <point x="404" y="140"/>
      <point x="359" y="51"/>
      <point x="296" y="51" type="curve" smooth="yes"/>
      <point x="261" y="51"/>
      <point x="239" y="80"/>
      <point x="239" y="127" type="curve" smooth="yes"/>
      <point x="239" y="194"/>
      <point x="296" y="258"/>
      <point x="399" y="258" type="curve" smooth="yes"/>
      <point x="503" y="258"/>
      <point x="586" y="169"/>
      <point x="574" y="15" type="curve"/>
      <point x="637" y="10" type="line"/>
      <point x="660" y="187"/>
      <point x="557" y="325"/>
      <point x="388" y="325" type="curve" smooth="yes"/>
      <point x="258" y="325"/>
      <point x="156" y="239"/>
      <point x="156" y="124" type="curve" smooth="yes"/>
      <point x="156" y="36"/>
      <point x="215" y="-17"/>
      <point x="294" y="-17" type="curve" smooth="yes"/>
      <point x="409" y="-17"/>
      <point x="488" y="101"/>
    </contour>
    <contour>
      <point x="1011" y="421" type="curve" smooth="yes"/>
      <point x="1011" y="524"/>
      <point x="934" y="594"/>
      <point x="820" y="594" type="curve" smooth="yes"/>
      <point x="703" y="594"/>
      <point x="632" y="526"/>
      <point x="632" y="426" type="curve" smooth="yes"/>
      <point x="632" y="341"/>
      <point x="670" y="272"/>
      <point x="670" y="199" type="curve" smooth="yes"/>
      <point x="670" y="136"/>
      <point x="636" y="67"/>
      <point x="554" y="19" type="curve" smooth="yes"/>
      <point x="406" y="-68"/>
      <point x="364" y="-126"/>
      <point x="364" y="-184" type="curve" smooth="yes"/>
      <point x="364" y="-251"/>
      <point x="418" y="-299"/>
      <point x="483" y="-299" type="curve" smooth="yes"/>
      <point x="605" y="-299"/>
      <point x="623" y="-149"/>
      <point x="687" y="-149" type="curve" smooth="yes"/>
      <point x="709" y="-149"/>
      <point x="722" y="-162"/>
      <point x="722" y="-183" type="curve" smooth="yes"/>
      <point x="722" y="-195"/>
      <point x="717" y="-209"/>
      <point x="708" y="-222" type="curve"/>
      <point x="776" y="-253" type="line"/>
      <point x="794" y="-228"/>
      <point x="803" y="-195"/>
      <point x="803" y="-172" type="curve" smooth="yes"/>
      <point x="803" y="-119"/>
      <point x="760" y="-76"/>
      <point x="702" y="-76" type="curve" smooth="yes"/>
      <point x="580" y="-76"/>
      <point x="562" y="-224"/>
      <point x="494" y="-224" type="curve" smooth="yes"/>
      <point x="465" y="-224"/>
      <point x="448" y="-203"/>
      <point x="448" y="-177" type="curve" smooth="yes"/>
      <point x="448" y="-139"/>
      <point x="475" y="-100"/>
      <point x="592" y="-32" type="curve" smooth="yes"/>
      <point x="702" y="32"/>
      <point x="752" y="113"/>
      <point x="752" y="205" type="curve" smooth="yes"/>
      <point x="752" y="292"/>
      <point x="717" y="353"/>
      <point x="717" y="424" type="curve" smooth="yes"/>
      <point x="717" y="486"/>
      <point x="755" y="525"/>
      <point x="821" y="525" type="curve" smooth="yes"/>
      <point x="883" y="525"/>
      <point x="927" y="488"/>
      <point x="927" y="421" type="curve" smooth="yes"/>
      <point x="927" y="383"/>
      <point x="910" y="348"/>
      <point x="883" y="321" type="curve"/>
      <point x="946" y="274" type="line"/>
      <point x="989" y="317"/>
      <point x="1011" y="366"/>
    </contour>
  </outline>
</glyph>
<glyph name="dda_cham" format="2">
  <advance width="1064"/>
  <unicode hex="AA19"/>
  <note>
uniAA19
</note>
  <outline>
    <contour>
      <point x="1011" y="421" type="curve" smooth="yes"/>
      <point x="1011" y="524"/>
      <point x="934" y="594"/>
      <point x="820" y="594" type="curve" smooth="yes"/>
      <point x="703" y="594"/>
      <point x="632" y="526"/>
      <point x="632" y="426" type="curve" smooth="yes"/>
      <point x="632" y="341"/>
      <point x="670" y="272"/>
      <point x="670" y="199" type="curve" smooth="yes"/>
      <point x="670" y="140"/>
      <point x="634" y="75"/>
      <point x="587" y="47" type="curve"/>
      <point x="637" y="10" type="line"/>
      <point x="660" y="187"/>
      <point x="557" y="325"/>
      <point x="388" y="325" type="curve" smooth="yes"/>
      <point x="258" y="325"/>
      <point x="156" y="239"/>
      <point x="156" y="124" type="curve" smooth="yes"/>
      <point x="156" y="36"/>
      <point x="215" y="-17"/>
      <point x="294" y="-17" type="curve" smooth="yes"/>
      <point x="309" y="-17"/>
      <point x="321" y="-16"/>
      <point x="332" y="-13" type="curve"/>
      <point x="287" y="31" type="line"/>
      <point x="153" y="-65"/>
      <point x="112" y="-126"/>
      <point x="112" y="-184" type="curve" smooth="yes"/>
      <point x="112" y="-251"/>
      <point x="166" y="-299"/>
      <point x="231" y="-299" type="curve" smooth="yes"/>
      <point x="353" y="-299"/>
      <point x="371" y="-149"/>
      <point x="435" y="-149" type="curve" smooth="yes"/>
      <point x="457" y="-149"/>
      <point x="470" y="-162"/>
      <point x="470" y="-183" type="curve" smooth="yes"/>
      <point x="470" y="-195"/>
      <point x="465" y="-209"/>
      <point x="456" y="-222" type="curve"/>
      <point x="524" y="-253" type="line"/>
      <point x="542" y="-228"/>
      <point x="551" y="-195"/>
      <point x="551" y="-172" type="curve" smooth="yes"/>
      <point x="551" y="-119"/>
      <point x="508" y="-76"/>
      <point x="450" y="-76" type="curve" smooth="yes"/>
      <point x="328" y="-76"/>
      <point x="310" y="-224"/>
      <point x="242" y="-224" type="curve" smooth="yes"/>
      <point x="213" y="-224"/>
      <point x="196" y="-203"/>
      <point x="196" y="-177" type="curve" smooth="yes"/>
      <point x="196" y="-139"/>
      <point x="224" y="-100"/>
      <point x="361" y="-5" type="curve" smooth="yes"/>
      <point x="462" y="65"/>
      <point x="488" y="165"/>
      <point x="488" y="280" type="curve" smooth="yes"/>
      <point x="488" y="482"/>
      <point x="393" y="594"/>
      <point x="249" y="594" type="curve" smooth="yes"/>
      <point x="132" y="594"/>
      <point x="61" y="527"/>
      <point x="61" y="435" type="curve" smooth="yes"/>
      <point x="61" y="379"/>
      <point x="85" y="332"/>
      <point x="118" y="302" type="curve"/>
      <point x="174" y="347" type="line"/>
      <point x="156" y="367"/>
      <point x="143" y="395"/>
      <point x="143" y="429" type="curve" smooth="yes"/>
      <point x="143" y="487"/>
      <point x="184" y="525"/>
      <point x="251" y="525" type="curve" smooth="yes"/>
      <point x="345" y="525"/>
      <point x="404" y="443"/>
      <point x="404" y="284" type="curve" smooth="yes"/>
      <point x="404" y="140"/>
      <point x="359" y="51"/>
      <point x="296" y="51" type="curve" smooth="yes"/>
      <point x="261" y="51"/>
      <point x="239" y="80"/>
      <point x="239" y="127" type="curve" smooth="yes"/>
      <point x="239" y="194"/>
      <point x="296" y="258"/>
      <point x="399" y="258" type="curve" smooth="yes"/>
      <point x="503" y="258"/>
      <point x="586" y="169"/>
      <point x="574" y="15" type="curve"/>
      <point x="615" y="-17" type="line"/>
      <point x="695" y="29"/>
      <point x="752" y="112"/>
      <point x="752" y="205" type="curve" smooth="yes"/>
      <point x="752" y="292"/>
      <point x="717" y="353"/>
      <point x="717" y="424" type="curve" smooth="yes"/>
      <point x="717" y="486"/>
      <point x="755" y="525"/>
      <point x="821" y="525" type="curve" smooth="yes"/>
      <point x="883" y="525"/>
      <point x="927" y="488"/>
      <point x="927" y="421" type="curve" smooth="yes"/>
      <point x="927" y="383"/>
      <point x="910" y="348"/>
      <point x="883" y="321" type="curve"/>
      <point x="946" y="274" type="line"/>
      <point x="989" y="317"/>
      <point x="1011" y="366"/>
    </contour>
  </outline>
</glyph>
<glyph name="pa_cham" format="2">
  <advance width="1162"/>
  <unicode hex="AA1A"/>
  <note>
uniAA1A
</note>
  <outline>
    <contour>
      <point x="1109" y="417" type="curve" smooth="yes"/>
      <point x="1109" y="523"/>
      <point x="1036" y="594"/>
      <point x="925" y="594" type="curve" smooth="yes"/>
      <point x="814" y="594"/>
      <point x="735" y="518"/>
      <point x="735" y="390" type="curve"/>
      <point x="786" y="390" type="line"/>
      <point x="787" y="518"/>
      <point x="707" y="594"/>
      <point x="594" y="594" type="curve" smooth="yes"/>
      <point x="487" y="594"/>
      <point x="414" y="524"/>
      <point x="414" y="424" type="curve" smooth="yes"/>
      <point x="414" y="337"/>
      <point x="455" y="277"/>
      <point x="455" y="196" type="curve" smooth="yes"/>
      <point x="455" y="100"/>
      <point x="395" y="48"/>
      <point x="292" y="48" type="curve" smooth="yes"/>
      <point x="195" y="48"/>
      <point x="132" y="96"/>
      <point x="132" y="166" type="curve" smooth="yes"/>
      <point x="132" y="216"/>
      <point x="164" y="251"/>
      <point x="217" y="251" type="curve" smooth="yes"/>
      <point x="270" y="251"/>
      <point x="303" y="215"/>
      <point x="303" y="152" type="curve" smooth="yes"/>
      <point x="303" y="116"/>
      <point x="290" y="71"/>
      <point x="276" y="43" type="curve"/>
      <point x="343" y="43" type="line"/>
      <point x="356" y="68"/>
      <point x="374" y="114"/>
      <point x="374" y="163" type="curve" smooth="yes"/>
      <point x="374" y="258"/>
      <point x="308" y="317"/>
      <point x="214" y="317" type="curve" smooth="yes"/>
      <point x="114" y="317"/>
      <point x="53" y="251"/>
      <point x="53" y="165" type="curve" smooth="yes"/>
      <point x="53" y="57"/>
      <point x="151" y="-17"/>
      <point x="304" y="-17" type="curve" smooth="yes"/>
      <point x="453" y="-17"/>
      <point x="540" y="65"/>
      <point x="540" y="191" type="curve" smooth="yes"/>
      <point x="540" y="284"/>
      <point x="500" y="343"/>
      <point x="500" y="420" type="curve" smooth="yes"/>
      <point x="500" y="483"/>
      <point x="541" y="525"/>
      <point x="608" y="525" type="curve" smooth="yes"/>
      <point x="677" y="525"/>
      <point x="726" y="477"/>
      <point x="724" y="380" type="curve"/>
      <point x="797" y="380" type="line"/>
      <point x="795" y="478"/>
      <point x="847" y="525"/>
      <point x="915" y="525" type="curve" smooth="yes"/>
      <point x="983" y="525"/>
      <point x="1024" y="484"/>
      <point x="1024" y="418" type="curve" smooth="yes"/>
      <point x="1024" y="380"/>
      <point x="1011" y="347"/>
      <point x="986" y="320" type="curve"/>
      <point x="1050" y="274" type="line"/>
      <point x="1092" y="318"/>
      <point x="1109" y="363"/>
    </contour>
  </outline>
</glyph>
<glyph name="ppa_cham" format="2">
  <advance width="1021"/>
  <unicode hex="AA1B"/>
  <note>
uniAA1B
</note>
  <outline>
    <contour>
      <point x="968" y="421" type="curve" smooth="yes"/>
      <point x="968" y="525"/>
      <point x="892" y="594"/>
      <point x="776" y="594" type="curve" smooth="yes"/>
      <point x="659" y="594"/>
      <point x="583" y="530"/>
      <point x="583" y="423" type="curve" smooth="yes"/>
      <point x="583" y="343"/>
      <point x="644" y="248"/>
      <point x="644" y="165" type="curve" smooth="yes"/>
      <point x="644" y="104"/>
      <point x="617" y="60"/>
      <point x="556" y="60" type="curve" smooth="yes"/>
      <point x="478" y="60"/>
      <point x="400" y="133"/>
      <point x="312" y="133" type="curve" smooth="yes"/>
      <point x="257" y="133"/>
      <point x="216" y="100"/>
      <point x="216" y="51" type="curve" smooth="yes"/>
      <point x="216" y="-2"/>
      <point x="264" y="-30"/>
      <point x="316" y="-30" type="curve" smooth="yes"/>
      <point x="423" y="-30"/>
      <point x="506" y="65"/>
      <point x="506" y="174" type="curve" smooth="yes"/>
      <point x="506" y="262"/>
      <point x="442" y="316"/>
      <point x="357" y="316" type="curve" smooth="yes"/>
      <point x="340" y="316"/>
      <point x="322" y="313"/>
      <point x="304" y="309" type="curve"/>
      <point x="325" y="264" type="line"/>
      <point x="399" y="291"/>
      <point x="441" y="357"/>
      <point x="441" y="426" type="curve" smooth="yes"/>
      <point x="441" y="527"/>
      <point x="360" y="594"/>
      <point x="248" y="594" type="curve" smooth="yes"/>
      <point x="132" y="594"/>
      <point x="53" y="524"/>
      <point x="53" y="420" type="curve" smooth="yes"/>
      <point x="53" y="368"/>
      <point x="74" y="315"/>
      <point x="117" y="275" type="curve"/>
      <point x="180" y="323" type="line"/>
      <point x="154" y="347"/>
      <point x="137" y="383"/>
      <point x="137" y="421" type="curve" smooth="yes"/>
      <point x="137" y="485"/>
      <point x="181" y="525"/>
      <point x="247" y="525" type="curve" smooth="yes"/>
      <point x="313" y="525"/>
      <point x="355" y="482"/>
      <point x="355" y="422" type="curve" smooth="yes"/>
      <point x="355" y="371"/>
      <point x="325" y="325"/>
      <point x="271" y="302" type="curve"/>
      <point x="286" y="252" type="line"/>
      <point x="301" y="256"/>
      <point x="317" y="259"/>
      <point x="331" y="259" type="curve" smooth="yes"/>
      <point x="383" y="259"/>
      <point x="421" y="224"/>
      <point x="421" y="162" type="curve" smooth="yes"/>
      <point x="421" y="81"/>
      <point x="378" y="14"/>
      <point x="313" y="14" type="curve" smooth="yes"/>
      <point x="286" y="14"/>
      <point x="263" y="27"/>
      <point x="263" y="50" type="curve" smooth="yes"/>
      <point x="263" y="77"/>
      <point x="285" y="90"/>
      <point x="314" y="90" type="curve" smooth="yes"/>
      <point x="396" y="90"/>
      <point x="472" y="-6"/>
      <point x="584" y="-6" type="curve" smooth="yes"/>
      <point x="673" y="-6"/>
      <point x="730" y="57"/>
      <point x="730" y="157" type="curve" smooth="yes"/>
      <point x="730" y="257"/>
      <point x="669" y="351"/>
      <point x="669" y="422" type="curve" smooth="yes"/>
      <point x="669" y="486"/>
      <point x="709" y="525"/>
      <point x="776" y="525" type="curve" smooth="yes"/>
      <point x="842" y="525"/>
      <point x="884" y="486"/>
      <point x="884" y="422" type="curve" smooth="yes"/>
      <point x="884" y="384"/>
      <point x="867" y="350"/>
      <point x="842" y="324" type="curve"/>
      <point x="904" y="276" type="line"/>
      <point x="947" y="316"/>
      <point x="968" y="368"/>
    </contour>
  </outline>
</glyph>
<glyph name="pha_cham" format="2">
  <advance width="1483"/>
  <unicode hex="AA1C"/>
  <note>
uniAA1C
</note>
  <outline>
    <contour>
      <point x="1430" y="421" type="curve" smooth="yes"/>
      <point x="1430" y="525"/>
      <point x="1355" y="594"/>
      <point x="1241" y="594" type="curve" smooth="yes"/>
      <point x="1127" y="594"/>
      <point x="1054" y="533"/>
      <point x="1054" y="442" type="curve" smooth="yes"/>
      <point x="1054" y="377"/>
      <point x="1092" y="320"/>
      <point x="1092" y="274" type="curve" smooth="yes"/>
      <point x="1092" y="224"/>
      <point x="1053" y="189"/>
      <point x="1003" y="189" type="curve" smooth="yes"/>
      <point x="958" y="189"/>
      <point x="929" y="208"/>
      <point x="928" y="236" type="curve" smooth="yes"/>
      <point x="927" y="258"/>
      <point x="944" y="270"/>
      <point x="965" y="270" type="curve" smooth="yes"/>
      <point x="1002" y="270"/>
      <point x="1024" y="238"/>
      <point x="1024" y="181" type="curve" smooth="yes"/>
      <point x="1024" y="95"/>
      <point x="974" y="50"/>
      <point x="894" y="50" type="curve" smooth="yes"/>
      <point x="810" y="50"/>
      <point x="760" y="102"/>
      <point x="760" y="174" type="curve" smooth="yes"/>
      <point x="760" y="252"/>
      <point x="820" y="321"/>
      <point x="820" y="421" type="curve" smooth="yes"/>
      <point x="820" y="526"/>
      <point x="737" y="594"/>
      <point x="615" y="594" type="curve" smooth="yes"/>
      <point x="493" y="594"/>
      <point x="412" y="524"/>
      <point x="412" y="424" type="curve" smooth="yes"/>
      <point x="412" y="337"/>
      <point x="455" y="278"/>
      <point x="455" y="196" type="curve" smooth="yes"/>
      <point x="455" y="100"/>
      <point x="395" y="48"/>
      <point x="292" y="48" type="curve" smooth="yes"/>
      <point x="195" y="48"/>
      <point x="132" y="96"/>
      <point x="132" y="166" type="curve" smooth="yes"/>
      <point x="132" y="216"/>
      <point x="164" y="251"/>
      <point x="217" y="251" type="curve" smooth="yes"/>
      <point x="270" y="251"/>
      <point x="303" y="215"/>
      <point x="303" y="152" type="curve" smooth="yes"/>
      <point x="303" y="116"/>
      <point x="290" y="71"/>
      <point x="276" y="43" type="curve"/>
      <point x="343" y="43" type="line"/>
      <point x="356" y="68"/>
      <point x="374" y="114"/>
      <point x="374" y="163" type="curve" smooth="yes"/>
      <point x="374" y="258"/>
      <point x="308" y="317"/>
      <point x="214" y="317" type="curve" smooth="yes"/>
      <point x="114" y="317"/>
      <point x="53" y="251"/>
      <point x="53" y="165" type="curve" smooth="yes"/>
      <point x="53" y="57"/>
      <point x="151" y="-17"/>
      <point x="304" y="-17" type="curve" smooth="yes"/>
      <point x="453" y="-17"/>
      <point x="540" y="65"/>
      <point x="540" y="191" type="curve" smooth="yes"/>
      <point x="540" y="285"/>
      <point x="497" y="345"/>
      <point x="497" y="417" type="curve" smooth="yes"/>
      <point x="497" y="482"/>
      <point x="544" y="525"/>
      <point x="619" y="525" type="curve" smooth="yes"/>
      <point x="692" y="525"/>
      <point x="734" y="479"/>
      <point x="734" y="412" type="curve" smooth="yes"/>
      <point x="734" y="332"/>
      <point x="674" y="264"/>
      <point x="674" y="168" type="curve" smooth="yes"/>
      <point x="674" y="59"/>
      <point x="754" y="-17"/>
      <point x="884" y="-17" type="curve" smooth="yes"/>
      <point x="1009" y="-17"/>
      <point x="1086" y="55"/>
      <point x="1086" y="177" type="curve" smooth="yes"/>
      <point x="1086" y="260"/>
      <point x="1033" y="313"/>
      <point x="966" y="313" type="curve" smooth="yes"/>
      <point x="915" y="313"/>
      <point x="877" y="284"/>
      <point x="878" y="236" type="curve" smooth="yes"/>
      <point x="878" y="180"/>
      <point x="932" y="144"/>
      <point x="1009" y="144" type="curve" smooth="yes"/>
      <point x="1093" y="144"/>
      <point x="1164" y="196"/>
      <point x="1164" y="277" type="curve" smooth="yes"/>
      <point x="1164" y="327"/>
      <point x="1134" y="379"/>
      <point x="1134" y="427" type="curve" smooth="yes"/>
      <point x="1134" y="488"/>
      <point x="1175" y="525"/>
      <point x="1241" y="525" type="curve" smooth="yes"/>
      <point x="1305" y="525"/>
      <point x="1346" y="487"/>
      <point x="1346" y="421" type="curve" smooth="yes"/>
      <point x="1346" y="383"/>
      <point x="1330" y="348"/>
      <point x="1302" y="321" type="curve"/>
      <point x="1366" y="274" type="line"/>
      <point x="1409" y="319"/>
      <point x="1430" y="366"/>
    </contour>
  </outline>
</glyph>
<glyph name="ba_cham" format="2">
  <advance width="1003"/>
  <unicode hex="AA1D"/>
  <note>
uniAA1D
</note>
  <outline>
    <contour>
      <point x="950" y="418" type="curve" smooth="yes"/>
      <point x="950" y="525"/>
      <point x="872" y="594"/>
      <point x="754" y="594" type="curve" smooth="yes"/>
      <point x="642" y="594"/>
      <point x="565" y="526"/>
      <point x="565" y="422" type="curve" smooth="yes"/>
      <point x="565" y="318"/>
      <point x="626" y="248"/>
      <point x="626" y="170" type="curve" smooth="yes"/>
      <point x="626" y="98"/>
      <point x="580" y="51"/>
      <point x="502" y="51" type="curve" smooth="yes"/>
      <point x="424" y="51"/>
      <point x="377" y="98"/>
      <point x="377" y="170" type="curve" smooth="yes"/>
      <point x="377" y="248"/>
      <point x="438" y="318"/>
      <point x="438" y="422" type="curve" smooth="yes"/>
      <point x="438" y="526"/>
      <point x="361" y="594"/>
      <point x="249" y="594" type="curve" smooth="yes"/>
      <point x="131" y="594"/>
      <point x="53" y="525"/>
      <point x="53" y="418" type="curve" smooth="yes"/>
      <point x="53" y="368"/>
      <point x="74" y="312"/>
      <point x="114" y="276" type="curve"/>
      <point x="176" y="325" type="line"/>
      <point x="154" y="348"/>
      <point x="137" y="384"/>
      <point x="137" y="420" type="curve" smooth="yes"/>
      <point x="137" y="485"/>
      <point x="179" y="525"/>
      <point x="247" y="525" type="curve" smooth="yes"/>
      <point x="314" y="525"/>
      <point x="353" y="483"/>
      <point x="353" y="415" type="curve" smooth="yes"/>
      <point x="353" y="332"/>
      <point x="288" y="263"/>
      <point x="288" y="170" type="curve" smooth="yes"/>
      <point x="288" y="59"/>
      <point x="370" y="-17"/>
      <point x="503" y="-17" type="curve" smooth="yes"/>
      <point x="635" y="-17"/>
      <point x="716" y="59"/>
      <point x="716" y="170" type="curve" smooth="yes"/>
      <point x="716" y="263"/>
      <point x="651" y="332"/>
      <point x="651" y="415" type="curve" smooth="yes"/>
      <point x="651" y="483"/>
      <point x="689" y="525"/>
      <point x="756" y="525" type="curve" smooth="yes"/>
      <point x="824" y="525"/>
      <point x="866" y="485"/>
      <point x="866" y="420" type="curve" smooth="yes"/>
      <point x="866" y="384"/>
      <point x="849" y="347"/>
      <point x="827" y="325" type="curve"/>
      <point x="889" y="276" type="line"/>
      <point x="930" y="312"/>
      <point x="950" y="368"/>
    </contour>
  </outline>
</glyph>
<glyph name="bha_cham" format="2">
  <advance width="1310"/>
  <unicode hex="AA1E"/>
  <note>
uniAA1E
</note>
  <outline>
    <contour>
      <point x="1257" y="417" type="curve" smooth="yes"/>
      <point x="1257" y="523"/>
      <point x="1184" y="594"/>
      <point x="1074" y="594" type="curve" smooth="yes"/>
      <point x="962" y="594"/>
      <point x="883" y="519"/>
      <point x="883" y="390" type="curve"/>
      <point x="938" y="390" type="line"/>
      <point x="938" y="519"/>
      <point x="856" y="594"/>
      <point x="743" y="594" type="curve" smooth="yes"/>
      <point x="632" y="594"/>
      <point x="561" y="528"/>
      <point x="561" y="426" type="curve" smooth="yes"/>
      <point x="561" y="335"/>
      <point x="622" y="258"/>
      <point x="622" y="174" type="curve" smooth="yes"/>
      <point x="622" y="98"/>
      <point x="578" y="51"/>
      <point x="502" y="51" type="curve" smooth="yes"/>
      <point x="424" y="51"/>
      <point x="377" y="98"/>
      <point x="377" y="170" type="curve" smooth="yes"/>
      <point x="377" y="248"/>
      <point x="438" y="318"/>
      <point x="438" y="422" type="curve" smooth="yes"/>
      <point x="438" y="526"/>
      <point x="361" y="594"/>
      <point x="249" y="594" type="curve" smooth="yes"/>
      <point x="131" y="594"/>
      <point x="53" y="525"/>
      <point x="53" y="418" type="curve" smooth="yes"/>
      <point x="53" y="368"/>
      <point x="73" y="312"/>
      <point x="113" y="276" type="curve"/>
      <point x="176" y="325" type="line"/>
      <point x="154" y="348"/>
      <point x="137" y="384"/>
      <point x="137" y="420" type="curve" smooth="yes"/>
      <point x="137" y="485"/>
      <point x="178" y="525"/>
      <point x="247" y="525" type="curve" smooth="yes"/>
      <point x="313" y="525"/>
      <point x="352" y="483"/>
      <point x="352" y="415" type="curve" smooth="yes"/>
      <point x="352" y="332"/>
      <point x="287" y="263"/>
      <point x="287" y="170" type="curve" smooth="yes"/>
      <point x="287" y="59"/>
      <point x="370" y="-17"/>
      <point x="503" y="-17" type="curve" smooth="yes"/>
      <point x="633" y="-17"/>
      <point x="711" y="58"/>
      <point x="711" y="173" type="curve" smooth="yes"/>
      <point x="711" y="273"/>
      <point x="647" y="350"/>
      <point x="647" y="424" type="curve" smooth="yes"/>
      <point x="647" y="485"/>
      <point x="686" y="525"/>
      <point x="757" y="525" type="curve" smooth="yes"/>
      <point x="826" y="525"/>
      <point x="876" y="478"/>
      <point x="873" y="380" type="curve"/>
      <point x="948" y="380" type="line"/>
      <point x="945" y="480"/>
      <point x="996" y="525"/>
      <point x="1063" y="525" type="curve" smooth="yes"/>
      <point x="1132" y="525"/>
      <point x="1173" y="484"/>
      <point x="1173" y="418" type="curve" smooth="yes"/>
      <point x="1173" y="380"/>
      <point x="1160" y="347"/>
      <point x="1135" y="320" type="curve"/>
      <point x="1198" y="274" type="line"/>
      <point x="1240" y="318"/>
      <point x="1257" y="363"/>
    </contour>
  </outline>
</glyph>
<glyph name="mue_cham" format="2">
  <advance width="1047"/>
  <unicode hex="AA1F"/>
  <note>
uniAA1F
</note>
  <outline>
    <contour>
      <point x="502" y="326" type="line"/>
      <point x="462" y="275" type="line"/>
      <point x="662" y="110" type="line"/>
      <point x="701" y="160" type="line"/>
    </contour>
    <contour>
      <point x="994" y="421" type="curve" smooth="yes"/>
      <point x="994" y="525"/>
      <point x="918" y="594"/>
      <point x="803" y="594" type="curve" smooth="yes"/>
      <point x="685" y="594"/>
      <point x="613" y="531"/>
      <point x="613" y="439" type="curve" smooth="yes"/>
      <point x="613" y="399"/>
      <point x="627" y="361"/>
      <point x="627" y="334" type="curve" smooth="yes"/>
      <point x="627" y="222"/>
      <point x="464" y="233"/>
      <point x="464" y="113" type="curve" smooth="yes"/>
      <point x="464" y="82"/>
      <point x="474" y="58"/>
      <point x="501" y="29" type="curve"/>
      <point x="496" y="49" type="line"/>
      <point x="492" y="49"/>
      <point x="488" y="49"/>
      <point x="484" y="49" type="curve" smooth="yes"/>
      <point x="416" y="49"/>
      <point x="372" y="99"/>
      <point x="372" y="170" type="curve" smooth="yes"/>
      <point x="372" y="251"/>
      <point x="439" y="319"/>
      <point x="439" y="417" type="curve" smooth="yes"/>
      <point x="439" y="526"/>
      <point x="361" y="594"/>
      <point x="249" y="594" type="curve" smooth="yes"/>
      <point x="132" y="594"/>
      <point x="53" y="525"/>
      <point x="53" y="419" type="curve" smooth="yes"/>
      <point x="53" y="368"/>
      <point x="74" y="316"/>
      <point x="116" y="275" type="curve"/>
      <point x="178" y="323" type="line"/>
      <point x="154" y="349"/>
      <point x="137" y="383"/>
      <point x="137" y="421" type="curve" smooth="yes"/>
      <point x="137" y="486"/>
      <point x="181" y="525"/>
      <point x="248" y="525" type="curve" smooth="yes"/>
      <point x="314" y="525"/>
      <point x="353" y="481"/>
      <point x="353" y="414" type="curve" smooth="yes"/>
      <point x="353" y="329"/>
      <point x="287" y="262"/>
      <point x="287" y="170" type="curve" smooth="yes"/>
      <point x="287" y="61"/>
      <point x="370" y="-17"/>
      <point x="499" y="-17" type="curve" smooth="yes"/>
      <point x="518" y="-17"/>
      <point x="537" y="-17"/>
      <point x="551" y="-16" type="curve"/>
      <point x="569" y="28" type="line"/>
      <point x="542" y="57"/>
      <point x="529" y="81"/>
      <point x="529" y="110" type="curve" smooth="yes"/>
      <point x="529" y="214"/>
      <point x="708" y="195"/>
      <point x="708" y="336" type="curve" smooth="yes"/>
      <point x="708" y="368"/>
      <point x="695" y="396"/>
      <point x="695" y="428" type="curve" smooth="yes"/>
      <point x="695" y="487"/>
      <point x="735" y="525"/>
      <point x="802" y="525" type="curve" smooth="yes"/>
      <point x="868" y="525"/>
      <point x="910" y="486"/>
      <point x="910" y="421" type="curve" smooth="yes"/>
      <point x="910" y="384"/>
      <point x="893" y="350"/>
      <point x="868" y="324" type="curve"/>
      <point x="931" y="276" type="line"/>
      <point x="974" y="316"/>
      <point x="994" y="368"/>
    </contour>
  </outline>
</glyph>
<glyph name="ma_cham" format="2">
  <advance width="1047"/>
  <unicode hex="AA20"/>
  <note>
uniAA20
</note>
  <outline>
    <contour>
      <point x="917" y="-172" type="curve" smooth="yes"/>
      <point x="917" y="-119"/>
      <point x="874" y="-76"/>
      <point x="816" y="-76" type="curve" smooth="yes"/>
      <point x="694" y="-76"/>
      <point x="680" y="-224"/>
      <point x="614" y="-224" type="curve" smooth="yes"/>
      <point x="585" y="-224"/>
      <point x="568" y="-203"/>
      <point x="568" y="-177" type="curve" smooth="yes"/>
      <point x="568" y="-111"/>
      <point x="660" y="22"/>
      <point x="660" y="143" type="curve" smooth="yes"/>
      <point x="660" y="243"/>
      <point x="590" y="316"/>
      <point x="480" y="334" type="curve"/>
      <point x="468" y="284" type="line"/>
      <point x="540" y="272"/>
      <point x="598" y="219"/>
      <point x="598" y="141" type="curve" smooth="yes"/>
      <point x="598" y="9"/>
      <point x="484" y="-97"/>
      <point x="484" y="-186" type="curve" smooth="yes"/>
      <point x="484" y="-254"/>
      <point x="538" y="-299"/>
      <point x="603" y="-299" type="curve" smooth="yes"/>
      <point x="723" y="-299"/>
      <point x="737" y="-149"/>
      <point x="801" y="-149" type="curve" smooth="yes"/>
      <point x="823" y="-149"/>
      <point x="836" y="-162"/>
      <point x="836" y="-183" type="curve" smooth="yes"/>
      <point x="836" y="-195"/>
      <point x="831" y="-209"/>
      <point x="822" y="-222" type="curve"/>
      <point x="890" y="-253" type="line"/>
      <point x="908" y="-228"/>
      <point x="917" y="-195"/>
    </contour>
    <component base="dha_withcrossstroke"/>
  </outline>
</glyph>
<glyph name="ya_cham" format="2">
  <advance width="1298"/>
  <unicode hex="AA22"/>
  <note>
uniAA22
</note>
  <outline>
    <contour>
      <point x="1245" y="418" type="curve" smooth="yes"/>
      <point x="1245" y="523"/>
      <point x="1173" y="594"/>
      <point x="1061" y="594" type="curve" smooth="yes"/>
      <point x="950" y="594"/>
      <point x="872" y="518"/>
      <point x="872" y="390" type="curve"/>
      <point x="925" y="390" type="line"/>
      <point x="926" y="518"/>
      <point x="845" y="594"/>
      <point x="733" y="594" type="curve" smooth="yes"/>
      <point x="625" y="594"/>
      <point x="552" y="525"/>
      <point x="552" y="423" type="curve" smooth="yes"/>
      <point x="552" y="334"/>
      <point x="593" y="272"/>
      <point x="593" y="211" type="curve" smooth="yes"/>
      <point x="593" y="127"/>
      <point x="514" y="70"/>
      <point x="376" y="41" type="curve"/>
      <point x="378" y="19" type="line"/>
      <point x="428" y="139"/>
      <point x="454" y="263"/>
      <point x="454" y="353" type="curve" smooth="yes"/>
      <point x="454" y="509"/>
      <point x="371" y="594"/>
      <point x="250" y="594" type="curve" smooth="yes"/>
      <point x="133" y="594"/>
      <point x="53" y="525"/>
      <point x="53" y="419" type="curve" smooth="yes"/>
      <point x="53" y="368"/>
      <point x="74" y="316"/>
      <point x="116" y="275" type="curve"/>
      <point x="178" y="323" type="line"/>
      <point x="154" y="349"/>
      <point x="137" y="383"/>
      <point x="137" y="421" type="curve" smooth="yes"/>
      <point x="137" y="486"/>
      <point x="181" y="525"/>
      <point x="248" y="525" type="curve" smooth="yes"/>
      <point x="324" y="525"/>
      <point x="368" y="461"/>
      <point x="368" y="349" type="curve" smooth="yes"/>
      <point x="368" y="250"/>
      <point x="335" y="106"/>
      <point x="283" y="-3" type="curve"/>
      <point x="297" y="-44" type="line"/>
      <point x="539" y="-6"/>
      <point x="679" y="79"/>
      <point x="679" y="207" type="curve" smooth="yes"/>
      <point x="679" y="286"/>
      <point x="637" y="345"/>
      <point x="637" y="421" type="curve" smooth="yes"/>
      <point x="637" y="482"/>
      <point x="679" y="525"/>
      <point x="746" y="525" type="curve" smooth="yes"/>
      <point x="815" y="525"/>
      <point x="864" y="477"/>
      <point x="862" y="380" type="curve"/>
      <point x="935" y="380" type="line"/>
      <point x="933" y="479"/>
      <point x="984" y="525"/>
      <point x="1052" y="525" type="curve" smooth="yes"/>
      <point x="1119" y="525"/>
      <point x="1161" y="483"/>
      <point x="1161" y="419" type="curve" smooth="yes"/>
      <point x="1161" y="380"/>
      <point x="1148" y="347"/>
      <point x="1123" y="320" type="curve"/>
      <point x="1186" y="273" type="line"/>
      <point x="1228" y="318"/>
      <point x="1245" y="363"/>
    </contour>
  </outline>
</glyph>
<glyph name="ra_cham" format="2">
  <advance width="864"/>
  <unicode hex="AA23"/>
  <note>
uniAA23
</note>
  <outline>
    <contour>
      <point x="811" y="415" type="curve" smooth="yes"/>
      <point x="811" y="522"/>
      <point x="732" y="594"/>
      <point x="612" y="594" type="curve" smooth="yes"/>
      <point x="494" y="594"/>
      <point x="415" y="526"/>
      <point x="415" y="424" type="curve" smooth="yes"/>
      <point x="415" y="337"/>
      <point x="455" y="278"/>
      <point x="455" y="196" type="curve" smooth="yes"/>
      <point x="455" y="100"/>
      <point x="395" y="48"/>
      <point x="292" y="48" type="curve" smooth="yes"/>
      <point x="195" y="48"/>
      <point x="132" y="96"/>
      <point x="132" y="166" type="curve" smooth="yes"/>
      <point x="132" y="216"/>
      <point x="164" y="251"/>
      <point x="217" y="251" type="curve" smooth="yes"/>
      <point x="270" y="251"/>
      <point x="303" y="215"/>
      <point x="303" y="152" type="curve" smooth="yes"/>
      <point x="303" y="116"/>
      <point x="290" y="71"/>
      <point x="276" y="43" type="curve"/>
      <point x="343" y="43" type="line"/>
      <point x="356" y="68"/>
      <point x="374" y="114"/>
      <point x="374" y="163" type="curve" smooth="yes"/>
      <point x="374" y="258"/>
      <point x="308" y="317"/>
      <point x="214" y="317" type="curve" smooth="yes"/>
      <point x="114" y="317"/>
      <point x="53" y="251"/>
      <point x="53" y="165" type="curve" smooth="yes"/>
      <point x="53" y="57"/>
      <point x="151" y="-17"/>
      <point x="304" y="-17" type="curve" smooth="yes"/>
      <point x="453" y="-17"/>
      <point x="540" y="65"/>
      <point x="540" y="191" type="curve" smooth="yes"/>
      <point x="540" y="285"/>
      <point x="500" y="343"/>
      <point x="500" y="418" type="curve" smooth="yes"/>
      <point x="500" y="482"/>
      <point x="542" y="525"/>
      <point x="613" y="525" type="curve" smooth="yes"/>
      <point x="685" y="525"/>
      <point x="726" y="483"/>
      <point x="726" y="417" type="curve" smooth="yes"/>
      <point x="726" y="379"/>
      <point x="711" y="344"/>
      <point x="689" y="320" type="curve"/>
      <point x="751" y="272" type="line"/>
      <point x="792" y="309"/>
      <point x="811" y="363"/>
    </contour>
  </outline>
</glyph>
<glyph name="la_cham" format="2">
  <advance width="881"/>
  <unicode hex="AA24"/>
  <note>
uniAA24
</note>
  <outline>
    <contour>
      <point x="828" y="421" type="curve" smooth="yes"/>
      <point x="828" y="529"/>
      <point x="763" y="594"/>
      <point x="667" y="594" type="curve" smooth="yes"/>
      <point x="553" y="594"/>
      <point x="530" y="513"/>
      <point x="470" y="513" type="curve" smooth="yes"/>
      <point x="410" y="513"/>
      <point x="385" y="594"/>
      <point x="271" y="594" type="curve" smooth="yes"/>
      <point x="157" y="594"/>
      <point x="80" y="485"/>
      <point x="80" y="308" type="curve" smooth="yes"/>
      <point x="80" y="105"/>
      <point x="190" y="-19"/>
      <point x="339" y="-19" type="curve" smooth="yes"/>
      <point x="412" y="-19"/>
      <point x="457" y="23"/>
      <point x="457" y="82" type="curve" smooth="yes"/>
      <point x="457" y="143"/>
      <point x="411" y="182"/>
      <point x="347" y="182" type="curve" smooth="yes"/>
      <point x="275" y="182"/>
      <point x="226" y="129"/>
      <point x="213" y="48" type="curve"/>
      <point x="265" y="48" type="line"/>
      <point x="273" y="93"/>
      <point x="300" y="131"/>
      <point x="346" y="131" type="curve" smooth="yes"/>
      <point x="376" y="131"/>
      <point x="400" y="116"/>
      <point x="400" y="83" type="curve" smooth="yes"/>
      <point x="400" y="54"/>
      <point x="379" y="35"/>
      <point x="344" y="35" type="curve" smooth="yes"/>
      <point x="245" y="35"/>
      <point x="166" y="130"/>
      <point x="166" y="309" type="curve" smooth="yes"/>
      <point x="166" y="442"/>
      <point x="218" y="518"/>
      <point x="287" y="518" type="curve" smooth="yes"/>
      <point x="369" y="518"/>
      <point x="381" y="437"/>
      <point x="470" y="437" type="curve" smooth="yes"/>
      <point x="559" y="437"/>
      <point x="571" y="518"/>
      <point x="653" y="518" type="curve" smooth="yes"/>
      <point x="703" y="518"/>
      <point x="744" y="481"/>
      <point x="744" y="416" type="curve" smooth="yes"/>
      <point x="744" y="379"/>
      <point x="731" y="347"/>
      <point x="706" y="320" type="curve"/>
      <point x="769" y="274" type="line"/>
      <point x="811" y="318"/>
      <point x="828" y="367"/>
    </contour>
  </outline>
</glyph>
<glyph name="va_cham" format="2">
  <advance width="1047"/>
  <unicode hex="AA25"/>
  <note>
uniAA25
</note>
  <outline>
    <contour>
      <point x="781" y="-113" type="curve" smooth="yes"/>
      <point x="781" y="18"/>
      <point x="723" y="135"/>
      <point x="609" y="241" type="curve"/>
      <point x="558" y="201" type="line"/>
      <point x="675" y="100"/>
      <point x="709" y="-12"/>
      <point x="709" y="-111" type="curve" smooth="yes"/>
      <point x="709" y="-196"/>
      <point x="686" y="-235"/>
      <point x="650" y="-235" type="curve" smooth="yes"/>
      <point x="617" y="-235"/>
      <point x="597" y="-200"/>
      <point x="597" y="-146" type="curve" smooth="yes"/>
      <point x="597" y="-72"/>
      <point x="648" y="39"/>
      <point x="789" y="190" type="curve"/>
      <point x="742" y="237" type="line"/>
      <point x="594" y="80"/>
      <point x="526" y="-41"/>
      <point x="526" y="-148" type="curve" smooth="yes"/>
      <point x="526" y="-240"/>
      <point x="574" y="-299"/>
      <point x="651" y="-299" type="curve" smooth="yes"/>
      <point x="732" y="-299"/>
      <point x="781" y="-232"/>
    </contour>
    <component base="dha_withcrossstroke"/>
  </outline>
</glyph>
<glyph name="ssa_cham" format="2">
  <advance width="1074"/>
  <unicode hex="AA26"/>
  <note>
uniAA26
</note>
  <outline>
    <contour>
      <point x="1021" y="421" type="curve" smooth="yes"/>
      <point x="1021" y="525"/>
      <point x="945" y="594"/>
      <point x="830" y="594" type="curve" smooth="yes"/>
      <point x="712" y="594"/>
      <point x="638" y="531"/>
      <point x="638" y="439" type="curve" smooth="yes"/>
      <point x="638" y="403"/>
      <point x="651" y="368"/>
      <point x="651" y="346" type="curve" smooth="yes"/>
      <point x="651" y="236"/>
      <point x="495" y="241"/>
      <point x="495" y="122" type="curve" smooth="yes"/>
      <point x="495" y="89"/>
      <point x="502" y="67"/>
      <point x="530" y="39" type="curve"/>
      <point x="530" y="52" type="line"/>
      <point x="524" y="52"/>
      <point x="517" y="52"/>
      <point x="511" y="52" type="curve" smooth="yes"/>
      <point x="443" y="52"/>
      <point x="400" y="101"/>
      <point x="400" y="170" type="curve" smooth="yes"/>
      <point x="400" y="251"/>
      <point x="466" y="319"/>
      <point x="466" y="414" type="curve" smooth="yes"/>
      <point x="466" y="523"/>
      <point x="382" y="594"/>
      <point x="260" y="594" type="curve" smooth="yes"/>
      <point x="135" y="594"/>
      <point x="53" y="520"/>
      <point x="53" y="405" type="curve" smooth="yes"/>
      <point x="53" y="301"/>
      <point x="122" y="237"/>
      <point x="202" y="237" type="curve" smooth="yes"/>
      <point x="253" y="237"/>
      <point x="284" y="267"/>
      <point x="284" y="313" type="curve" smooth="yes"/>
      <point x="284" y="352"/>
      <point x="256" y="381"/>
      <point x="211" y="381" type="curve" smooth="yes"/>
      <point x="136" y="381"/>
      <point x="91" y="307"/>
      <point x="84" y="202" type="curve"/>
      <point x="131" y="198" type="line"/>
      <point x="137" y="282"/>
      <point x="162" y="340"/>
      <point x="208" y="340" type="curve" smooth="yes"/>
      <point x="226" y="340"/>
      <point x="242" y="331"/>
      <point x="242" y="310" type="curve" smooth="yes"/>
      <point x="242" y="292"/>
      <point x="232" y="278"/>
      <point x="207" y="278" type="curve" smooth="yes"/>
      <point x="161" y="278"/>
      <point x="126" y="324"/>
      <point x="126" y="398" type="curve" smooth="yes"/>
      <point x="126" y="480"/>
      <point x="178" y="525"/>
      <point x="257" y="525" type="curve" smooth="yes"/>
      <point x="333" y="525"/>
      <point x="380" y="480"/>
      <point x="380" y="411" type="curve" smooth="yes"/>
      <point x="380" y="329"/>
      <point x="314" y="262"/>
      <point x="314" y="170" type="curve" smooth="yes"/>
      <point x="314" y="61"/>
      <point x="397" y="-17"/>
      <point x="526" y="-17" type="curve" smooth="yes"/>
      <point x="550" y="-17"/>
      <point x="574" y="-17"/>
      <point x="591" y="-16" type="curve"/>
      <point x="613" y="37" type="line"/>
      <point x="589" y="65"/>
      <point x="578" y="82"/>
      <point x="578" y="111" type="curve" smooth="yes"/>
      <point x="578" y="204"/>
      <point x="737" y="199"/>
      <point x="737" y="335" type="curve" smooth="yes"/>
      <point x="737" y="367"/>
      <point x="724" y="396"/>
      <point x="724" y="428" type="curve" smooth="yes"/>
      <point x="724" y="487"/>
      <point x="762" y="525"/>
      <point x="829" y="525" type="curve" smooth="yes"/>
      <point x="895" y="525"/>
      <point x="937" y="486"/>
      <point x="937" y="421" type="curve" smooth="yes"/>
      <point x="937" y="384"/>
      <point x="920" y="350"/>
      <point x="895" y="324" type="curve"/>
      <point x="958" y="276" type="line"/>
      <point x="1001" y="316"/>
      <point x="1021" y="368"/>
    </contour>
  </outline>
</glyph>
<glyph name="sa_cham" format="2">
  <advance width="1185"/>
  <unicode hex="AA27"/>
  <note>
uniAA27
</note>
  <outline>
    <contour>
      <point x="1132" y="421" type="curve" smooth="yes"/>
      <point x="1132" y="529"/>
      <point x="1067" y="594"/>
      <point x="971" y="594" type="curve" smooth="yes"/>
      <point x="857" y="594"/>
      <point x="834" y="513"/>
      <point x="774" y="513" type="curve" smooth="yes"/>
      <point x="714" y="513"/>
      <point x="689" y="594"/>
      <point x="577" y="594" type="curve" smooth="yes"/>
      <point x="482" y="594"/>
      <point x="414" y="532"/>
      <point x="414" y="432" type="curve" smooth="yes"/>
      <point x="414" y="342"/>
      <point x="455" y="277"/>
      <point x="455" y="196" type="curve" smooth="yes"/>
      <point x="455" y="100"/>
      <point x="395" y="48"/>
      <point x="292" y="48" type="curve" smooth="yes"/>
      <point x="195" y="48"/>
      <point x="132" y="96"/>
      <point x="132" y="166" type="curve" smooth="yes"/>
      <point x="132" y="216"/>
      <point x="164" y="251"/>
      <point x="217" y="251" type="curve" smooth="yes"/>
      <point x="270" y="251"/>
      <point x="303" y="215"/>
      <point x="303" y="152" type="curve" smooth="yes"/>
      <point x="303" y="116"/>
      <point x="290" y="71"/>
      <point x="276" y="43" type="curve"/>
      <point x="343" y="43" type="line"/>
      <point x="356" y="68"/>
      <point x="374" y="114"/>
      <point x="374" y="163" type="curve" smooth="yes"/>
      <point x="374" y="258"/>
      <point x="308" y="317"/>
      <point x="214" y="317" type="curve" smooth="yes"/>
      <point x="114" y="317"/>
      <point x="53" y="251"/>
      <point x="53" y="165" type="curve" smooth="yes"/>
      <point x="53" y="57"/>
      <point x="151" y="-17"/>
      <point x="304" y="-17" type="curve" smooth="yes"/>
      <point x="453" y="-17"/>
      <point x="540" y="65"/>
      <point x="540" y="191" type="curve" smooth="yes"/>
      <point x="540" y="285"/>
      <point x="499" y="347"/>
      <point x="499" y="420" type="curve" smooth="yes"/>
      <point x="499" y="483"/>
      <point x="540" y="518"/>
      <point x="591" y="518" type="curve" smooth="yes"/>
      <point x="673" y="518"/>
      <point x="685" y="437"/>
      <point x="774" y="437" type="curve" smooth="yes"/>
      <point x="863" y="437"/>
      <point x="875" y="518"/>
      <point x="957" y="518" type="curve" smooth="yes"/>
      <point x="1007" y="518"/>
      <point x="1048" y="481"/>
      <point x="1048" y="416" type="curve" smooth="yes"/>
      <point x="1048" y="379"/>
      <point x="1035" y="347"/>
      <point x="1010" y="320" type="curve"/>
      <point x="1073" y="274" type="line"/>
      <point x="1115" y="318"/>
      <point x="1132" y="367"/>
    </contour>
  </outline>
</glyph>
<glyph name="ha_cham" format="2">
  <advance width="1165"/>
  <unicode hex="AA28"/>
  <note>
uniAA28
</note>
  <outline>
    <contour>
      <point x="1112" y="403" type="curve" smooth="yes"/>
      <point x="1112" y="516"/>
      <point x="1040" y="594"/>
      <point x="928" y="594" type="curve" smooth="yes"/>
      <point x="815" y="594"/>
      <point x="734" y="518"/>
      <point x="734" y="390" type="curve"/>
      <point x="787" y="390" type="line"/>
      <point x="788" y="518"/>
      <point x="707" y="594"/>
      <point x="594" y="594" type="curve" smooth="yes"/>
      <point x="487" y="594"/>
      <point x="414" y="524"/>
      <point x="414" y="424" type="curve" smooth="yes"/>
      <point x="414" y="337"/>
      <point x="455" y="278"/>
      <point x="455" y="196" type="curve" smooth="yes"/>
      <point x="455" y="100"/>
      <point x="395" y="48"/>
      <point x="292" y="48" type="curve" smooth="yes"/>
      <point x="195" y="48"/>
      <point x="132" y="96"/>
      <point x="132" y="166" type="curve" smooth="yes"/>
      <point x="132" y="216"/>
      <point x="164" y="251"/>
      <point x="217" y="251" type="curve" smooth="yes"/>
      <point x="270" y="251"/>
      <point x="303" y="215"/>
      <point x="303" y="152" type="curve" smooth="yes"/>
      <point x="303" y="116"/>
      <point x="290" y="71"/>
      <point x="276" y="43" type="curve"/>
      <point x="343" y="43" type="line"/>
      <point x="356" y="68"/>
      <point x="374" y="114"/>
      <point x="374" y="163" type="curve" smooth="yes"/>
      <point x="374" y="258"/>
      <point x="308" y="317"/>
      <point x="214" y="317" type="curve" smooth="yes"/>
      <point x="114" y="317"/>
      <point x="53" y="251"/>
      <point x="53" y="165" type="curve" smooth="yes"/>
      <point x="53" y="57"/>
      <point x="151" y="-17"/>
      <point x="304" y="-17" type="curve" smooth="yes"/>
      <point x="453" y="-17"/>
      <point x="540" y="65"/>
      <point x="540" y="191" type="curve" smooth="yes"/>
      <point x="540" y="285"/>
      <point x="500" y="343"/>
      <point x="500" y="420" type="curve" smooth="yes"/>
      <point x="500" y="483"/>
      <point x="541" y="525"/>
      <point x="608" y="525" type="curve" smooth="yes"/>
      <point x="677" y="525"/>
      <point x="726" y="477"/>
      <point x="724" y="380" type="curve"/>
      <point x="797" y="380" type="line"/>
      <point x="795" y="480"/>
      <point x="850" y="525"/>
      <point x="922" y="525" type="curve" smooth="yes"/>
      <point x="995" y="525"/>
      <point x="1038" y="479"/>
      <point x="1038" y="398" type="curve" smooth="yes"/>
      <point x="1038" y="310"/>
      <point x="1008" y="256"/>
      <point x="935" y="256" type="curve" smooth="yes"/>
      <point x="897" y="256"/>
      <point x="877" y="271"/>
      <point x="877" y="295" type="curve" smooth="yes"/>
      <point x="877" y="318"/>
      <point x="894" y="331"/>
      <point x="919" y="331" type="curve" smooth="yes"/>
      <point x="958" y="331"/>
      <point x="985" y="299"/>
      <point x="1002" y="247" type="curve"/>
      <point x="1046" y="274" type="line"/>
      <point x="1019" y="337"/>
      <point x="974" y="374"/>
      <point x="918" y="374" type="curve" smooth="yes"/>
      <point x="864" y="374"/>
      <point x="827" y="343"/>
      <point x="827" y="296" type="curve" smooth="yes"/>
      <point x="827" y="245"/>
      <point x="870" y="210"/>
      <point x="942" y="210" type="curve" smooth="yes"/>
      <point x="1055" y="210"/>
      <point x="1112" y="293"/>
    </contour>
  </outline>
</glyph>
<glyph name="aaSign_cham" format="2">
  <unicode hex="AA29"/>
  <note>
uniAA29
</note>
  <outline>
    <contour>
      <point x="127" y="876" type="curve" smooth="yes"/>
      <point x="127" y="963"/>
      <point x="58" y="1023"/>
      <point x="-43" y="1023" type="curve" smooth="yes"/>
      <point x="-146" y="1023"/>
      <point x="-213" y="964"/>
      <point x="-213" y="878" type="curve" smooth="yes"/>
      <point x="-213" y="760"/>
      <point x="-54" y="704"/>
      <point x="-54" y="609" type="curve" smooth="yes"/>
      <point x="-54" y="578"/>
      <point x="-71" y="550"/>
      <point x="-111" y="538" type="curve"/>
      <point x="-95" y="474" type="line"/>
      <point x="-11" y="492"/>
      <point x="25" y="548"/>
      <point x="25" y="607" type="curve" smooth="yes"/>
      <point x="25" y="732"/>
      <point x="-134" y="776"/>
      <point x="-134" y="876" type="curve" smooth="yes"/>
      <point x="-134" y="925"/>
      <point x="-98" y="958"/>
      <point x="-43" y="958" type="curve" smooth="yes"/>
      <point x="11" y="958"/>
      <point x="50" y="924"/>
      <point x="50" y="878" type="curve" smooth="yes"/>
      <point x="50" y="854"/>
      <point x="41" y="832"/>
      <point x="29" y="816" type="curve"/>
      <point x="92" y="778" type="line"/>
      <point x="115" y="806"/>
      <point x="127" y="841"/>
    </contour>
  </outline>
</glyph>
<glyph name="iSign_cham" format="2">
  <unicode hex="AA2A"/>
  <note>
uniAA2A
</note>
  <outline>
    <contour>
      <point x="61" y="821" type="curve" smooth="yes"/>
      <point x="61" y="943"/>
      <point x="-29" y="1023"/>
      <point x="-147" y="1023" type="curve" smooth="yes"/>
      <point x="-272" y="1023"/>
      <point x="-351" y="949"/>
      <point x="-351" y="844" type="curve" smooth="yes"/>
      <point x="-351" y="758"/>
      <point x="-293" y="702"/>
      <point x="-196" y="702" type="curve" smooth="yes"/>
      <point x="-161" y="702" type="line" smooth="yes"/>
      <point x="-113" y="702"/>
      <point x="-92" y="683"/>
      <point x="-92" y="654" type="curve" smooth="yes"/>
      <point x="-92" y="621"/>
      <point x="-103" y="600"/>
      <point x="-152" y="555" type="curve"/>
      <point x="-99" y="508" type="line"/>
      <point x="4" y="608"/>
      <point x="61" y="714"/>
    </contour>
    <contour>
      <point x="-19" y="821" type="curve" smooth="yes"/>
      <point x="-19" y="770"/>
      <point x="-34" y="711"/>
      <point x="-66" y="660" type="curve"/>
      <point x="-45" y="660" type="line"/>
      <point x="-45" y="676" type="line" smooth="yes"/>
      <point x="-45" y="735"/>
      <point x="-78" y="765"/>
      <point x="-137" y="765" type="curve" smooth="yes"/>
      <point x="-180" y="765" type="line" smooth="yes"/>
      <point x="-240" y="765"/>
      <point x="-272" y="797"/>
      <point x="-272" y="850" type="curve" smooth="yes"/>
      <point x="-272" y="912"/>
      <point x="-225" y="958"/>
      <point x="-148" y="958" type="curve" smooth="yes"/>
      <point x="-73" y="958"/>
      <point x="-19" y="908"/>
    </contour>
  </outline>
</glyph>
<glyph name="iiSign_cham" format="2">
  <unicode hex="AA2B"/>
  <note>
uniAA2B
</note>
  <outline>
    <contour>
      <point x="-146" y="811" type="curve" smooth="yes"/>
      <point x="-118" y="811"/>
      <point x="-101" y="829"/>
      <point x="-101" y="856" type="curve" smooth="yes"/>
      <point x="-101" y="885"/>
      <point x="-118" y="902"/>
      <point x="-146" y="902" type="curve" smooth="yes"/>
      <point x="-174" y="902"/>
      <point x="-191" y="885"/>
      <point x="-191" y="856" type="curve" smooth="yes"/>
      <point x="-191" y="829"/>
      <point x="-174" y="811"/>
    </contour>
    <contour>
      <point x="61" y="820" type="curve" smooth="yes"/>
      <point x="61" y="943"/>
      <point x="-29" y="1023"/>
      <point x="-148" y="1023" type="curve" smooth="yes"/>
      <point x="-273" y="1023"/>
      <point x="-350" y="951"/>
      <point x="-350" y="844" type="curve" smooth="yes"/>
      <point x="-350" y="760"/>
      <point x="-292" y="702"/>
      <point x="-196" y="702" type="curve" smooth="yes"/>
      <point x="-161" y="702" type="line" smooth="yes"/>
      <point x="-113" y="702"/>
      <point x="-92" y="683"/>
      <point x="-92" y="654" type="curve" smooth="yes"/>
      <point x="-92" y="621"/>
      <point x="-103" y="600"/>
      <point x="-152" y="555" type="curve"/>
      <point x="-99" y="508" type="line"/>
      <point x="4" y="608"/>
      <point x="61" y="714"/>
    </contour>
    <contour>
      <point x="-16" y="820" type="curve" smooth="yes"/>
      <point x="-16" y="764"/>
      <point x="-31" y="701"/>
      <point x="-63" y="660" type="curve"/>
      <point x="-45" y="658" type="line"/>
      <point x="-45" y="674" type="line" smooth="yes"/>
      <point x="-45" y="733"/>
      <point x="-78" y="763"/>
      <point x="-137" y="763" type="curve" smooth="yes"/>
      <point x="-180" y="763" type="line" smooth="yes"/>
      <point x="-241" y="763"/>
      <point x="-276" y="798"/>
      <point x="-276" y="851" type="curve" smooth="yes"/>
      <point x="-276" y="915"/>
      <point x="-228" y="960"/>
      <point x="-149" y="960" type="curve" smooth="yes"/>
      <point x="-71" y="960"/>
      <point x="-16" y="909"/>
    </contour>
  </outline>
</glyph>
<glyph name="eiSign_cham" format="2">
  <unicode hex="AA2C"/>
  <note>
uniAA2C
</note>
  <outline>
    <contour>
      <point x="61" y="821" type="curve" smooth="yes"/>
      <point x="61" y="943"/>
      <point x="-29" y="1023"/>
      <point x="-147" y="1023" type="curve" smooth="yes"/>
      <point x="-272" y="1023"/>
      <point x="-351" y="949"/>
      <point x="-351" y="844" type="curve" smooth="yes"/>
      <point x="-351" y="758"/>
      <point x="-293" y="702"/>
      <point x="-196" y="702" type="curve" smooth="yes"/>
      <point x="-161" y="702" type="line" smooth="yes"/>
      <point x="-113" y="702"/>
      <point x="-92" y="683"/>
      <point x="-92" y="654" type="curve" smooth="yes"/>
      <point x="-92" y="621"/>
      <point x="-103" y="600"/>
      <point x="-152" y="555" type="curve"/>
      <point x="-99" y="508" type="line"/>
      <point x="4" y="608"/>
      <point x="61" y="714"/>
    </contour>
    <contour>
      <point x="-11" y="824" type="curve" smooth="yes"/>
      <point x="-11" y="769"/>
      <point x="-31" y="701"/>
      <point x="-63" y="660" type="curve"/>
      <point x="-45" y="658" type="line"/>
      <point x="-45" y="674" type="line" smooth="yes"/>
      <point x="-45" y="733"/>
      <point x="-78" y="763"/>
      <point x="-137" y="763" type="curve" smooth="yes"/>
      <point x="-180" y="763" type="line" smooth="yes"/>
      <point x="-241" y="763"/>
      <point x="-276" y="798"/>
      <point x="-276" y="851" type="curve" smooth="yes"/>
      <point x="-276" y="915"/>
      <point x="-228" y="960"/>
      <point x="-149" y="960" type="curve" smooth="yes"/>
      <point x="-71" y="960"/>
      <point x="-11" y="914"/>
    </contour>
    <contour>
      <point x="-150" y="882" type="curve"/>
      <point x="-150" y="825" type="line"/>
      <point x="4" y="809"/>
      <point x="88" y="827"/>
      <point x="174" y="870" type="curve"/>
      <point x="152" y="921" type="line"/>
      <point x="70" y="882"/>
      <point x="-15" y="864"/>
    </contour>
  </outline>
</glyph>
<glyph name="uSign_cham" format="2">
  <unicode hex="AA2D"/>
  <note>
Used with double marks below. Right side-bearing is increased and kerned with following bases to accommodate marks shifted right.
</note>
  <outline>
    <contour>
      <point x="11" y="120" type="curve"/>
      <point x="-39" y="120" type="line"/>
      <point x="-49" y="81"/>
      <point x="-63" y="62"/>
      <point x="-94" y="62" type="curve" smooth="yes"/>
      <point x="-136" y="62"/>
      <point x="-187" y="119"/>
      <point x="-246" y="119" type="curve" smooth="yes"/>
      <point x="-309" y="119"/>
      <point x="-348" y="70"/>
      <point x="-356" y="-9" type="curve"/>
      <point x="-305" y="-9" type="line"/>
      <point x="-296" y="30"/>
      <point x="-282" y="49"/>
      <point x="-250" y="49" type="curve" smooth="yes"/>
      <point x="-206" y="49"/>
      <point x="-154" y="-8"/>
      <point x="-98" y="-8" type="curve" smooth="yes"/>
      <point x="-35" y="-8"/>
      <point x="3" y="42"/>
    </contour>
  </outline>
</glyph>
<glyph name="oeSign_cham" format="2">
  <unicode hex="AA2E"/>
  <note>
uniAA2E
</note>
  <outline>
    <contour>
      <point x="-6" y="911" type="curve"/>
      <point x="-83" y="911" type="line"/>
      <point x="-83" y="822"/>
      <point x="-148" y="764"/>
      <point x="-233" y="764" type="curve" smooth="yes"/>
      <point x="-276" y="764"/>
      <point x="-319" y="776"/>
      <point x="-344" y="795" type="curve"/>
      <point x="-388" y="745" type="line"/>
      <point x="-355" y="715"/>
      <point x="-291" y="700"/>
      <point x="-229" y="700" type="curve" smooth="yes"/>
      <point x="-94" y="700"/>
      <point x="-6" y="800"/>
    </contour>
  </outline>
</glyph>
<glyph name="oSign_cham" format="2">
  <advance width="538"/>
  <unicode hex="AA2F"/>
  <note>
uniAA2F
</note>
  <outline>
    <contour>
      <point x="498" y="444" type="line"/>
      <point x="476" y="537"/>
      <point x="400" y="594"/>
      <point x="294" y="594" type="curve" smooth="yes"/>
      <point x="159" y="594"/>
      <point x="67" y="500"/>
      <point x="67" y="355" type="curve" smooth="yes"/>
      <point x="67" y="206"/>
      <point x="164" y="118"/>
      <point x="274" y="118" type="curve" smooth="yes"/>
      <point x="341" y="118"/>
      <point x="383" y="157"/>
      <point x="383" y="214" type="curve" smooth="yes"/>
      <point x="383" y="270"/>
      <point x="342" y="306"/>
      <point x="282" y="306" type="curve" smooth="yes"/>
      <point x="215" y="306"/>
      <point x="168" y="253"/>
      <point x="157" y="180" type="curve"/>
      <point x="200" y="180" type="line"/>
      <point x="207" y="222"/>
      <point x="235" y="260"/>
      <point x="278" y="260" type="curve" smooth="yes"/>
      <point x="308" y="260"/>
      <point x="333" y="245"/>
      <point x="333" y="213" type="curve" smooth="yes"/>
      <point x="333" y="186"/>
      <point x="309" y="166"/>
      <point x="277" y="166" type="curve" smooth="yes"/>
      <point x="207" y="166"/>
      <point x="147" y="231"/>
      <point x="147" y="352" type="curve" smooth="yes"/>
      <point x="147" y="459"/>
      <point x="207" y="525"/>
      <point x="294" y="525" type="curve" smooth="yes"/>
      <point x="361" y="525"/>
      <point x="409" y="486"/>
      <point x="425" y="422" type="curve"/>
    </contour>
  </outline>
</glyph>
<glyph name="auSign_cham" format="2">
  <unicode hex="AA31"/>
  <outline>
    <contour>
      <point x="189" y="999" type="curve"/>
      <point x="121" y="1020" type="line"/>
      <point x="105" y="965"/>
      <point x="80" y="930"/>
      <point x="44" y="930" type="curve" smooth="yes"/>
      <point x="0" y="930"/>
      <point x="-73" y="984"/>
      <point x="-138" y="984" type="curve" smooth="yes"/>
      <point x="-212" y="984"/>
      <point x="-273" y="932"/>
      <point x="-273" y="866" type="curve" smooth="yes"/>
      <point x="-273" y="802"/>
      <point x="-231" y="770"/>
      <point x="-169" y="731" type="curve" smooth="yes"/>
      <point x="-111" y="694"/>
      <point x="-81" y="673"/>
      <point x="-81" y="629" type="curve" smooth="yes"/>
      <point x="-81" y="595"/>
      <point x="-100" y="567"/>
      <point x="-151" y="535" type="curve"/>
      <point x="-104" y="489" type="line"/>
      <point x="-45" y="522"/>
      <point x="-6" y="570"/>
      <point x="-6" y="630" type="curve" smooth="yes"/>
      <point x="-6" y="702"/>
      <point x="-51" y="736"/>
      <point x="-115" y="776" type="curve" smooth="yes"/>
      <point x="-172" y="811"/>
      <point x="-198" y="830"/>
      <point x="-198" y="865" type="curve" smooth="yes"/>
      <point x="-198" y="897"/>
      <point x="-171" y="919"/>
      <point x="-133" y="919" type="curve" smooth="yes"/>
      <point x="-82" y="919"/>
      <point x="-13" y="864"/>
      <point x="53" y="864" type="curve" smooth="yes"/>
      <point x="114" y="864"/>
      <point x="166" y="914"/>
    </contour>
  </outline>
</glyph>
<glyph name="ueSign_cham" format="2">
  <unicode hex="AA32"/>
  <note>
uniAA32
</note>
  <outline>
    <contour>
      <point x="-98" y="108" type="curve"/>
      <point x="-167" y="80" type="line"/>
      <point x="-152" y="56"/>
      <point x="-144" y="24"/>
      <point x="-144" y="-11" type="curve" smooth="yes"/>
      <point x="-144" y="-60"/>
      <point x="-162" y="-115"/>
      <point x="-188" y="-166" type="curve"/>
      <point x="-117" y="-190" type="line"/>
      <point x="-88" y="-136"/>
      <point x="-66" y="-69"/>
      <point x="-66" y="-6" type="curve" smooth="yes"/>
      <point x="-66" y="43"/>
      <point x="-79" y="85"/>
    </contour>
  </outline>
</glyph>
<glyph name="yaMedial_cham" format="2">
  <advance width="542"/>
  <unicode hex="AA33"/>
  <note>
uniAA33
</note>
  <outline>
    <contour>
      <point x="489" y="421" type="curve" smooth="yes"/>
      <point x="489" y="525"/>
      <point x="412" y="594"/>
      <point x="296" y="594" type="curve" smooth="yes"/>
      <point x="179" y="594"/>
      <point x="107" y="530"/>
      <point x="107" y="436" type="curve" smooth="yes"/>
      <point x="107" y="394"/>
      <point x="123" y="351"/>
      <point x="123" y="320" type="curve" smooth="yes"/>
      <point x="123" y="288"/>
      <point x="111" y="261"/>
      <point x="77" y="241" type="curve"/>
      <point x="86" y="235" type="line"/>
      <point x="91" y="333"/>
      <point x="30" y="412"/>
      <point x="-81" y="424" type="curve"/>
      <point x="-78" y="351" type="line"/>
      <point x="-12" y="347"/>
      <point x="33" y="300"/>
      <point x="33" y="231" type="curve" smooth="yes"/>
      <point x="33" y="220"/>
      <point x="32" y="209"/>
      <point x="30" y="199" type="curve"/>
      <point x="56" y="172" type="line"/>
      <point x="147" y="200"/>
      <point x="202" y="252"/>
      <point x="202" y="319" type="curve" smooth="yes"/>
      <point x="202" y="358"/>
      <point x="189" y="394"/>
      <point x="189" y="429" type="curve" smooth="yes"/>
      <point x="189" y="487"/>
      <point x="229" y="525"/>
      <point x="296" y="525" type="curve" smooth="yes"/>
      <point x="362" y="525"/>
      <point x="405" y="487"/>
      <point x="405" y="421" type="curve" smooth="yes"/>
      <point x="405" y="383"/>
      <point x="389" y="348"/>
      <point x="362" y="321" type="curve"/>
      <point x="425" y="274" type="line"/>
      <point x="468" y="319"/>
      <point x="489" y="366"/>
    </contour>
  </outline>
</glyph>
<glyph name="raMedial_cham" format="2">
  <advance width="400"/>
  <unicode hex="AA34"/>
  <note>
uniAA34
</note>
  <outline>
    <contour>
      <point x="887" y="-334" type="curve"/>
      <point x="922" y="-276" type="line"/>
      <point x="821" y="-207"/>
      <point x="727" y="-170"/>
      <point x="659" y="-170" type="curve" smooth="yes"/>
      <point x="584" y="-170"/>
      <point x="523" y="-214"/>
      <point x="504" y="-297" type="curve"/>
      <point x="541" y="-281" type="line"/>
      <point x="373" y="-189"/>
      <point x="223" y="40"/>
      <point x="223" y="313" type="curve" smooth="yes"/>
      <point x="223" y="512"/>
      <point x="303" y="693"/>
      <point x="459" y="850" type="curve"/>
      <point x="427" y="908" type="line"/>
      <point x="196" y="908" type="line" smooth="yes"/>
      <point x="86" y="908"/>
      <point x="11" y="850"/>
      <point x="11" y="769" type="curve" smooth="yes"/>
      <point x="11" y="733"/>
      <point x="18" y="708"/>
      <point x="45" y="671" type="curve"/>
      <point x="110" y="710" type="line"/>
      <point x="96" y="733"/>
      <point x="91" y="747"/>
      <point x="91" y="768" type="curve" smooth="yes"/>
      <point x="91" y="808"/>
      <point x="130" y="840"/>
      <point x="197" y="840" type="curve" smooth="yes"/>
      <point x="427" y="840" type="line"/>
      <point x="395" y="882" type="line"/>
      <point x="221" y="717"/>
      <point x="134" y="526"/>
      <point x="134" y="313" type="curve" smooth="yes"/>
      <point x="134" y="17"/>
      <point x="299" y="-229"/>
      <point x="499" y="-334" type="curve"/>
      <point x="561" y="-313" type="line"/>
      <point x="577" y="-267"/>
      <point x="613" y="-238"/>
      <point x="661" y="-238" type="curve" smooth="yes"/>
      <point x="715" y="-238"/>
      <point x="787" y="-268"/>
    </contour>
  </outline>
</glyph>
<glyph name="laMedial_cham" format="2">
  <unicode hex="AA35"/>
  <note>
uniAA35
</note>
  <outline>
    <contour>
      <point x="54" y="151" type="curve"/>
      <point x="-9" y="172" type="line"/>
      <point x="-17" y="133"/>
      <point x="-36" y="111"/>
      <point x="-69" y="111" type="curve" smooth="yes"/>
      <point x="-107" y="111"/>
      <point x="-140" y="132"/>
      <point x="-189" y="132" type="curve" smooth="yes"/>
      <point x="-281" y="132"/>
      <point x="-331" y="56"/>
      <point x="-331" y="-44" type="curve" smooth="yes"/>
      <point x="-331" y="-153"/>
      <point x="-275" y="-199"/>
      <point x="-205" y="-199" type="curve" smooth="yes"/>
      <point x="-151" y="-199"/>
      <point x="-107" y="-163"/>
      <point x="-107" y="-103" type="curve" smooth="yes"/>
      <point x="-107" y="-32"/>
      <point x="-167" y="7"/>
      <point x="-250" y="7" type="curve" smooth="yes"/>
      <point x="-271" y="7"/>
      <point x="-289" y="5"/>
      <point x="-307" y="-1" type="curve"/>
      <point x="-301" y="-61" type="line"/>
      <point x="-284" y="-51"/>
      <point x="-265" y="-46"/>
      <point x="-248" y="-46" type="curve" smooth="yes"/>
      <point x="-201" y="-46"/>
      <point x="-171" y="-66"/>
      <point x="-171" y="-102" type="curve" smooth="yes"/>
      <point x="-171" y="-126"/>
      <point x="-185" y="-141"/>
      <point x="-206" y="-141" type="curve" smooth="yes"/>
      <point x="-236" y="-141"/>
      <point x="-267" y="-113"/>
      <point x="-267" y="-45" type="curve" smooth="yes"/>
      <point x="-267" y="22"/>
      <point x="-234" y="63"/>
      <point x="-179" y="63" type="curve" smooth="yes"/>
      <point x="-133" y="63"/>
      <point x="-104" y="40"/>
      <point x="-49" y="40" type="curve" smooth="yes"/>
      <point x="6" y="40"/>
      <point x="43" y="80"/>
    </contour>
  </outline>
</glyph>
<glyph name="waMedial_cham" format="2">
  <unicode hex="AA36"/>
  <note>
uniAA36
</note>
  <outline>
    <contour>
      <point x="-45" y="156" type="line"/>
      <point x="-174" y="108"/>
      <point x="-247" y="14"/>
      <point x="-247" y="-72" type="curve" smooth="yes"/>
      <point x="-247" y="-144"/>
      <point x="-201" y="-198"/>
      <point x="-132" y="-198" type="curve" smooth="yes"/>
      <point x="-62" y="-198"/>
      <point x="-16" y="-144"/>
      <point x="-16" y="-72" type="curve" smooth="yes"/>
      <point x="-16" y="15"/>
      <point x="-91" y="109"/>
      <point x="-222" y="157" type="curve"/>
      <point x="-247" y="104" type="line"/>
      <point x="-131" y="58"/>
      <point x="-84" y="-14"/>
      <point x="-84" y="-72" type="curve" smooth="yes"/>
      <point x="-84" y="-110"/>
      <point x="-101" y="-140"/>
      <point x="-132" y="-140" type="curve" smooth="yes"/>
      <point x="-163" y="-140"/>
      <point x="-180" y="-110"/>
      <point x="-180" y="-72" type="curve" smooth="yes"/>
      <point x="-180" y="-14"/>
      <point x="-133" y="58"/>
      <point x="-19" y="104" type="curve"/>
    </contour>
  </outline>
</glyph>
<glyph name="kFinal_cham" format="2">
  <advance width="898"/>
  <unicode hex="AA40"/>
  <note>
uniAA40
</note>
  <outline>
    <contour>
      <point x="818" y="327" type="curve" smooth="yes"/>
      <point x="818" y="492"/>
      <point x="743" y="594"/>
      <point x="618" y="594" type="curve" smooth="yes"/>
      <point x="508" y="594"/>
      <point x="428" y="518"/>
      <point x="428" y="390" type="curve"/>
      <point x="483" y="390" type="line"/>
      <point x="483" y="518"/>
      <point x="402" y="594"/>
      <point x="289" y="594" type="curve" smooth="yes"/>
      <point x="181" y="594"/>
      <point x="108" y="524"/>
      <point x="108" y="424" type="curve" smooth="yes"/>
      <point x="108" y="330"/>
      <point x="170" y="255"/>
      <point x="170" y="173" type="curve" smooth="yes"/>
      <point x="170" y="93"/>
      <point x="123" y="42"/>
      <point x="48" y="27" type="curve"/>
      <point x="64" y="-45" type="line"/>
      <point x="183" y="-25"/>
      <point x="256" y="56"/>
      <point x="256" y="168" type="curve" smooth="yes"/>
      <point x="256" y="267"/>
      <point x="194" y="344"/>
      <point x="194" y="420" type="curve" smooth="yes"/>
      <point x="194" y="483"/>
      <point x="235" y="525"/>
      <point x="302" y="525" type="curve" smooth="yes"/>
      <point x="372" y="525"/>
      <point x="421" y="477"/>
      <point x="418" y="379" type="curve"/>
      <point x="493" y="379" type="line"/>
      <point x="490" y="480"/>
      <point x="542" y="525"/>
      <point x="607" y="525" type="curve" smooth="yes"/>
      <point x="688" y="525"/>
      <point x="732" y="452"/>
      <point x="732" y="328" type="curve" smooth="yes"/>
      <point x="732" y="176"/>
      <point x="652" y="28"/>
      <point x="523" y="-66" type="curve"/>
      <point x="581" y="-122" type="line"/>
      <point x="727" y="-16"/>
      <point x="818" y="156"/>
    </contour>
  </outline>
</glyph>
<glyph name="gFinal_cham" format="2">
  <advance width="941"/>
  <unicode hex="AA41"/>
  <note>
uniAA41
</note>
  <outline>
    <contour>
      <point x="861" y="329" type="curve" smooth="yes"/>
      <point x="861" y="493"/>
      <point x="780" y="594"/>
      <point x="642" y="594" type="curve" smooth="yes"/>
      <point x="524" y="594"/>
      <point x="444" y="514"/>
      <point x="444" y="386" type="curve"/>
      <point x="498" y="386" type="line"/>
      <point x="498" y="513"/>
      <point x="422" y="594"/>
      <point x="305" y="594" type="curve" smooth="yes"/>
      <point x="166" y="594"/>
      <point x="80" y="485"/>
      <point x="80" y="308" type="curve" smooth="yes"/>
      <point x="80" y="105"/>
      <point x="190" y="-19"/>
      <point x="339" y="-19" type="curve" smooth="yes"/>
      <point x="412" y="-19"/>
      <point x="457" y="23"/>
      <point x="457" y="82" type="curve" smooth="yes"/>
      <point x="457" y="143"/>
      <point x="411" y="182"/>
      <point x="347" y="182" type="curve" smooth="yes"/>
      <point x="275" y="182"/>
      <point x="226" y="129"/>
      <point x="213" y="48" type="curve"/>
      <point x="265" y="48" type="line"/>
      <point x="273" y="93"/>
      <point x="300" y="131"/>
      <point x="346" y="131" type="curve" smooth="yes"/>
      <point x="376" y="131"/>
      <point x="400" y="116"/>
      <point x="400" y="83" type="curve" smooth="yes"/>
      <point x="400" y="54"/>
      <point x="379" y="35"/>
      <point x="344" y="35" type="curve" smooth="yes"/>
      <point x="245" y="35"/>
      <point x="166" y="130"/>
      <point x="166" y="309" type="curve" smooth="yes"/>
      <point x="166" y="444"/>
      <point x="221" y="525"/>
      <point x="312" y="525" type="curve" smooth="yes"/>
      <point x="386" y="525"/>
      <point x="437" y="472"/>
      <point x="434" y="377" type="curve"/>
      <point x="508" y="377" type="line"/>
      <point x="506" y="475"/>
      <point x="560" y="525"/>
      <point x="633" y="525" type="curve" smooth="yes"/>
      <point x="724" y="525"/>
      <point x="775" y="453"/>
      <point x="775" y="328" type="curve" smooth="yes"/>
      <point x="775" y="180"/>
      <point x="696" y="28"/>
      <point x="572" y="-71" type="curve"/>
      <point x="632" y="-124" type="line"/>
      <point x="775" y="-7"/>
      <point x="861" y="162"/>
    </contour>
  </outline>
</glyph>
<glyph name="ngFinal_cham" format="2">
  <advance width="1101"/>
  <unicode hex="AA42"/>
  <note>
uniAA42
</note>
  <outline>
    <contour>
      <point x="1048" y="392" type="curve" smooth="yes"/>
      <point x="1048" y="518"/>
      <point x="954" y="594"/>
      <point x="819" y="594" type="curve" smooth="yes"/>
      <point x="682" y="594"/>
      <point x="590" y="516"/>
      <point x="590" y="401" type="curve" smooth="yes"/>
      <point x="590" y="302"/>
      <point x="655" y="231"/>
      <point x="741" y="231" type="curve" smooth="yes"/>
      <point x="797" y="231"/>
      <point x="833" y="264"/>
      <point x="833" y="313" type="curve" smooth="yes"/>
      <point x="833" y="360"/>
      <point x="799" y="391"/>
      <point x="746" y="391" type="curve" smooth="yes"/>
      <point x="676" y="391"/>
      <point x="633" y="352"/>
      <point x="629" y="284" type="curve" smooth="yes"/>
      <point x="627" y="250"/>
      <point x="625" y="214"/>
      <point x="623" y="193" type="curve" smooth="yes"/>
      <point x="614" y="96"/>
      <point x="546" y="54"/>
      <point x="408" y="33" type="curve"/>
      <point x="408" y="-17" type="line"/>
      <point x="475" y="42"/>
      <point x="506" y="108"/>
      <point x="506" y="174" type="curve" smooth="yes"/>
      <point x="506" y="262"/>
      <point x="442" y="315"/>
      <point x="357" y="316" type="curve" smooth="yes"/>
      <point x="340" y="316"/>
      <point x="322" y="313"/>
      <point x="304" y="309" type="curve"/>
      <point x="326" y="264" type="line"/>
      <point x="399" y="291"/>
      <point x="441" y="357"/>
      <point x="441" y="426" type="curve" smooth="yes"/>
      <point x="441" y="527"/>
      <point x="361" y="594"/>
      <point x="248" y="594" type="curve" smooth="yes"/>
      <point x="132" y="594"/>
      <point x="53" y="524"/>
      <point x="53" y="420" type="curve" smooth="yes"/>
      <point x="53" y="368"/>
      <point x="74" y="315"/>
      <point x="117" y="275" type="curve"/>
      <point x="180" y="323" type="line"/>
      <point x="154" y="347"/>
      <point x="137" y="383"/>
      <point x="137" y="421" type="curve" smooth="yes"/>
      <point x="137" y="485"/>
      <point x="181" y="525"/>
      <point x="247" y="525" type="curve" smooth="yes"/>
      <point x="313" y="525"/>
      <point x="355" y="482"/>
      <point x="355" y="422" type="curve" smooth="yes"/>
      <point x="355" y="371"/>
      <point x="326" y="325"/>
      <point x="271" y="302" type="curve"/>
      <point x="286" y="252" type="line"/>
      <point x="302" y="256"/>
      <point x="317" y="259"/>
      <point x="331" y="259" type="curve" smooth="yes"/>
      <point x="384" y="259"/>
      <point x="422" y="224"/>
      <point x="422" y="162" type="curve" smooth="yes"/>
      <point x="422" y="107"/>
      <point x="399" y="59"/>
      <point x="351" y="1" type="curve"/>
      <point x="368" y="-44" type="line"/>
      <point x="604" y="-6"/>
      <point x="685" y="57"/>
      <point x="690" y="198" type="curve" smooth="yes"/>
      <point x="691" y="227"/>
      <point x="691" y="263"/>
      <point x="693" y="289" type="curve" smooth="yes"/>
      <point x="696" y="325"/>
      <point x="715" y="348"/>
      <point x="746" y="348" type="curve" smooth="yes"/>
      <point x="771" y="348"/>
      <point x="787" y="335"/>
      <point x="787" y="312" type="curve" smooth="yes"/>
      <point x="787" y="289"/>
      <point x="771" y="274"/>
      <point x="745" y="274" type="curve" smooth="yes"/>
      <point x="701" y="274"/>
      <point x="666" y="320"/>
      <point x="666" y="397" type="curve" smooth="yes"/>
      <point x="666" y="478"/>
      <point x="725" y="525"/>
      <point x="815" y="525" type="curve" smooth="yes"/>
      <point x="903" y="525"/>
      <point x="963" y="478"/>
      <point x="963" y="387" type="curve" smooth="yes"/>
      <point x="963" y="331"/>
      <point x="938" y="277"/>
      <point x="868" y="234" type="curve" smooth="yes"/>
      <point x="820" y="205" type="line" smooth="yes"/>
      <point x="778" y="179"/>
      <point x="774" y="157"/>
      <point x="774" y="118" type="curve" smooth="yes"/>
      <point x="774" y="-282" type="line"/>
      <point x="862" y="-282" type="line"/>
      <point x="862" y="109" type="line" smooth="yes"/>
      <point x="862" y="140"/>
      <point x="868" y="152"/>
      <point x="898" y="171" type="curve" smooth="yes"/>
      <point x="940" y="197" type="line" smooth="yes"/>
      <point x="1013" y="243"/>
      <point x="1048" y="309"/>
    </contour>
  </outline>
</glyph>
<glyph name="ngSignFinal_cham" format="2">
  <unicode hex="AA43"/>
  <note>
uniAA43
</note>
  <outline>
    <contour>
      <point x="-51" y="864" type="line"/>
      <point x="-72" y="908" type="line"/>
      <point x="-406" y="754" type="line"/>
      <point x="-376" y="694" type="line"/>
    </contour>
  </outline>
</glyph>
<glyph name="chFinal_cham" format="2">
  <advance width="1025"/>
  <unicode hex="AA44"/>
  <note>
uniAA44
</note>
  <outline>
    <contour>
      <point x="945" y="327" type="curve" smooth="yes"/>
      <point x="945" y="492"/>
      <point x="869" y="594"/>
      <point x="743" y="594" type="curve" smooth="yes"/>
      <point x="650" y="594"/>
      <point x="580" y="550"/>
      <point x="562" y="449" type="curve" smooth="yes"/>
      <point x="543" y="344"/>
      <point x="506" y="330"/>
      <point x="396" y="312" type="curve" smooth="yes"/>
      <point x="250" y="288"/>
      <point x="156" y="218"/>
      <point x="156" y="112" type="curve" smooth="yes"/>
      <point x="156" y="31"/>
      <point x="208" y="-17"/>
      <point x="289" y="-17" type="curve" smooth="yes"/>
      <point x="408" y="-17"/>
      <point x="487" y="103"/>
      <point x="487" y="286" type="curve" smooth="yes"/>
      <point x="487" y="481"/>
      <point x="393" y="594"/>
      <point x="249" y="594" type="curve" smooth="yes"/>
      <point x="132" y="594"/>
      <point x="61" y="527"/>
      <point x="61" y="435" type="curve" smooth="yes"/>
      <point x="61" y="379"/>
      <point x="85" y="333"/>
      <point x="118" y="302" type="curve"/>
      <point x="174" y="347" type="line"/>
      <point x="156" y="367"/>
      <point x="143" y="395"/>
      <point x="143" y="429" type="curve" smooth="yes"/>
      <point x="143" y="488"/>
      <point x="184" y="525"/>
      <point x="251" y="525" type="curve" smooth="yes"/>
      <point x="344" y="525"/>
      <point x="403" y="442"/>
      <point x="403" y="290" type="curve" smooth="yes"/>
      <point x="403" y="142"/>
      <point x="357" y="51"/>
      <point x="289" y="51" type="curve" smooth="yes"/>
      <point x="256" y="51"/>
      <point x="239" y="78"/>
      <point x="239" y="115" type="curve" smooth="yes"/>
      <point x="239" y="175"/>
      <point x="286" y="228"/>
      <point x="434" y="255" type="curve" smooth="yes"/>
      <point x="569" y="280"/>
      <point x="615" y="307"/>
      <point x="634" y="418" type="curve" smooth="yes"/>
      <point x="646" y="487"/>
      <point x="680" y="525"/>
      <point x="740" y="525" type="curve" smooth="yes"/>
      <point x="817" y="525"/>
      <point x="859" y="452"/>
      <point x="859" y="328" type="curve" smooth="yes"/>
      <point x="859" y="176"/>
      <point x="778" y="28"/>
      <point x="650" y="-66" type="curve"/>
      <point x="707" y="-123" type="line"/>
      <point x="854" y="-16"/>
      <point x="945" y="156"/>
    </contour>
  </outline>
</glyph>
<glyph name="tFinal_cham" format="2">
  <advance width="916"/>
  <unicode hex="AA45"/>
  <note>
uniAA45
</note>
  <outline>
    <contour>
      <point x="836" y="327" type="curve" smooth="yes"/>
      <point x="836" y="492"/>
      <point x="760" y="594"/>
      <point x="634" y="594" type="curve" smooth="yes"/>
      <point x="520" y="594"/>
      <point x="438" y="518"/>
      <point x="438" y="389" type="curve"/>
      <point x="492" y="389" type="line"/>
      <point x="493" y="517"/>
      <point x="415" y="594"/>
      <point x="304" y="594" type="curve" smooth="yes"/>
      <point x="166" y="594"/>
      <point x="80" y="485"/>
      <point x="80" y="308" type="curve" smooth="yes"/>
      <point x="80" y="107"/>
      <point x="175" y="-17"/>
      <point x="318" y="-17" type="curve" smooth="yes"/>
      <point x="423" y="-17"/>
      <point x="488" y="47"/>
      <point x="488" y="141" type="curve" smooth="yes"/>
      <point x="488" y="239"/>
      <point x="414" y="301"/>
      <point x="314" y="301" type="curve" smooth="yes"/>
      <point x="237" y="301"/>
      <point x="174" y="265"/>
      <point x="130" y="203" type="curve"/>
      <point x="170" y="151" type="line"/>
      <point x="200" y="209"/>
      <point x="249" y="239"/>
      <point x="309" y="239" type="curve" smooth="yes"/>
      <point x="369" y="239"/>
      <point x="412" y="206"/>
      <point x="412" y="140" type="curve" smooth="yes"/>
      <point x="412" y="80"/>
      <point x="378" y="45"/>
      <point x="321" y="45" type="curve" smooth="yes"/>
      <point x="222" y="45"/>
      <point x="166" y="139"/>
      <point x="166" y="310" type="curve" smooth="yes"/>
      <point x="166" y="445"/>
      <point x="220" y="525"/>
      <point x="312" y="525" type="curve" smooth="yes"/>
      <point x="381" y="525"/>
      <point x="431" y="476"/>
      <point x="428" y="379" type="curve"/>
      <point x="502" y="379" type="line"/>
      <point x="500" y="480"/>
      <point x="555" y="525"/>
      <point x="624" y="525" type="curve" smooth="yes"/>
      <point x="705" y="525"/>
      <point x="751" y="452"/>
      <point x="751" y="328" type="curve" smooth="yes"/>
      <point x="751" y="176"/>
      <point x="671" y="27"/>
      <point x="542" y="-66" type="curve"/>
      <point x="600" y="-122" type="line"/>
      <point x="745" y="-15"/>
      <point x="836" y="156"/>
    </contour>
  </outline>
</glyph>
<glyph name="nFinal_cham" format="2">
  <advance width="1113"/>
  <unicode hex="AA46"/>
  <note>
uniAA46
</note>
  <outline>
    <contour>
      <point x="1033" y="327" type="curve" smooth="yes"/>
      <point x="1033" y="492"/>
      <point x="956" y="594"/>
      <point x="817" y="594" type="curve" smooth="yes"/>
      <point x="703" y="594"/>
      <point x="631" y="526"/>
      <point x="631" y="426" type="curve" smooth="yes"/>
      <point x="631" y="341"/>
      <point x="670" y="272"/>
      <point x="670" y="199" type="curve" smooth="yes"/>
      <point x="670" y="140"/>
      <point x="634" y="75"/>
      <point x="587" y="47" type="curve"/>
      <point x="637" y="10" type="line"/>
      <point x="660" y="187"/>
      <point x="557" y="325"/>
      <point x="388" y="325" type="curve" smooth="yes"/>
      <point x="258" y="325"/>
      <point x="156" y="239"/>
      <point x="156" y="124" type="curve" smooth="yes"/>
      <point x="156" y="36"/>
      <point x="215" y="-17"/>
      <point x="294" y="-17" type="curve" smooth="yes"/>
      <point x="409" y="-17"/>
      <point x="488" y="101"/>
      <point x="488" y="280" type="curve" smooth="yes"/>
      <point x="488" y="482"/>
      <point x="393" y="594"/>
      <point x="249" y="594" type="curve" smooth="yes"/>
      <point x="132" y="594"/>
      <point x="61" y="527"/>
      <point x="61" y="435" type="curve" smooth="yes"/>
      <point x="61" y="379"/>
      <point x="85" y="332"/>
      <point x="118" y="302" type="curve"/>
      <point x="174" y="347" type="line"/>
      <point x="156" y="367"/>
      <point x="143" y="395"/>
      <point x="143" y="429" type="curve" smooth="yes"/>
      <point x="143" y="487"/>
      <point x="184" y="525"/>
      <point x="251" y="525" type="curve" smooth="yes"/>
      <point x="345" y="525"/>
      <point x="404" y="443"/>
      <point x="404" y="284" type="curve" smooth="yes"/>
      <point x="404" y="140"/>
      <point x="359" y="51"/>
      <point x="296" y="51" type="curve" smooth="yes"/>
      <point x="261" y="51"/>
      <point x="239" y="80"/>
      <point x="239" y="127" type="curve" smooth="yes"/>
      <point x="239" y="194"/>
      <point x="296" y="258"/>
      <point x="399" y="258" type="curve" smooth="yes"/>
      <point x="503" y="258"/>
      <point x="586" y="169"/>
      <point x="574" y="15" type="curve"/>
      <point x="615" y="-17" type="line"/>
      <point x="695" y="29"/>
      <point x="752" y="112"/>
      <point x="752" y="205" type="curve" smooth="yes"/>
      <point x="752" y="292"/>
      <point x="717" y="353"/>
      <point x="717" y="424" type="curve" smooth="yes"/>
      <point x="717" y="486"/>
      <point x="755" y="525"/>
      <point x="818" y="525" type="curve" smooth="yes"/>
      <point x="901" y="525"/>
      <point x="948" y="452"/>
      <point x="948" y="328" type="curve" smooth="yes"/>
      <point x="948" y="176"/>
      <point x="867" y="28"/>
      <point x="738" y="-66" type="curve"/>
      <point x="796" y="-122" type="line"/>
      <point x="942" y="-16"/>
      <point x="1033" y="156"/>
    </contour>
  </outline>
</glyph>
<glyph name="pFinal_cham" format="2">
  <advance width="1204"/>
  <unicode hex="AA47"/>
  <note>
uniAA47
</note>
  <outline>
    <contour>
      <point x="1124" y="327" type="curve" smooth="yes"/>
      <point x="1124" y="492"/>
      <point x="1048" y="594"/>
      <point x="923" y="594" type="curve" smooth="yes"/>
      <point x="814" y="594"/>
      <point x="735" y="518"/>
      <point x="735" y="390" type="curve"/>
      <point x="788" y="390" type="line"/>
      <point x="788" y="518"/>
      <point x="708" y="594"/>
      <point x="594" y="594" type="curve" smooth="yes"/>
      <point x="487" y="594"/>
      <point x="413" y="524"/>
      <point x="413" y="424" type="curve" smooth="yes"/>
      <point x="413" y="337"/>
      <point x="455" y="278"/>
      <point x="455" y="196" type="curve" smooth="yes"/>
      <point x="455" y="100"/>
      <point x="395" y="48"/>
      <point x="292" y="48" type="curve" smooth="yes"/>
      <point x="195" y="48"/>
      <point x="132" y="96"/>
      <point x="132" y="166" type="curve" smooth="yes"/>
      <point x="132" y="216"/>
      <point x="164" y="251"/>
      <point x="217" y="251" type="curve" smooth="yes"/>
      <point x="270" y="251"/>
      <point x="303" y="215"/>
      <point x="303" y="152" type="curve" smooth="yes"/>
      <point x="303" y="116"/>
      <point x="290" y="71"/>
      <point x="276" y="43" type="curve"/>
      <point x="343" y="43" type="line"/>
      <point x="356" y="68"/>
      <point x="374" y="114"/>
      <point x="374" y="163" type="curve" smooth="yes"/>
      <point x="374" y="258"/>
      <point x="308" y="317"/>
      <point x="214" y="317" type="curve" smooth="yes"/>
      <point x="114" y="317"/>
      <point x="53" y="251"/>
      <point x="53" y="165" type="curve" smooth="yes"/>
      <point x="53" y="57"/>
      <point x="151" y="-17"/>
      <point x="304" y="-17" type="curve" smooth="yes"/>
      <point x="453" y="-17"/>
      <point x="540" y="65"/>
      <point x="540" y="191" type="curve" smooth="yes"/>
      <point x="540" y="285"/>
      <point x="499" y="343"/>
      <point x="499" y="420" type="curve" smooth="yes"/>
      <point x="499" y="482"/>
      <point x="541" y="525"/>
      <point x="608" y="525" type="curve" smooth="yes"/>
      <point x="677" y="525"/>
      <point x="727" y="477"/>
      <point x="725" y="379" type="curve"/>
      <point x="798" y="379" type="line"/>
      <point x="796" y="480"/>
      <point x="849" y="525"/>
      <point x="913" y="525" type="curve" smooth="yes"/>
      <point x="993" y="525"/>
      <point x="1038" y="452"/>
      <point x="1038" y="328" type="curve" smooth="yes"/>
      <point x="1038" y="176"/>
      <point x="958" y="28"/>
      <point x="829" y="-66" type="curve"/>
      <point x="887" y="-123" type="line"/>
      <point x="1033" y="-16"/>
      <point x="1124" y="155"/>
    </contour>
  </outline>
</glyph>
<glyph name="yFinal_cham" format="2">
  <advance width="1349"/>
  <unicode hex="AA48"/>
  <note>
uniAA48
</note>
  <outline>
    <contour>
      <point x="1269" y="327" type="curve" smooth="yes"/>
      <point x="1269" y="492"/>
      <point x="1193" y="594"/>
      <point x="1066" y="594" type="curve" smooth="yes"/>
      <point x="952" y="594"/>
      <point x="871" y="518"/>
      <point x="871" y="390" type="curve"/>
      <point x="924" y="390" type="line"/>
      <point x="925" y="518"/>
      <point x="845" y="594"/>
      <point x="733" y="594" type="curve" smooth="yes"/>
      <point x="625" y="594"/>
      <point x="552" y="525"/>
      <point x="552" y="423" type="curve" smooth="yes"/>
      <point x="552" y="334"/>
      <point x="593" y="272"/>
      <point x="593" y="211" type="curve" smooth="yes"/>
      <point x="593" y="127"/>
      <point x="514" y="70"/>
      <point x="376" y="41" type="curve"/>
      <point x="378" y="19" type="line"/>
      <point x="428" y="138"/>
      <point x="454" y="263"/>
      <point x="454" y="353" type="curve" smooth="yes"/>
      <point x="454" y="509"/>
      <point x="371" y="594"/>
      <point x="250" y="594" type="curve" smooth="yes"/>
      <point x="133" y="594"/>
      <point x="53" y="525"/>
      <point x="53" y="419" type="curve" smooth="yes"/>
      <point x="53" y="368"/>
      <point x="74" y="316"/>
      <point x="116" y="276" type="curve"/>
      <point x="178" y="324" type="line"/>
      <point x="154" y="349"/>
      <point x="137" y="383"/>
      <point x="137" y="421" type="curve" smooth="yes"/>
      <point x="137" y="486"/>
      <point x="180" y="525"/>
      <point x="248" y="525" type="curve" smooth="yes"/>
      <point x="324" y="525"/>
      <point x="368" y="461"/>
      <point x="368" y="349" type="curve" smooth="yes"/>
      <point x="368" y="249"/>
      <point x="336" y="106"/>
      <point x="283" y="-3" type="curve"/>
      <point x="297" y="-44" type="line"/>
      <point x="539" y="-6"/>
      <point x="679" y="79"/>
      <point x="679" y="207" type="curve" smooth="yes"/>
      <point x="679" y="285"/>
      <point x="637" y="345"/>
      <point x="637" y="421" type="curve" smooth="yes"/>
      <point x="637" y="482"/>
      <point x="679" y="525"/>
      <point x="746" y="525" type="curve" smooth="yes"/>
      <point x="814" y="525"/>
      <point x="863" y="477"/>
      <point x="861" y="379" type="curve"/>
      <point x="934" y="379" type="line"/>
      <point x="933" y="480"/>
      <point x="987" y="525"/>
      <point x="1056" y="525" type="curve" smooth="yes"/>
      <point x="1138" y="525"/>
      <point x="1183" y="452"/>
      <point x="1183" y="328" type="curve" smooth="yes"/>
      <point x="1183" y="176"/>
      <point x="1103" y="28"/>
      <point x="974" y="-66" type="curve"/>
      <point x="1032" y="-122" type="line"/>
      <point x="1178" y="-16"/>
      <point x="1269" y="156"/>
    </contour>
  </outline>
</glyph>
<glyph name="lFinal_cham" format="2">
  <advance width="938"/>
  <unicode hex="AA4A"/>
  <note>
uniAA4A
</note>
  <outline>
    <contour>
      <point x="858" y="325" type="curve" smooth="yes"/>
      <point x="858" y="492"/>
      <point x="779" y="594"/>
      <point x="669" y="594" type="curve" smooth="yes"/>
      <point x="553" y="594"/>
      <point x="530" y="513"/>
      <point x="470" y="513" type="curve" smooth="yes"/>
      <point x="410" y="513"/>
      <point x="385" y="594"/>
      <point x="271" y="594" type="curve" smooth="yes"/>
      <point x="157" y="594"/>
      <point x="80" y="485"/>
      <point x="80" y="308" type="curve" smooth="yes"/>
      <point x="80" y="105"/>
      <point x="190" y="-19"/>
      <point x="339" y="-19" type="curve" smooth="yes"/>
      <point x="412" y="-19"/>
      <point x="457" y="23"/>
      <point x="457" y="82" type="curve" smooth="yes"/>
      <point x="457" y="143"/>
      <point x="411" y="182"/>
      <point x="347" y="182" type="curve" smooth="yes"/>
      <point x="275" y="182"/>
      <point x="226" y="129"/>
      <point x="213" y="48" type="curve"/>
      <point x="265" y="48" type="line"/>
      <point x="273" y="93"/>
      <point x="300" y="131"/>
      <point x="346" y="131" type="curve" smooth="yes"/>
      <point x="376" y="131"/>
      <point x="400" y="116"/>
      <point x="400" y="83" type="curve" smooth="yes"/>
      <point x="400" y="54"/>
      <point x="379" y="35"/>
      <point x="344" y="35" type="curve" smooth="yes"/>
      <point x="245" y="35"/>
      <point x="166" y="130"/>
      <point x="166" y="308" type="curve" smooth="yes"/>
      <point x="166" y="441"/>
      <point x="218" y="518"/>
      <point x="287" y="518" type="curve" smooth="yes"/>
      <point x="369" y="518"/>
      <point x="381" y="437"/>
      <point x="470" y="437" type="curve" smooth="yes"/>
      <point x="559" y="437"/>
      <point x="571" y="518"/>
      <point x="653" y="518" type="curve" smooth="yes"/>
      <point x="717" y="518"/>
      <point x="772" y="448"/>
      <point x="772" y="325" type="curve" smooth="yes"/>
      <point x="772" y="173"/>
      <point x="691" y="26"/>
      <point x="563" y="-67" type="curve"/>
      <point x="619" y="-123" type="line"/>
      <point x="766" y="-19"/>
      <point x="858" y="153"/>
    </contour>
  </outline>
</glyph>
<glyph name="ssFinal_cham" format="2">
  <advance width="1117"/>
  <unicode hex="AA4B"/>
  <note>
uniAA4B
</note>
  <outline>
    <contour>
      <point x="1037" y="327" type="curve" smooth="yes"/>
      <point x="1037" y="492"/>
      <point x="959" y="594"/>
      <point x="824" y="594" type="curve" smooth="yes"/>
      <point x="712" y="594"/>
      <point x="637" y="531"/>
      <point x="637" y="439" type="curve" smooth="yes"/>
      <point x="637" y="403"/>
      <point x="650" y="368"/>
      <point x="650" y="346" type="curve" smooth="yes"/>
      <point x="650" y="236"/>
      <point x="494" y="241"/>
      <point x="494" y="122" type="curve" smooth="yes"/>
      <point x="494" y="89"/>
      <point x="501" y="67"/>
      <point x="529" y="39" type="curve"/>
      <point x="529" y="52" type="line"/>
      <point x="523" y="52"/>
      <point x="516" y="52"/>
      <point x="510" y="52" type="curve" smooth="yes"/>
      <point x="442" y="52"/>
      <point x="399" y="101"/>
      <point x="399" y="170" type="curve" smooth="yes"/>
      <point x="399" y="251"/>
      <point x="465" y="318"/>
      <point x="465" y="414" type="curve" smooth="yes"/>
      <point x="465" y="524"/>
      <point x="382" y="594"/>
      <point x="260" y="594" type="curve" smooth="yes"/>
      <point x="135" y="594"/>
      <point x="53" y="520"/>
      <point x="53" y="405" type="curve" smooth="yes"/>
      <point x="53" y="301"/>
      <point x="122" y="237"/>
      <point x="202" y="237" type="curve" smooth="yes"/>
      <point x="253" y="237"/>
      <point x="284" y="267"/>
      <point x="284" y="313" type="curve" smooth="yes"/>
      <point x="284" y="352"/>
      <point x="256" y="381"/>
      <point x="211" y="381" type="curve" smooth="yes"/>
      <point x="136" y="381"/>
      <point x="91" y="307"/>
      <point x="84" y="202" type="curve"/>
      <point x="131" y="198" type="line"/>
      <point x="137" y="282"/>
      <point x="162" y="340"/>
      <point x="208" y="340" type="curve" smooth="yes"/>
      <point x="226" y="340"/>
      <point x="242" y="331"/>
      <point x="242" y="310" type="curve" smooth="yes"/>
      <point x="242" y="292"/>
      <point x="232" y="278"/>
      <point x="207" y="278" type="curve" smooth="yes"/>
      <point x="161" y="278"/>
      <point x="126" y="324"/>
      <point x="126" y="398" type="curve" smooth="yes"/>
      <point x="126" y="480"/>
      <point x="178" y="525"/>
      <point x="257" y="525" type="curve" smooth="yes"/>
      <point x="333" y="525"/>
      <point x="380" y="480"/>
      <point x="380" y="408" type="curve" smooth="yes"/>
      <point x="380" y="327"/>
      <point x="313" y="260"/>
      <point x="313" y="170" type="curve" smooth="yes"/>
      <point x="313" y="61"/>
      <point x="396" y="-17"/>
      <point x="525" y="-17" type="curve" smooth="yes"/>
      <point x="549" y="-17"/>
      <point x="573" y="-17"/>
      <point x="590" y="-16" type="curve"/>
      <point x="612" y="37" type="line"/>
      <point x="588" y="65"/>
      <point x="577" y="82"/>
      <point x="577" y="111" type="curve" smooth="yes"/>
      <point x="577" y="204"/>
      <point x="736" y="199"/>
      <point x="736" y="335" type="curve" smooth="yes"/>
      <point x="736" y="367"/>
      <point x="723" y="396"/>
      <point x="723" y="428" type="curve" smooth="yes"/>
      <point x="723" y="487"/>
      <point x="762" y="525"/>
      <point x="824" y="525" type="curve" smooth="yes"/>
      <point x="905" y="525"/>
      <point x="952" y="452"/>
      <point x="952" y="328" type="curve" smooth="yes"/>
      <point x="952" y="176"/>
      <point x="871" y="28"/>
      <point x="742" y="-66" type="curve"/>
      <point x="800" y="-122" type="line"/>
      <point x="946" y="-15"/>
      <point x="1037" y="156"/>
    </contour>
  </outline>
</glyph>
<glyph name="mSignFinal_cham" format="2">
  <unicode hex="AA4C"/>
  <note>
uniAA4C
</note>
  <outline>
    <contour>
      <point x="-229" y="725" type="curve" smooth="yes"/>
      <point x="-190" y="725"/>
      <point x="-166" y="749"/>
      <point x="-166" y="787" type="curve" smooth="yes"/>
      <point x="-166" y="826"/>
      <point x="-190" y="850"/>
      <point x="-229" y="850" type="curve" smooth="yes"/>
      <point x="-267" y="850"/>
      <point x="-291" y="826"/>
      <point x="-291" y="787" type="curve" smooth="yes"/>
      <point x="-291" y="749"/>
      <point x="-267" y="725"/>
    </contour>
  </outline>
</glyph>
<glyph name="hSignFinal_cham" format="2">
  <advance width="565"/>
  <unicode hex="AA4D"/>
  <note>
uniAA4D
</note>
  <outline>
    <contour>
      <point x="512" y="392" type="curve" smooth="yes"/>
      <point x="512" y="518"/>
      <point x="417" y="594"/>
      <point x="283" y="594" type="curve" smooth="yes"/>
      <point x="146" y="594"/>
      <point x="53" y="516"/>
      <point x="53" y="401" type="curve" smooth="yes"/>
      <point x="53" y="299"/>
      <point x="116" y="234"/>
      <point x="196" y="234" type="curve" smooth="yes"/>
      <point x="247" y="234"/>
      <point x="283" y="266"/>
      <point x="283" y="311" type="curve" smooth="yes"/>
      <point x="283" y="356"/>
      <point x="249" y="384"/>
      <point x="203" y="384" type="curve" smooth="yes"/>
      <point x="157" y="384"/>
      <point x="122" y="355"/>
      <point x="106" y="311" type="curve"/>
      <point x="139" y="279" type="line"/>
      <point x="147" y="319"/>
      <point x="168" y="346"/>
      <point x="199" y="346" type="curve" smooth="yes"/>
      <point x="222" y="346"/>
      <point x="239" y="334"/>
      <point x="239" y="311" type="curve" smooth="yes"/>
      <point x="239" y="290"/>
      <point x="227" y="275"/>
      <point x="201" y="275" type="curve" smooth="yes"/>
      <point x="158" y="275"/>
      <point x="130" y="319"/>
      <point x="130" y="396" type="curve" smooth="yes"/>
      <point x="130" y="478"/>
      <point x="189" y="525"/>
      <point x="278" y="525" type="curve" smooth="yes"/>
      <point x="366" y="525"/>
      <point x="426" y="478"/>
      <point x="426" y="387" type="curve" smooth="yes"/>
      <point x="426" y="331"/>
      <point x="402" y="277"/>
      <point x="331" y="234" type="curve" smooth="yes"/>
      <point x="284" y="205" type="line" smooth="yes"/>
      <point x="241" y="179"/>
      <point x="239" y="157"/>
      <point x="239" y="118" type="curve" smooth="yes"/>
      <point x="239" y="-282" type="line"/>
      <point x="326" y="-282" type="line"/>
      <point x="326" y="109" type="line" smooth="yes"/>
      <point x="326" y="140"/>
      <point x="332" y="152"/>
      <point x="362" y="171" type="curve" smooth="yes"/>
      <point x="404" y="198" type="line" smooth="yes"/>
      <point x="477" y="245"/>
      <point x="512" y="309"/>
    </contour>
  </outline>
</glyph>
<glyph name="zero_cham" format="2">
  <advance width="634"/>
  <unicode hex="AA50"/>
  <note>
uniAA50
</note>
  <outline>
    <contour>
      <point x="580" y="288" type="curve" smooth="yes"/>
      <point x="580" y="470"/>
      <point x="490" y="594"/>
      <point x="322" y="594" type="curve" smooth="yes"/>
      <point x="155" y="594"/>
      <point x="55" y="480"/>
      <point x="55" y="288" type="curve" smooth="yes"/>
      <point x="55" y="104"/>
      <point x="153" y="-18"/>
      <point x="317" y="-18" type="curve" smooth="yes"/>
      <point x="490" y="-18"/>
      <point x="580" y="105"/>
    </contour>
    <contour>
      <point x="143" y="288" type="curve" smooth="yes"/>
      <point x="143" y="439"/>
      <point x="203" y="525"/>
      <point x="321" y="525" type="curve" smooth="yes"/>
      <point x="445" y="525"/>
      <point x="492" y="428"/>
      <point x="492" y="288" type="curve" smooth="yes"/>
      <point x="492" y="145"/>
      <point x="441" y="51"/>
      <point x="318" y="51" type="curve" smooth="yes"/>
      <point x="198" y="51"/>
      <point x="143" y="144"/>
    </contour>
  </outline>
</glyph>
<glyph name="two_cham" format="2">
  <advance width="956"/>
  <unicode hex="AA52"/>
  <note>
uniAA52
</note>
  <outline>
    <contour>
      <point x="876" y="294" type="curve" smooth="yes"/>
      <point x="876" y="419" type="line" smooth="yes"/>
      <point x="876" y="529"/>
      <point x="819" y="594"/>
      <point x="731" y="594" type="curve" smooth="yes"/>
      <point x="688" y="594"/>
      <point x="661" y="580"/>
      <point x="633" y="557" type="curve" smooth="yes"/>
      <point x="607" y="535"/>
      <point x="593" y="520"/>
      <point x="568" y="520" type="curve" smooth="yes"/>
      <point x="544" y="520"/>
      <point x="529" y="536"/>
      <point x="503" y="557" type="curve" smooth="yes"/>
      <point x="474" y="580"/>
      <point x="446" y="594"/>
      <point x="407" y="594" type="curve" smooth="yes"/>
      <point x="315" y="594"/>
      <point x="263" y="519"/>
      <point x="263" y="409" type="curve" smooth="yes"/>
      <point x="263" y="265"/>
      <point x="335" y="189"/>
      <point x="442" y="189" type="curve" smooth="yes"/>
      <point x="501" y="189"/>
      <point x="548" y="228"/>
      <point x="548" y="284" type="curve" smooth="yes"/>
      <point x="548" y="339"/>
      <point x="506" y="374"/>
      <point x="449" y="374" type="curve" smooth="yes"/>
      <point x="385" y="374"/>
      <point x="341" y="324"/>
      <point x="332" y="245" type="curve"/>
      <point x="373" y="240" type="line"/>
      <point x="379" y="293"/>
      <point x="404" y="329"/>
      <point x="446" y="329" type="curve" smooth="yes"/>
      <point x="475" y="329"/>
      <point x="497" y="313"/>
      <point x="497" y="282" type="curve" smooth="yes"/>
      <point x="497" y="253"/>
      <point x="474" y="234"/>
      <point x="445" y="234" type="curve" smooth="yes"/>
      <point x="384" y="234"/>
      <point x="345" y="278"/>
      <point x="345" y="392" type="curve" smooth="yes"/>
      <point x="345" y="474"/>
      <point x="375" y="520"/>
      <point x="427" y="520" type="curve" smooth="yes"/>
      <point x="456" y="520"/>
      <point x="473" y="503"/>
      <point x="497" y="483" type="curve" smooth="yes"/>
      <point x="520" y="463"/>
      <point x="539" y="448"/>
      <point x="568" y="448" type="curve" smooth="yes"/>
      <point x="597" y="448"/>
      <point x="615" y="461"/>
      <point x="639" y="483" type="curve" smooth="yes"/>
      <point x="664" y="506"/>
      <point x="682" y="520"/>
      <point x="710" y="520" type="curve" smooth="yes"/>
      <point x="762" y="520"/>
      <point x="791" y="483"/>
      <point x="791" y="411" type="curve" smooth="yes"/>
      <point x="791" y="297" type="line" smooth="yes"/>
      <point x="791" y="136"/>
      <point x="686" y="54"/>
      <point x="484" y="54" type="curve" smooth="yes"/>
      <point x="289" y="54"/>
      <point x="165" y="123"/>
      <point x="165" y="276" type="curve" smooth="yes"/>
      <point x="165" y="641" type="line" smooth="yes"/>
      <point x="165" y="773"/>
      <point x="241" y="830"/>
      <point x="339" y="830" type="curve" smooth="yes"/>
      <point x="440" y="830"/>
      <point x="507" y="765"/>
      <point x="612" y="765" type="curve" smooth="yes"/>
      <point x="707" y="765"/>
      <point x="786" y="820"/>
      <point x="829" y="938" type="curve"/>
      <point x="757" y="968" type="line"/>
      <point x="722" y="875"/>
      <point x="669" y="843"/>
      <point x="603" y="843" type="curve" smooth="yes"/>
      <point x="513" y="843"/>
      <point x="446" y="908"/>
      <point x="330" y="908" type="curve" smooth="yes"/>
      <point x="185" y="908"/>
      <point x="80" y="816"/>
      <point x="80" y="647" type="curve" smooth="yes"/>
      <point x="80" y="273" type="line" smooth="yes"/>
      <point x="80" y="85"/>
      <point x="233" y="-17"/>
      <point x="483" y="-17" type="curve" smooth="yes"/>
      <point x="736" y="-17"/>
      <point x="876" y="98"/>
    </contour>
  </outline>
</glyph>
<glyph name="four_cham" format="2">
  <advance width="841"/>
  <unicode hex="AA54"/>
  <note>
uniAA54
</note>
  <outline>
    <contour>
      <point x="792" y="626" type="curve"/>
      <point x="727" y="653" type="line"/>
      <point x="692" y="564"/>
      <point x="639" y="529"/>
      <point x="582" y="529" type="curve" smooth="yes"/>
      <point x="482" y="529"/>
      <point x="422" y="594"/>
      <point x="312" y="594" type="curve" smooth="yes"/>
      <point x="171" y="594"/>
      <point x="80" y="482"/>
      <point x="80" y="308" type="curve" smooth="yes"/>
      <point x="80" y="107"/>
      <point x="175" y="-17"/>
      <point x="318" y="-17" type="curve" smooth="yes"/>
      <point x="423" y="-17"/>
      <point x="488" y="47"/>
      <point x="488" y="141" type="curve" smooth="yes"/>
      <point x="488" y="239"/>
      <point x="414" y="301"/>
      <point x="314" y="301" type="curve" smooth="yes"/>
      <point x="237" y="301"/>
      <point x="174" y="265"/>
      <point x="130" y="203" type="curve"/>
      <point x="170" y="151" type="line"/>
      <point x="200" y="209"/>
      <point x="249" y="239"/>
      <point x="309" y="239" type="curve" smooth="yes"/>
      <point x="369" y="239"/>
      <point x="412" y="206"/>
      <point x="412" y="140" type="curve" smooth="yes"/>
      <point x="412" y="80"/>
      <point x="378" y="45"/>
      <point x="321" y="45" type="curve" smooth="yes"/>
      <point x="222" y="45"/>
      <point x="166" y="139"/>
      <point x="166" y="310" type="curve" smooth="yes"/>
      <point x="166" y="445"/>
      <point x="227" y="522"/>
      <point x="325" y="522" type="curve" smooth="yes"/>
      <point x="417" y="522"/>
      <point x="479" y="457"/>
      <point x="593" y="457" type="curve" smooth="yes"/>
      <point x="672" y="457"/>
      <point x="751" y="507"/>
    </contour>
  </outline>
</glyph>
<glyph name="five_cham" format="2">
  <advance width="588"/>
  <unicode hex="AA55"/>
  <note>
uniAA55
</note>
  <outline>
    <contour>
      <point x="519" y="394" type="curve" smooth="yes"/>
      <point x="519" y="516"/>
      <point x="422" y="594"/>
      <point x="287" y="594" type="curve" smooth="yes"/>
      <point x="148" y="594"/>
      <point x="54" y="512"/>
      <point x="54" y="388" type="curve" smooth="yes"/>
      <point x="54" y="334"/>
      <point x="76" y="276"/>
      <point x="118" y="233" type="curve"/>
      <point x="184" y="277" type="line"/>
      <point x="157" y="304"/>
      <point x="138" y="346"/>
      <point x="138" y="390" type="curve" smooth="yes"/>
      <point x="138" y="472"/>
      <point x="198" y="525"/>
      <point x="286" y="525" type="curve" smooth="yes"/>
      <point x="378" y="525"/>
      <point x="434" y="470"/>
      <point x="434" y="388" type="curve" smooth="yes"/>
      <point x="434" y="336"/>
      <point x="409" y="281"/>
      <point x="352" y="255" type="curve"/>
      <point x="352" y="220" type="line"/>
      <point x="408" y="196"/>
      <point x="438" y="158"/>
      <point x="438" y="112" type="curve" smooth="yes"/>
      <point x="438" y="60"/>
      <point x="403" y="28"/>
      <point x="344" y="28" type="curve" smooth="yes"/>
      <point x="288" y="28"/>
      <point x="264" y="42"/>
      <point x="264" y="64" type="curve" smooth="yes"/>
      <point x="264" y="81"/>
      <point x="277" y="93"/>
      <point x="302" y="93" type="curve" smooth="yes"/>
      <point x="334" y="93"/>
      <point x="351" y="74"/>
      <point x="351" y="41" type="curve" smooth="yes"/>
      <point x="351" y="30"/>
      <point x="349" y="16"/>
      <point x="345" y="3" type="curve"/>
      <point x="393" y="11" type="line"/>
      <point x="395" y="21"/>
      <point x="396" y="32"/>
      <point x="396" y="40" type="curve" smooth="yes"/>
      <point x="396" y="92"/>
      <point x="364" y="136"/>
      <point x="300" y="136" type="curve" smooth="yes"/>
      <point x="248" y="136"/>
      <point x="214" y="107"/>
      <point x="214" y="66" type="curve" smooth="yes"/>
      <point x="214" y="14"/>
      <point x="264" y="-18"/>
      <point x="344" y="-18" type="curve" smooth="yes"/>
      <point x="453" y="-18"/>
      <point x="507" y="43"/>
      <point x="507" y="115" type="curve" smooth="yes"/>
      <point x="507" y="167"/>
      <point x="478" y="220"/>
      <point x="399" y="251" type="curve"/>
      <point x="391" y="210" type="line"/>
      <point x="474" y="240"/>
      <point x="519" y="322"/>
    </contour>
  </outline>
</glyph>
<glyph name="seven_cham" format="2">
  <advance width="914"/>
  <unicode hex="AA57"/>
  <note>
uniAA57
</note>
  <outline>
    <contour>
      <point x="829" y="333" type="curve" smooth="yes"/>
      <point x="829" y="492"/>
      <point x="753" y="594"/>
      <point x="609" y="594" type="curve" smooth="yes"/>
      <point x="494" y="594"/>
      <point x="415" y="526"/>
      <point x="415" y="424" type="curve" smooth="yes"/>
      <point x="415" y="337"/>
      <point x="455" y="278"/>
      <point x="455" y="196" type="curve" smooth="yes"/>
      <point x="455" y="100"/>
      <point x="395" y="48"/>
      <point x="292" y="48" type="curve" smooth="yes"/>
      <point x="195" y="48"/>
      <point x="132" y="96"/>
      <point x="132" y="166" type="curve" smooth="yes"/>
      <point x="132" y="216"/>
      <point x="164" y="251"/>
      <point x="217" y="251" type="curve" smooth="yes"/>
      <point x="270" y="251"/>
      <point x="303" y="215"/>
      <point x="303" y="152" type="curve" smooth="yes"/>
      <point x="303" y="116"/>
      <point x="290" y="71"/>
      <point x="276" y="43" type="curve"/>
      <point x="343" y="43" type="line"/>
      <point x="356" y="68"/>
      <point x="374" y="114"/>
      <point x="374" y="163" type="curve" smooth="yes"/>
      <point x="374" y="258"/>
      <point x="308" y="317"/>
      <point x="214" y="317" type="curve" smooth="yes"/>
      <point x="114" y="317"/>
      <point x="53" y="251"/>
      <point x="53" y="165" type="curve" smooth="yes"/>
      <point x="53" y="57"/>
      <point x="151" y="-17"/>
      <point x="304" y="-17" type="curve" smooth="yes"/>
      <point x="453" y="-17"/>
      <point x="540" y="65"/>
      <point x="540" y="191" type="curve" smooth="yes"/>
      <point x="540" y="285"/>
      <point x="500" y="343"/>
      <point x="500" y="418" type="curve" smooth="yes"/>
      <point x="500" y="482"/>
      <point x="542" y="525"/>
      <point x="611" y="525" type="curve" smooth="yes"/>
      <point x="700" y="525"/>
      <point x="743" y="452"/>
      <point x="743" y="331" type="curve" smooth="yes"/>
      <point x="743" y="169"/>
      <point x="696" y="95"/>
      <point x="574" y="21" type="curve" smooth="yes"/>
      <point x="442" y="-59"/>
      <point x="410" y="-121"/>
      <point x="410" y="-184" type="curve" smooth="yes"/>
      <point x="410" y="-251"/>
      <point x="464" y="-299"/>
      <point x="529" y="-299" type="curve" smooth="yes"/>
      <point x="651" y="-299"/>
      <point x="669" y="-149"/>
      <point x="733" y="-149" type="curve" smooth="yes"/>
      <point x="755" y="-149"/>
      <point x="768" y="-162"/>
      <point x="768" y="-183" type="curve" smooth="yes"/>
      <point x="768" y="-195"/>
      <point x="763" y="-209"/>
      <point x="754" y="-222" type="curve"/>
      <point x="822" y="-253" type="line"/>
      <point x="840" y="-228"/>
      <point x="849" y="-195"/>
      <point x="849" y="-172" type="curve" smooth="yes"/>
      <point x="849" y="-119"/>
      <point x="806" y="-76"/>
      <point x="748" y="-76" type="curve" smooth="yes"/>
      <point x="626" y="-76"/>
      <point x="608" y="-224"/>
      <point x="540" y="-224" type="curve" smooth="yes"/>
      <point x="511" y="-224"/>
      <point x="494" y="-203"/>
      <point x="494" y="-177" type="curve" smooth="yes"/>
      <point x="494" y="-149"/>
      <point x="509" y="-98"/>
      <point x="629" y="-28" type="curve" smooth="yes"/>
      <point x="784" y="62"/>
      <point x="829" y="167"/>
    </contour>
  </outline>
</glyph>
